<svg id="Layer_1" enable-background="new 0 0 256 256" height="512" viewBox="0 0 256 256" width="512" xmlns="http://www.w3.org/2000/svg"><g><path d="m177.864 156.379h-150.791c-5.28 0-9.6-4.32-9.6-9.6v-117.406c0-5.28 4.32-9.6 9.6-9.6h150.791c5.28 0 9.6 4.32 9.6 9.6v117.406c0 5.28-4.32 9.6-9.6 9.6z" fill="#63bce7"/><g><path d="m35.532 146.779v-117.406c0-5.28 4.32-9.6 9.6-9.6h-18.059c-5.28 0-9.6 4.32-9.6 9.6v117.406c0 5.28 4.32 9.6 9.6 9.6h18.059c-5.28 0-9.6-4.32-9.6-9.6z" fill="#6377e7"/></g><g><path d="m169.405 146.779v-117.406c0-5.28-4.32-9.6-9.6-9.6h18.059c5.28 0 9.6 4.32 9.6 9.6v117.406c0 5.28-4.32 9.6-9.6 9.6h-18.059c5.28 0 9.6-4.32 9.6-9.6z" fill="#67dceb"/></g><g><path d="m187.464 29.377c0-5.283-4.322-9.605-9.605-9.605h-150.781c-5.283 0-9.605 4.322-9.605 9.605v22.088h169.991z" fill="#f46275"/></g><g><path d="m45.136 19.773h-18.058c-5.283 0-9.605 4.322-9.605 9.605v22.088h18.059v-22.089c0-5.282 4.322-9.604 9.604-9.604z" fill="#f43075"/></g><g><path d="m159.801 19.773h18.059c5.283 0 9.605 4.322 9.605 9.605v22.088h-18.059v-22.089c-.001-5.282-4.323-9.604-9.605-9.604z" fill="#f48875"/></g><g><g fill="#f8af23"><circle cx="37.423" cy="35.619" r="6.627"/><circle cx="57.737" cy="35.619" r="6.627"/><circle cx="78.05" cy="35.619" r="6.627"/></g><path d="m171.24 38.487h-35.417c-1.596 0-2.901-1.306-2.901-2.901 0-1.596 1.306-2.901 2.901-2.901h35.417c1.596 0 2.901 1.306 2.901 2.901 0 1.595-1.305 2.901-2.901 2.901z" fill="#9e9e9e"/></g><path d="m37.423 67.158h71.376v36.731h-71.376z" fill="#f46275"/><path d="m228.927 224.682h-150.791c-5.28 0-9.6-4.32-9.6-9.6v-117.406c0-5.28 4.32-9.6 9.6-9.6h150.791c5.28 0 9.6 4.32 9.6 9.6v117.406c0 5.28-4.32 9.6-9.6 9.6z" fill="#63bce7"/><g><path d="m228.927 88.076h-18.059c5.28 0 9.6 4.32 9.6 9.6v117.406c0 5.28-4.32 9.6-9.6 9.6h18.059c5.28 0 9.6-4.32 9.6-9.6v-117.406c0-5.28-4.32-9.6-9.6-9.6z" fill="#67dceb"/></g><g><path d="m238.527 97.68c0-5.283-4.322-9.605-9.605-9.605h-150.781c-5.283 0-9.605 4.322-9.605 9.605v22.088h169.991z" fill="#f8af23"/></g><g><path d="m228.922 88.076h-18.059c5.282 0 9.605 4.322 9.605 9.605v22.088h18.059v-22.089c0-5.282-4.322-9.604-9.605-9.604z" fill="#f8d323"/></g><g><g fill="#f46275"><circle cx="88.486" cy="103.922" r="6.627"/><circle cx="108.799" cy="103.922" r="6.627"/><circle cx="129.113" cy="103.922" r="6.627"/></g><path d="m222.303 106.79h-35.417c-1.596 0-2.901-1.306-2.901-2.901 0-1.596 1.306-2.901 2.901-2.901h35.417c1.596 0 2.901 1.306 2.901 2.901 0 1.595-1.305 2.901-2.901 2.901z" fill="#9e9e9e"/></g><g fill="#f8af23"><path d="m126.501 150.731c2.188 1.051 3.851 2.498 4.986 4.335 1.137 1.837 1.704 3.912 1.704 6.226 0 2.848-.733 5.142-2.198 6.876-1.467 1.734-3.294 2.828-5.482 3.282v.31c5.656 1.817 8.486 5.348 8.486 10.594 0 2.518-.58 4.759-1.734 6.72-1.157 1.963-2.841 3.491-5.049 4.585-2.21 1.094-4.862 1.641-7.96 1.641-5.038 0-9.036-1.238-11.987-3.718-2.517-2.113-4.051-5.171-4.602-9.174-.157-1.143.757-2.16 1.911-2.16h6.59c.911 0 1.648.67 1.827 1.562.244 1.218.722 2.225 1.429 3.022.991 1.114 2.435 1.671 4.335 1.671 1.527 0 2.735-.454 3.624-1.361.887-.91 1.331-2.087 1.331-3.531 0-3.594-2.601-5.389-7.803-5.389h-.063c-1.061 0-1.921-.86-1.921-1.921v-4.769c0-1.061.86-1.921 1.921-1.921 4.665.083 6.999-1.59 6.999-5.018 0-1.487-.403-2.634-1.207-3.438-.807-.807-1.89-1.207-3.251-1.207-1.487 0-2.664.507-3.531 1.517-.609.709-1.035 1.588-1.277 2.634-.196.846-.984 1.424-1.853 1.424h-6.596c-1.15 0-2.07-1.009-1.909-2.148.508-3.592 1.887-6.427 4.14-8.509 2.684-2.478 6.442-3.715 11.274-3.715 3.055 0 5.676.527 7.866 1.58z"/><path d="m140.004 172.503c0-6.813 1.384-12.212 4.151-16.199 2.765-3.982 7.186-5.976 13.255-5.976 6.029 0 10.437 1.994 13.225 5.976 2.788 3.987 4.181 9.386 4.181 16.199 0 6.856-1.394 12.287-4.181 16.292s-7.196 6.006-13.225 6.006c-6.069 0-10.49-2.001-13.255-6.006-2.768-4.004-4.151-9.436-4.151-16.292zm24.282 0c0-3.922-.464-6.926-1.394-9.013-.93-2.084-2.757-3.128-5.482-3.128-2.767 0-4.625 1.054-5.575 3.161-.95 2.105-1.424 5.099-1.424 8.98 0 3.924.474 6.949 1.424 9.074.95 2.127 2.808 3.191 5.575 3.191 2.725 0 4.552-1.064 5.482-3.191.93-2.125 1.394-5.149 1.394-9.074z"/><path d="m177.975 159.062v-6.069c0-1.061.86-1.921 1.921-1.921h13.875c1.061 0 1.921.86 1.921 1.921v39.952c0 1.061-.86 1.921-1.921 1.921h-7.309c-1.061 0-1.921-.86-1.921-1.921v-30.042c0-1.061-.86-1.921-1.921-1.921h-2.725c-1.06 0-1.92-.86-1.92-1.92z"/></g><path d="m32.27 136.76 10.208-10.208c.868-.868 2.275-.868 3.143 0l10.208 10.208c1.4 1.4.409 3.794-1.572 3.794h-20.415c-1.98 0-2.972-2.394-1.572-3.794z" fill="#f46275"/><path d="m171.682 57.697-10.208 10.208c-.868.868-.868 2.275 0 3.143l10.208 10.208c1.4 1.4 3.794.409 3.794-1.572v-20.415c0-1.981-2.394-2.972-3.794-1.572z" fill="#f46275"/><g fill="#3f3679"><path d="m27.073 157.878h15.478v4.747c0 6.121 4.979 11.1 11.1 11.1h13.386v41.356c0 3.196 1.366 6.073 3.535 8.1h-42.872c-.829 0-1.5.671-1.5 1.5s.671 1.5 1.5 1.5h50.436 150.164.627c6.121 0 11.1-4.979 11.1-11.1v-95.313-22.088-.004c0-6.121-4.979-11.1-11.1-11.1h-.004-20.276v-7.499c0-6.121-4.979-11.1-11.1-11.1h-8.583v-16.512-22.088-.004c0-6.121-4.979-11.1-11.1-11.1h-.004-150.782-.004c-6.121 0-11.1 4.979-11.1 11.1v.004 22.088 95.313c-.001 6.121 4.979 11.1 11.099 11.1zm26.577 12.847c-4.466 0-8.1-3.634-8.1-8.1v-4.747h21.485v12.847zm53.649-84.149h-29.158-.004c-6.121 0-11.1 4.979-11.1 11.1v.004 4.708h-28.114v-33.73h68.376zm121.628 136.606h-.627-150.164c-4.466 0-8.1-3.634-8.1-8.1v-93.813h166.991v93.813c0 4.466-3.634 8.1-8.1 8.1zm8.1-125.502v20.588h-166.991v-20.588c0-4.469 3.636-8.104 8.104-8.104h150.782c4.469 0 8.105 3.635 8.105 8.104zm-39.48-26.703c4.466 0 8.1 3.634 8.1 8.1v7.499h-16.683v-15.599zm-19.688-49.704c4.469 0 8.104 3.636 8.104 8.104v20.588h-166.99v-20.588c0-4.469 3.636-8.104 8.104-8.104zm-158.886 31.692h166.991v15.012h-8.988v-8.708c0-1.511-.902-2.861-2.298-3.439s-2.988-.262-4.057.807l-10.208 10.208c-1.452 1.452-1.452 3.813 0 5.265l10.208 10.208c.714.714 1.662 1.092 2.629 1.092.48 0 .965-.093 1.428-.285 1.396-.578 2.298-1.928 2.298-3.439v-8.708h8.988v15.599h-75.665v-19.419c0-.829-.671-1.5-1.5-1.5h-71.376c-.829 0-1.5.671-1.5 1.5v36.731c0 .829.671 1.5 1.5 1.5h29.613v14.379 35.11h-21.485v-12.824h8.708c1.511 0 2.861-.902 3.439-2.298s.262-2.989-.807-4.057l-10.208-10.208c-1.407-1.407-3.86-1.406-5.265 0l-10.208 10.208c-1.069 1.068-1.385 2.661-.807 4.057s1.928 2.298 3.439 2.298h8.708v12.824h-15.477c-4.466 0-8.1-3.633-8.1-8.1zm155.003 6.304v20.417c0 .436-.312.612-.446.668s-.479.151-.788-.157l-10.208-10.208c-.282-.282-.282-.741 0-1.022l10.208-10.208c.167-.167.346-.215.496-.215.125 0 .231.034.292.059.134.054.446.23.446.666zm-140.134 79.785c-.436 0-.612-.312-.668-.446s-.151-.479.157-.788l10.209-10.208c.184-.184.399-.212.511-.212.111 0 .327.028.511.212l10.208 10.208c.308.309.212.654.157.788-.056.134-.232.446-.668.446z"/><path d="m37.423 43.747c4.481 0 8.127-3.646 8.127-8.127s-3.646-8.127-8.127-8.127-8.127 3.646-8.127 8.127 3.646 8.127 8.127 8.127zm0-13.255c2.827 0 5.127 2.3 5.127 5.127s-2.3 5.127-5.127 5.127-5.127-2.3-5.127-5.127 2.3-5.127 5.127-5.127z"/><path d="m57.737 43.747c4.481 0 8.127-3.646 8.127-8.127s-3.646-8.127-8.127-8.127-8.127 3.646-8.127 8.127 3.645 8.127 8.127 8.127zm0-13.255c2.827 0 5.127 2.3 5.127 5.127s-2.3 5.127-5.127 5.127-5.127-2.3-5.127-5.127 2.3-5.127 5.127-5.127z"/><path d="m78.05 43.747c4.481 0 8.127-3.646 8.127-8.127s-3.646-8.127-8.127-8.127-8.127 3.646-8.127 8.127 3.646 8.127 8.127 8.127zm0-13.255c2.827 0 5.127 2.3 5.127 5.127s-2.3 5.127-5.127 5.127-5.127-2.3-5.127-5.127 2.3-5.127 5.127-5.127z"/><path d="m135.823 39.987h35.417c2.427 0 4.402-1.975 4.402-4.401 0-2.427-1.975-4.402-4.402-4.402h-35.417c-2.427 0-4.401 1.975-4.401 4.402-.001 2.427 1.974 4.401 4.401 4.401zm0-5.803h35.417c.773 0 1.402.629 1.402 1.402s-.629 1.401-1.402 1.401h-35.417c-.773 0-1.401-.628-1.401-1.401s.628-1.402 1.401-1.402z"/><path d="m88.486 95.794c-4.481 0-8.127 3.646-8.127 8.127s3.646 8.127 8.127 8.127 8.127-3.646 8.127-8.127-3.646-8.127-8.127-8.127zm0 13.255c-2.827 0-5.127-2.3-5.127-5.127s2.3-5.127 5.127-5.127 5.127 2.3 5.127 5.127-2.3 5.127-5.127 5.127z"/><path d="m108.799 95.794c-4.481 0-8.127 3.646-8.127 8.127s3.646 8.127 8.127 8.127 8.127-3.646 8.127-8.127-3.645-8.127-8.127-8.127zm0 13.255c-2.827 0-5.127-2.3-5.127-5.127s2.3-5.127 5.127-5.127 5.127 2.3 5.127 5.127-2.3 5.127-5.127 5.127z"/><path d="m129.113 95.794c-4.481 0-8.127 3.646-8.127 8.127s3.646 8.127 8.127 8.127 8.127-3.646 8.127-8.127-3.646-8.127-8.127-8.127zm0 13.255c-2.827 0-5.127-2.3-5.127-5.127s2.3-5.127 5.127-5.127 5.127 2.3 5.127 5.127-2.3 5.127-5.127 5.127z"/><path d="m182.484 103.889c0 2.427 1.975 4.401 4.401 4.401h35.417c2.427 0 4.401-1.975 4.401-4.401s-1.975-4.401-4.401-4.401h-35.417c-2.426-.001-4.401 1.974-4.401 4.401zm41.22 0c0 .773-.628 1.401-1.401 1.401h-35.417c-.773 0-1.401-.628-1.401-1.401s.628-1.401 1.401-1.401h35.417c.773-.001 1.401.628 1.401 1.401z"/><path d="m129.136 171.667c1.118-.644 2.122-1.489 3.003-2.532 1.693-2.005 2.552-4.644 2.552-7.843 0-2.586-.649-4.946-1.928-7.014-1.283-2.078-3.17-3.726-5.611-4.899-2.385-1.147-5.25-1.729-8.517-1.729-5.199 0-9.334 1.384-12.292 4.114-2.502 2.312-4.052 5.474-4.607 9.401-.135.96.155 1.934.796 2.672.654.753 1.602 1.186 2.598 1.186h6.596c1.573 0 2.967-1.087 3.314-2.585.189-.815.501-1.468.955-1.997.581-.678 1.341-.994 2.392-.994.958 0 1.674.251 2.191.768s.768 1.294.768 2.377c0 1.042-.264 1.808-.807 2.341-.825.81-2.441 1.226-4.693 1.178-1.886 0-3.42 1.534-3.42 3.42v4.769c0 1.886 1.534 3.421 3.483 3.421 6.304 0 6.304 2.725 6.304 3.889 0 1.047-.296 1.859-.902 2.481-.602.613-1.437.911-2.554.911-1.464 0-2.516-.382-3.213-1.167-.535-.603-.888-1.362-1.081-2.321-.326-1.63-1.682-2.768-3.297-2.768h-6.59c-.993 0-1.937.43-2.59 1.18-.646.74-.939 1.719-.807 2.684.6 4.364 2.323 7.769 5.123 10.119 3.214 2.7 7.571 4.069 12.952 4.069 3.314 0 6.216-.604 8.626-1.797 2.465-1.222 4.374-2.96 5.675-5.168 1.288-2.188 1.941-4.705 1.941-7.48.001-4.773-2.184-8.416-6.36-10.686zm1.835 16.645c-1.014 1.721-2.46 3.03-4.421 4.001-1.992.985-4.447 1.485-7.295 1.485-4.655 0-8.364-1.132-11.023-3.367-2.243-1.883-3.578-4.575-4.08-8.23-.019-.139.042-.242.096-.304.049-.057.158-.151.329-.151h6.59c.196 0 .32.179.356.358.296 1.474.895 2.727 1.779 3.724 1.282 1.443 3.118 2.174 5.456 2.174 1.938 0 3.518-.609 4.699-1.814 1.166-1.196 1.757-2.736 1.757-4.578 0-3.143-1.614-6.889-9.367-6.889-.232 0-.42-.189-.42-.421v-4.769c0-.232.188-.42.394-.42 3.142.054 5.37-.611 6.822-2.038 1.131-1.111 1.705-2.619 1.705-4.481 0-1.892-.554-3.406-1.646-4.499-1.092-1.092-2.543-1.646-4.312-1.646-1.938 0-3.508.687-4.669 2.04-.765.892-1.304 1.993-1.601 3.272-.034.147-.206.263-.392.263h-6.596c-.181 0-.293-.107-.333-.153-.051-.059-.108-.157-.09-.285.462-3.27 1.664-5.761 3.672-7.617 2.385-2.201 5.835-3.317 10.256-3.317 2.813 0 5.241.482 7.216 1.432 1.916.92 3.382 2.189 4.36 3.772.996 1.609 1.479 3.388 1.479 5.437 0 2.471-.621 4.458-1.844 5.907-1.255 1.485-2.773 2.395-4.641 2.782-.696.145-1.195.758-1.195 1.469v.31c0 .652.421 1.229 1.041 1.428 5.01 1.609 7.445 4.608 7.445 9.166-.001 2.234-.515 4.238-1.527 5.959z"/><path d="m157.41 158.862c-4.23 0-6.11 2.199-6.943 4.043-1.047 2.32-1.557 5.459-1.557 9.598 0 4.178.508 7.347 1.554 9.686.832 1.861 2.711 4.079 6.945 4.079 4.189 0 6.041-2.224 6.856-4.089 1.023-2.336 1.52-5.501 1.52-9.675 0-4.175-.499-7.323-1.524-9.625-.817-1.833-2.669-4.017-6.851-4.017zm4.108 22.114c-.43.984-1.324 2.292-4.107 2.292-2.848 0-3.765-1.314-4.207-2.303-.858-1.919-1.293-4.766-1.293-8.461 0-3.652.435-6.466 1.291-8.364.441-.978 1.357-2.277 4.208-2.277 2.79 0 3.683 1.278 4.112 2.239.839 1.882 1.264 4.709 1.264 8.402 0 3.699-.427 6.549-1.268 8.472z"/><path d="m157.41 148.828c-6.563 0-11.437 2.228-14.488 6.621-2.932 4.225-4.419 9.963-4.419 17.055 0 7.135 1.486 12.903 4.417 17.145 3.048 4.416 7.924 6.654 14.49 6.654 6.521 0 11.385-2.237 14.456-6.649 2.953-4.243 4.451-10.012 4.451-17.149 0-7.094-1.498-12.833-4.453-17.06-3.073-4.391-7.936-6.617-14.454-6.617zm11.994 39.111c-2.512 3.609-6.435 5.363-11.994 5.363-5.599 0-9.531-1.753-12.021-5.359-2.578-3.731-3.885-8.926-3.885-15.44 0-6.469 1.307-11.631 3.883-15.344 2.491-3.587 6.424-5.332 12.023-5.332 5.559 0 9.482 1.746 11.995 5.335 2.595 3.711 3.911 8.873 3.911 15.34 0 6.514-1.316 11.707-3.912 15.437z"/><path d="m193.771 149.572h-13.875c-1.886 0-3.42 1.534-3.42 3.42v6.069c0 1.886 1.534 3.421 3.42 3.421h2.725c.232 0 .42.188.42.42v30.042c0 1.886 1.534 3.421 3.42 3.421h7.31c1.886 0 3.42-1.535 3.42-3.421v-39.952c0-1.886-1.534-3.42-3.42-3.42zm.42 43.372c0 .232-.188.421-.42.421h-7.31c-.232 0-.42-.189-.42-.421v-30.042c0-1.886-1.534-3.42-3.42-3.42h-2.725c-.232 0-.42-.189-.42-.421v-6.069c0-.232.188-.42.42-.42h13.875c.232 0 .42.188.42.42z"/><path d="m27.7 234.727h-18.172c-.829 0-1.5.671-1.5 1.5s.671 1.5 1.5 1.5h18.172c.829 0 1.5-.671 1.5-1.5s-.671-1.5-1.5-1.5z"/><path d="m246.472 234.727h-18.172c-.829 0-1.5.671-1.5 1.5s.671 1.5 1.5 1.5h18.172c.829 0 1.5-.671 1.5-1.5s-.671-1.5-1.5-1.5z"/><path d="m213.789 234.727h-171.578c-.829 0-1.5.671-1.5 1.5s.671 1.5 1.5 1.5h171.577c.829 0 1.5-.671 1.5-1.5s-.671-1.5-1.499-1.5z"/><path d="m9.528 226.182h7.803c.829 0 1.5-.671 1.5-1.5s-.671-1.5-1.5-1.5h-7.803c-.829 0-1.5.671-1.5 1.5s.671 1.5 1.5 1.5z"/><path d="m237.169 224.682c0 .829.671 1.5 1.5 1.5h7.803c.829 0 1.5-.671 1.5-1.5s-.671-1.5-1.5-1.5h-7.803c-.829 0-1.5.671-1.5 1.5z"/></g></g></svg>