<svg width="18" height="18" viewBox="0 0 18 18" fill="none" xmlns="http://www.w3.org/2000/svg">
<path d="M14.9643 1L15.0598 0.768968L14.9643 0.75V1ZM15.0197 1.02293L15.1964 0.846084L15.1153 0.791902L15.0197 1.02293ZM16.9771 2.97867L17.2081 2.88315L17.1538 2.80182L16.9771 2.97867ZM17 3.03413H17.25L17.231 2.93861L17 3.03413ZM17 14.8859L17.231 14.9814L17.25 14.8859H17ZM16.9771 14.9413L17.1537 15.1182L17.2081 15.0369L16.9771 14.9413ZM14.9387 16.9771L15.035 17.2078L15.1153 17.154L14.9387 16.9771ZM14.8837 17V17.25L14.98 17.2307L14.8837 17ZM3.03573 17L2.94021 17.231L3.03573 17.25V17ZM2.98027 16.9771L2.80359 17.1539L2.88475 17.2081L2.98027 16.9771ZM1.02293 15.0219L0.791902 15.1174L0.846253 15.1987L1.02293 15.0219ZM1 14.9664H0.75L0.768968 15.0619L1 14.9664ZM1 3.11467L0.768969 3.01914L0.75 3.11467H1ZM1.02293 3.0592L0.846272 2.88231L0.791902 2.96368L1.02293 3.0592ZM3.06187 1.02293L2.96555 0.792231L2.88521 0.846041L3.06187 1.02293ZM3.1168 1V0.75L3.02049 0.769297L3.1168 1ZM13.52 15.1915L13.7217 15.0438L13.52 14.9415V15.1915ZM4.42027 15.1915V14.9415L4.21963 15.0423L4.42027 15.1915ZM3.192 16.8437L2.99136 16.6946L3.192 17.0937V16.8437ZM14.7296 16.8437V17.0937L14.9313 16.6961L14.7296 16.8437ZM2.97067 13.752H3.22067L2.8285 13.5464L2.97067 13.752ZM1.19947 14.9765L1.0573 14.7709L1.02272 15.1533L1.19947 14.9765ZM3.02667 16.8032L2.84992 16.98L3.22724 16.9524L3.02667 16.8032ZM4.2656 15.1381L4.46617 15.2874L4.4423 14.9613L4.2656 15.1381ZM2.9936 13.8672L2.76257 13.9627L2.8169 14.0441L2.9936 13.8672ZM2.97067 13.8117H2.72067L2.73964 13.9073L2.97067 13.8117ZM15.0293 13.6933L15.1699 13.4866L14.7793 13.6933H15.0293ZM15.0293 13.7584L15.2608 13.8528L15.2793 13.7584H15.0293ZM15.0069 13.8133L15.1836 13.9903L15.2384 13.9077L15.0069 13.8133ZM13.6768 15.1413L13.5002 14.9644L13.4751 15.289L13.6768 15.1413ZM14.8928 16.8021L14.6911 16.9498L15.0695 16.979L14.8928 16.8021ZM16.7995 14.8971L16.9762 15.0739L16.94 14.6903L16.7995 14.8971ZM12.1861 13.368L12.3879 13.2204L12.1861 13.118V13.368ZM5.776 13.368V13.118L5.57539 13.2188L5.776 13.368ZM4.53653 15.0347L4.33593 14.8855L4.53653 15.2847V15.0347ZM13.4059 15.0347V15.2847L13.6076 14.887L13.4059 15.0347ZM13.1867 12.44L13.3273 12.2333L13.0099 12.2632L13.1867 12.44ZM12.328 13.2981L12.1513 13.1213L12.1263 13.4458L12.328 13.2981ZM13.5835 15.0133L13.3817 15.161L13.7601 15.1903L13.5835 15.0133ZM14.8736 13.7253L15.0502 13.9023L15.1236 13.7253H14.8736ZM14.8736 13.5872H15.1236L15.0142 13.3805L14.8736 13.5872ZM4.81333 12.4779L4.99 12.301L4.67106 12.2723L4.81333 12.4779ZM3.1264 13.6453L2.98413 13.4398L2.8764 13.6453H3.1264ZM3.1264 13.7797H2.8764L2.94981 13.9567L3.1264 13.7797ZM4.36 15.0107L4.18341 15.1876L4.56055 15.1599L4.36 15.0107ZM5.63467 13.2981L5.83521 13.4474L5.81133 13.1212L5.63467 13.2981ZM1.15573 3.26187L1.29631 3.05513L0.905733 3.26187H1.15573ZM1.15573 14.8176H0.905733L1.29792 15.0232L1.15573 14.8176ZM2.97067 13.5627L3.11285 13.7683L3.22067 13.5627H2.97067ZM2.97067 4.496H3.22067L3.11124 4.28927L2.97067 4.496ZM16.8432 3.18293H17.0932L16.701 2.9773L16.8432 3.18293ZM15.0299 4.4368L14.8877 4.23117L14.7799 4.4368H15.0299ZM15.0299 13.5056H14.7799L14.8893 13.7124L15.0299 13.5056ZM16.8432 14.7381L16.7027 14.9449L17.0932 14.7381H16.8432ZM3.1264 4.6016L3.26693 4.39483L2.8764 4.6016H3.1264ZM3.1264 13.4549H2.8764L3.26854 13.6606L3.1264 13.4549ZM4.74453 12.3365L4.88668 12.5422L4.99453 12.3365H4.74453ZM4.74453 5.70133H4.99453L4.88506 5.49457L4.74453 5.70133ZM14.8736 4.54507H15.1236L14.7314 4.33944L14.8736 4.54507ZM13.2555 5.664L13.1133 5.45837L13.0055 5.664H13.2555ZM13.2555 12.2987H13.0055L13.1149 12.5054L13.2555 12.2987ZM14.8736 13.3989L14.733 13.6057L15.1236 13.3989H14.8736ZM12.2309 4.7872L12.4077 4.61037L12.2309 4.5372V4.7872ZM5.80693 4.7872V4.5372L5.63031 4.61027L5.80693 4.7872ZM4.90027 5.69227L4.72365 5.51533L4.65027 5.69227H4.90027ZM4.90027 12.3456H4.65027L4.72371 12.5226L4.90027 12.3456ZM5.7696 13.2128L5.59304 13.3898L5.7696 13.4628V13.2128ZM12.1931 13.2128V13.4628L12.3698 13.3896L12.1931 13.2128ZM13.0992 12.3072L13.2759 12.484L13.3492 12.3072H13.0992ZM13.0992 5.65493H13.3492L13.2759 5.4781L13.0992 5.65493ZM4.41653 2.98507L4.61827 2.83741L4.23979 2.80825L4.41653 2.98507ZM3.1264 4.27467L2.94966 4.09785L2.8764 4.27467H3.1264ZM3.1264 4.41333H2.8764L2.98595 4.62015L3.1264 4.41333ZM4.81333 5.55893L4.67288 5.76575L4.99011 5.73571L4.81333 5.55893ZM5.672 4.70027L5.84878 4.87704L5.87373 4.55261L5.672 4.70027ZM13.64 2.98827L13.8167 2.81141L13.4394 2.83903L13.64 2.98827ZM12.3653 4.70133L12.1648 4.55209L12.1887 4.87823L12.3653 4.70133ZM13.1867 5.5216L13.01 5.69849L13.3288 5.72723L13.1867 5.5216ZM14.8736 4.3552L15.0158 4.56083L15.1236 4.3552H14.8736ZM14.8736 4.2208H15.1236L15.0503 4.04395L14.8736 4.2208ZM13.4629 2.9648L13.6635 3.11403L13.4629 2.7148V2.9648ZM4.59467 2.9648V2.7148L4.39292 3.11245L4.59467 2.9648ZM5.8144 4.63147L5.61266 4.77911L5.8144 4.88147V4.63147ZM12.2229 4.63147V4.88147L12.4235 4.7807L12.2229 4.63147ZM3.10773 1.19733L3.30951 1.04973L2.93108 1.02043L3.10773 1.19733ZM1.19947 3.10293L1.02281 2.92603L1.05891 3.30968L1.19947 3.10293ZM2.97013 4.30667L2.82958 4.51342L3.22012 4.30875L2.97013 4.30667ZM2.97067 4.24267L2.73964 4.14714L2.72068 4.24058L2.97067 4.24267ZM2.9936 4.1872L2.81682 4.01042L2.76257 4.09168L2.9936 4.1872ZM4.32267 2.85813L4.49944 3.03491L4.52444 2.71053L4.32267 2.85813ZM14.9728 1.19733L15.1495 1.02045L14.7722 1.04807L14.9728 1.19733ZM13.7344 2.86133L13.5338 2.71207L13.5577 3.03815L13.7344 2.86133ZM15.0069 4.13333L15.238 4.03781L15.1837 3.95652L15.0069 4.13333ZM15.0299 4.1888H15.2799L15.2609 4.09328L15.0299 4.1888ZM15.0299 4.24747H14.7799L15.1721 4.45309L15.0299 4.24747ZM16.8005 3.02293L16.9427 3.22855L16.9772 2.84605L16.8005 3.02293ZM14.8085 1.15627L15.0091 1.30551L14.8085 0.906267V1.15627ZM3.2704 1.15627V0.906267L3.06872 1.304L3.2704 1.15627ZM4.48107 2.80907L4.27939 2.9568L4.48107 3.05907V2.80907ZM13.5787 2.80907V3.05907L13.7792 2.95831L13.5787 2.80907ZM14.8687 1.23103L14.9242 1.25396L15.1153 0.791902L15.0598 0.768968L14.8687 1.23103ZM14.843 1.19978L16.8004 3.15552L17.1538 2.80182L15.1964 0.846084L14.843 1.19978ZM16.746 3.07419L16.769 3.12965L17.231 2.93861L17.2081 2.88315L16.746 3.07419ZM16.75 3.03413V14.8859H17.25V3.03413H16.75ZM16.769 14.7903L16.746 14.8458L17.2081 15.0369L17.231 14.9814L16.769 14.7903ZM16.8004 14.7644L14.762 16.8002L15.1153 17.154L17.1537 15.1182L16.8004 14.7644ZM14.8424 16.7464L14.7874 16.7693L14.98 17.2307L15.035 17.2078L14.8424 16.7464ZM14.8837 16.75H3.03573V17.25H14.8837V16.75ZM3.13125 16.769L3.07579 16.746L2.88475 17.2081L2.94021 17.231L3.13125 16.769ZM3.15695 16.8002L1.19961 14.845L0.846253 15.1987L2.80359 17.1539L3.15695 16.8002ZM1.25396 14.9263L1.23103 14.8709L0.768968 15.0619L0.791902 15.1174L1.25396 14.9263ZM1.25 14.9664V3.11467H0.75V14.9664H1.25ZM1.23103 3.21019L1.25396 3.15472L0.791902 2.96368L0.768969 3.01914L1.23103 3.21019ZM1.19959 3.23609L3.23853 1.19983L2.88521 0.846041L0.846272 2.88231L1.19959 3.23609ZM3.15818 1.25364L3.21311 1.2307L3.02049 0.769297L2.96555 0.792231L3.15818 1.25364ZM3.1168 1.25H14.9643V0.75H3.1168V1.25ZM13.52 14.9415H4.42027V15.4415H13.52V14.9415ZM4.21963 15.0423L2.99136 16.6946L3.39264 16.9929L4.6209 15.3406L4.21963 15.0423ZM3.192 17.0937H14.7296V16.5937H3.192V17.0937ZM14.9313 16.6961L13.7217 15.0438L13.3183 15.3391L14.5279 16.9914L14.9313 16.6961ZM2.8285 13.5464L1.0573 14.7709L1.34164 15.1822L3.11284 13.9576L2.8285 13.5464ZM1.02272 15.1533L2.84992 16.98L3.20342 16.6264L1.37622 14.7997L1.02272 15.1533ZM3.22724 16.9524L4.46617 15.2874L4.06503 14.9889L2.8261 16.654L3.22724 16.9524ZM4.4423 14.9613L3.1703 13.6903L2.8169 14.0441L4.0889 15.315L4.4423 14.9613ZM3.22463 13.7717L3.2017 13.7162L2.73964 13.9073L2.76257 13.9627L3.22463 13.7717ZM3.22067 13.8117V13.7531H2.72067V13.8117H3.22067ZM3.22067 13.7531V13.752H2.72067V13.7531H3.22067ZM14.7793 13.6933V13.7584H15.2793V13.6933H14.7793ZM14.7978 13.664L14.7754 13.7189L15.2384 13.9077L15.2608 13.8528L14.7978 13.664ZM14.8303 13.6364L13.5002 14.9644L13.8534 15.3183L15.1836 13.9903L14.8303 13.6364ZM13.4751 15.289L14.6911 16.9498L15.0945 16.6544L13.8785 14.9936L13.4751 15.289ZM15.0695 16.979L16.9762 15.0739L16.6228 14.7202L14.7161 16.6253L15.0695 16.979ZM16.94 14.6903L15.1699 13.4866L14.8888 13.9001L16.6589 15.1038L16.94 14.6903ZM12.1861 13.118H5.776V13.618H12.1861V13.118ZM5.57539 13.2188L4.33593 14.8855L4.73714 15.1839L5.97661 13.5172L5.57539 13.2188ZM4.53653 15.2847H13.4059V14.7847H4.53653V15.2847ZM13.6076 14.887L12.3879 13.2204L11.9844 13.5156L13.2041 15.1823L13.6076 14.887ZM13.0099 12.2632L12.1513 13.1213L12.5047 13.475L13.3634 12.6168L13.0099 12.2632ZM12.1263 13.4458L13.3817 15.161L13.7852 14.8657L12.5297 13.1505L12.1263 13.4458ZM13.7601 15.1903L15.0502 13.9023L14.697 13.5484L13.4068 14.8364L13.7601 15.1903ZM15.1236 13.7253V13.5872H14.6236V13.7253H15.1236ZM15.0142 13.3805L13.3273 12.2333L13.0461 12.6467L14.733 13.7939L15.0142 13.3805ZM4.67106 12.2723L2.98413 13.4398L3.26867 13.8509L4.9556 12.6834L4.67106 12.2723ZM2.8764 13.6453V13.7797H3.3764V13.6453H2.8764ZM2.94981 13.9567L4.18341 15.1876L4.53659 14.8337L3.30299 13.6028L2.94981 13.9567ZM4.56055 15.1599L5.83521 13.4474L5.43412 13.1489L4.15945 14.8614L4.56055 15.1599ZM5.81133 13.1212L4.99 12.301L4.63667 12.6548L5.458 13.475L5.81133 13.1212ZM0.905733 3.26187V14.8176H1.40573V3.26187H0.905733ZM1.29792 15.0232L3.11285 13.7683L2.82848 13.357L1.01355 14.612L1.29792 15.0232ZM3.22067 13.5627V4.496H2.72067V13.5627H3.22067ZM3.11124 4.28927L1.29631 3.05513L1.01516 3.4686L2.83009 4.70273L3.11124 4.28927ZM16.701 2.9773L14.8877 4.23117L15.1721 4.64243L16.9854 3.38856L16.701 2.9773ZM14.7799 4.4368V13.5056H15.2799V4.4368H14.7799ZM14.8893 13.7124L16.7027 14.9449L16.9837 14.5314L15.1704 13.2988L14.8893 13.7124ZM17.0932 14.7381V3.18293H16.5932V14.7381H17.0932ZM2.8764 4.6016V13.4549H3.3764V4.6016H2.8764ZM3.26854 13.6606L4.88668 12.5422L4.60239 12.1309L2.98426 13.2493L3.26854 13.6606ZM4.99453 12.3365V5.70133H4.49453V12.3365H4.99453ZM4.88506 5.49457L3.26693 4.39483L2.98587 4.80837L4.60401 5.9081L4.88506 5.49457ZM14.7314 4.33944L13.1133 5.45837L13.3977 5.86963L15.0158 4.75069L14.7314 4.33944ZM13.0055 5.664V12.2987H13.5055V5.664H13.0055ZM13.1149 12.5054L14.733 13.6057L15.0142 13.1922L13.396 12.0919L13.1149 12.5054ZM15.1236 13.3989V4.54507H14.6236V13.3989H15.1236ZM12.2309 4.5372H5.80693V5.0372H12.2309V4.5372ZM5.63031 4.61027L4.72365 5.51533L5.07689 5.8692L5.98355 4.96413L5.63031 4.61027ZM4.65027 5.69227V12.3456H5.15027V5.69227H4.65027ZM4.72371 12.5226L5.59304 13.3898L5.94616 13.0358L5.07683 12.1686L4.72371 12.5226ZM5.7696 13.4628H12.1931V12.9628H5.7696V13.4628ZM12.3698 13.3896L13.2759 12.484L12.9225 12.1304L12.0163 13.036L12.3698 13.3896ZM13.3492 12.3072V5.65493H12.8492V12.3072H13.3492ZM13.2759 5.4781L12.4077 4.61037L12.0542 4.96403L12.9225 5.83176L13.2759 5.4781ZM4.23979 2.80825L2.94966 4.09785L3.30314 4.45148L4.59327 3.16188L4.23979 2.80825ZM2.8764 4.27467V4.41333H3.3764V4.27467H2.8764ZM2.98595 4.62015L4.67288 5.76575L4.95378 5.35212L3.26685 4.20652L2.98595 4.62015ZM4.99011 5.73571L5.84878 4.87704L5.49522 4.52349L4.63656 5.38216L4.99011 5.73571ZM5.87373 4.55261L4.61827 2.83741L4.2148 3.13273L5.47027 4.84793L5.87373 4.55261ZM13.4394 2.83903L12.1648 4.55209L12.5659 4.85057L13.8406 3.13751L13.4394 2.83903ZM12.1887 4.87823L13.01 5.69849L13.3633 5.34471L12.542 4.52444L12.1887 4.87823ZM13.3288 5.72723L15.0158 4.56083L14.7314 4.14957L13.0445 5.31597L13.3288 5.72723ZM15.1236 4.3552V4.2208H14.6236V4.3552H15.1236ZM15.0503 4.04395L13.8167 2.81141L13.4633 3.16512L14.6969 4.39765L15.0503 4.04395ZM13.4629 2.7148H4.59467V3.2148H13.4629V2.7148ZM4.39292 3.11245L5.61266 4.77911L6.01615 4.48382L4.79641 2.81716L4.39292 3.11245ZM5.8144 4.88147H12.2229V4.38147H5.8144V4.88147ZM12.4235 4.7807L13.6635 3.11403L13.2624 2.81557L12.0224 4.48224L12.4235 4.7807ZM2.93108 1.02043L1.02281 2.92603L1.37612 3.27983L3.28439 1.37423L2.93108 1.02043ZM1.05891 3.30968L2.82958 4.51342L3.11069 4.09992L1.34002 2.89618L1.05891 3.30968ZM3.22012 4.30875L3.22066 4.24475L2.72068 4.24058L2.72014 4.30458L3.22012 4.30875ZM3.2017 4.33819L3.22463 4.28272L2.76257 4.09168L2.73964 4.14714L3.2017 4.33819ZM3.17038 4.36398L4.49944 3.03491L4.14589 2.68136L2.81682 4.01042L3.17038 4.36398ZM4.52444 2.71053L3.30951 1.04973L2.90596 1.34494L4.12089 3.00574L4.52444 2.71053ZM14.7722 1.04807L13.5338 2.71207L13.935 3.01059L15.1734 1.34659L14.7722 1.04807ZM13.5577 3.03815L14.8302 4.31015L15.1837 3.95652L13.9111 2.68452L13.5577 3.03815ZM14.7759 4.22886L14.7988 4.28432L15.2609 4.09328L15.238 4.03781L14.7759 4.22886ZM14.7799 4.1888V4.24747H15.2799V4.1888H14.7799ZM15.1721 4.45309L16.9427 3.22855L16.6583 2.81731L14.8877 4.04185L15.1721 4.45309ZM16.9772 2.84605L15.1495 1.02045L14.7961 1.37421L16.6239 3.19981L16.9772 2.84605ZM14.8085 0.906267H3.2704V1.40627H14.8085V0.906267ZM3.06872 1.304L4.27939 2.9568L4.68275 2.66134L3.47208 1.00854L3.06872 1.304ZM4.48107 3.05907H13.5787V2.55907H4.48107V3.05907ZM13.7792 2.95831L15.0091 1.30551L14.608 1.00702L13.3781 2.65982L13.7792 2.95831Z" fill="#151542"/>
</svg>