<svg width="44" height="20" viewBox="0 0 44 20" fill="none" xmlns="http://www.w3.org/2000/svg">
<path d="M6.33333 11.8349H2.08C1.94406 11.8421 1.80805 11.8221 1.67989 11.7762C1.55173 11.7303 1.43397 11.6594 1.33347 11.5676C1.23297 11.4758 1.15173 11.3649 1.09448 11.2414C1.03723 11.1179 1.00511 10.9843 1 10.8482V9.03488C1.01043 8.76491 1.12686 8.50993 1.32404 8.32523C1.52122 8.14053 1.78326 8.041 2.05333 8.04822H6.33333V11.8416V11.8349Z" stroke="#151542" stroke-width="0.5" stroke-linecap="round" stroke-linejoin="round"/>
<path d="M34.3333 11.8349H38.5933C38.7287 11.8411 38.864 11.8205 38.9914 11.7742C39.1188 11.7279 39.2358 11.6569 39.3356 11.5651C39.4353 11.4734 39.516 11.3628 39.5728 11.2398C39.6296 11.1167 39.6615 10.9837 39.6667 10.8482V9.03488C39.6562 8.76491 39.5398 8.50993 39.3426 8.32523C39.1455 8.14053 38.8834 8.041 38.6133 8.04822H34.3333V11.8416V11.8349Z" stroke="#151542" stroke-width="0.5" stroke-linecap="round" stroke-linejoin="round"/>
<path d="M8.71339 12.6715C8.1762 12.4472 7.71737 12.0691 7.39466 11.5847C7.07196 11.1002 6.89982 10.5312 6.8999 9.94914C6.89999 9.3671 7.0723 8.79809 7.39514 8.31376C7.71798 7.82943 8.17693 7.45143 8.71418 7.22735C9.25144 7.00327 9.84299 6.94313 10.4144 7.0545C10.9857 7.16587 11.5114 7.44377 11.9251 7.85321C12.3389 8.26266 12.6222 8.78534 12.7394 9.35545C12.8567 9.92556 12.8026 10.5176 12.5841 11.0571C12.4379 11.4187 12.2214 11.7478 11.9471 12.0252C11.6728 12.3025 11.3461 12.5227 10.9861 12.6729C10.626 12.823 10.2397 12.9002 9.84959 12.9C9.45946 12.8998 9.07326 12.8221 8.71339 12.6715Z" fill="#151542" stroke="#151542"/>
<path fill-rule="evenodd" clip-rule="evenodd" d="M10.9949 8.53256L10.0227 8.13511L10.0326 7.00326L9.66394 7L9.65401 8.13552L8.69056 8.54106L7.88383 7.74056L7.62478 8.00405L8.43117 8.80421L8.03566 9.77304L6.90232 9.76556L6.8999 10.1359L8.03636 10.1434L8.44057 11.1051L7.62642 11.8932L7.8822 12.1599L8.70111 11.3672L9.67027 11.7633L9.65295 12.8943L10.0215 12.9L10.0389 11.7636L11.0079 11.3567L11.8313 12.1415L12.0851 11.8728L11.2659 11.0921L11.6599 10.1214L12.7999 10.0889L12.7894 9.7187L11.6554 9.75104L11.2541 8.79625L12.0827 8.03071L11.8331 7.75811L10.9949 8.53256ZM9.83819 8.45954L8.79024 8.90065L8.35858 9.958L8.79978 11.0077L9.85547 11.4392L10.9059 10.9981L11.3351 9.94092L10.8938 8.89106L9.83819 8.45954Z" fill="white"/>
<path d="M29.6133 12.6715C29.0761 12.4472 28.6173 12.0691 28.2946 11.5847C27.9719 11.1002 27.7997 10.5312 27.7998 9.94914C27.7999 9.3671 27.9722 8.79809 28.295 8.31376C28.6179 7.82943 29.0768 7.45143 29.6141 7.22735C30.1513 7.00327 30.7429 6.94313 31.3143 7.0545C31.8856 7.16587 32.4113 7.44377 32.825 7.85321C33.2388 8.26266 33.5221 8.78534 33.6393 9.35545C33.7566 9.92556 33.7025 10.5176 33.484 11.0571C33.3378 11.4187 33.1213 11.7478 32.847 12.0252C32.5727 12.3025 32.246 12.5227 31.886 12.6729C31.5259 12.823 31.1396 12.9002 30.7495 12.9C30.3594 12.8998 29.9732 12.8221 29.6133 12.6715Z" fill="#151542" stroke="#151542"/>
<path fill-rule="evenodd" clip-rule="evenodd" d="M31.8948 8.53256L30.9226 8.13511L30.9325 7.00326L30.5638 7L30.5539 8.13552L29.5905 8.54106L28.7837 7.74056L28.5247 8.00405L29.3311 8.80421L28.9356 9.77304L27.8022 9.76556L27.7998 10.1359L28.9363 10.1434L29.3405 11.1051L28.5263 11.8932L28.7821 12.1599L29.601 11.3672L30.5702 11.7633L30.5529 12.8943L30.9214 12.9L30.9389 11.7636L31.9078 11.3567L32.7312 12.1415L32.985 11.8728L32.1658 11.0921L32.5598 10.1214L33.6998 10.0889L33.6893 9.7187L32.5553 9.75104L32.154 8.79625L32.9826 8.03071L32.733 7.75811L31.8948 8.53256ZM30.7381 8.45954L29.6901 8.90065L29.2585 9.958L29.6997 11.0077L30.7554 11.4392L31.8058 10.9981L32.235 9.94092L31.7937 8.89106L30.7381 8.45954Z" fill="white"/>
<path d="M24.3464 10.0867L23.1331 7.21333M24.3464 10.0867L23.1664 12.98M24.3464 10.0867H27.4267M23.1331 7.21333L20.2331 6.03333M23.1331 7.21333L25.3731 5.15333M20.2331 6.03333L17.3531 7.24M20.2331 6.03333L20.2597 3M17.3531 7.24L16.1664 10.1333M17.3531 7.24L15.1864 5.1M16.1664 10.1333L17.3797 13.0067M16.1664 10.1333L13.2002 10.1281M17.3797 13.0067L20.2797 14.1867M17.3797 13.0067L15.1864 15.12M20.2797 14.1867L23.1664 12.98M20.2797 14.1867L20.2331 17.22M23.1664 12.98L25.3731 15.0733M13.2002 10.1281C13.2 11.5317 13.6151 12.9041 14.3932 14.0724C15.1713 15.2406 16.2777 16.1526 17.5731 16.6933C18.4408 17.0566 19.3721 17.2439 20.3128 17.2445C21.2535 17.2451 22.185 17.0589 23.0532 16.6967C23.9214 16.3346 24.7091 15.8036 25.3705 15.1347C26.0319 14.4658 26.554 13.6722 26.9064 12.8C27.4334 11.499 27.5638 10.0712 27.2811 8.69628C26.9983 7.32137 26.3151 6.06085 25.3175 5.07341C24.3198 4.08597 23.0524 3.41577 21.6746 3.14719C20.2969 2.8786 18.8705 3.02364 17.575 3.56405C16.2795 4.10445 15.1728 5.01606 14.3944 6.18409C13.6159 7.35213 13.2004 8.72437 13.2002 10.1281Z" stroke="#151542" stroke-width="0.5"/>
</svg>