<svg width="18" height="18" viewBox="0 0 18 18" fill="none" xmlns="http://www.w3.org/2000/svg">
<path d="M9.19733 1L9.19818 0.75H9.19733V1ZM12.1013 1.2864L12.0553 1.53212L12.0554 1.53215L12.1013 1.2864ZM12.1013 16.7141L12.1472 16.9599L12.1473 16.9599L12.1013 16.7141ZM8.80267 17L8.80182 17.25H8.80267V17ZM5.89867 16.7141L5.9446 16.4684L5.9446 16.4684L5.89867 16.7141ZM5.89867 1.2864L5.85307 1.04059L5.85277 1.04065L5.89867 1.2864ZM9.00267 1V0.75L9.00252 0.75L9.00267 1ZM6.73013 14.5787L6.91296 14.4082L6.69672 14.3309L6.73013 14.5787ZM2.70773 15.1211L2.67432 14.8733L2.53816 15.3048L2.70773 15.1211ZM5.4704 16.4731L5.41321 16.7165L5.41604 16.7171L5.4704 16.4731ZM5.69547 16.5232L5.64111 16.7672L5.64379 16.7678L5.69547 16.5232ZM5.92587 16.5691L5.97184 16.3233L5.97133 16.3232L5.92587 16.5691ZM8.8032 16.8523L8.80249 17.1023H8.8032V16.8523ZM8.85067 16.8523V17.1023L9.03349 16.6818L8.85067 16.8523ZM11.2917 14.5691L11.3232 14.3211L11.1086 14.3989L11.2917 14.5691ZM9.17227 16.8512L8.98908 16.6811L9.17227 17.1012V16.8512ZM9.2016 16.8512V17.1012L9.20469 17.1012L9.2016 16.8512ZM11.8437 16.6107L11.8858 16.8571L11.8882 16.8567L11.8437 16.6107ZM12.0741 16.5691L12.1186 16.8151L12.1196 16.8149L12.0741 16.5691ZM12.3045 16.5232L12.3562 16.7678L12.3589 16.7672L12.3045 16.5232ZM12.5296 16.4731L12.584 16.7171L12.5868 16.7164L12.5296 16.4731ZM15.3339 15.0821L15.5058 15.2636L15.3653 14.8341L15.3339 15.0821ZM9.01067 12.3163L9.1901 12.1422L8.83085 12.1426L9.01067 12.3163ZM6.88 14.5221L6.70018 14.3484L6.69717 14.6926L6.88 14.5221ZM9.0112 16.8075L8.82837 16.978L9.19439 16.9776L9.0112 16.8075ZM11.1419 14.5131L11.3251 14.6832L11.3213 14.339L11.1419 14.5131ZM3.61333 11.3925L3.70396 11.1595L3.37124 11.3302L3.61333 11.3925ZM2.69067 14.9744L2.44857 14.912L2.72408 15.2222L2.69067 14.9744ZM6.64587 14.4411L6.67928 14.6888L6.87782 14.3478L6.64587 14.4411ZM5.7552 12.2256L5.98716 12.1323L5.84582 11.9926L5.7552 12.2256ZM1.14827 9.09813L1.31985 8.91631L0.898267 9.09813H1.14827ZM2.54133 14.9589L2.36235 15.1335L2.78344 15.0213L2.54133 14.9589ZM3.4736 11.3381L3.7157 11.4005L3.56362 11.1049L3.4736 11.3381ZM3.4128 11.3147L3.16791 11.365L3.32278 11.5479L3.4128 11.3147ZM3.39253 11.216L3.63742 11.1657L3.56412 11.0342L3.39253 11.216ZM16.8517 9.06613H17.1017L16.6794 8.88498L16.8517 9.06613ZM14.6171 11.1915L14.4448 11.0103L14.3717 11.1437L14.6171 11.1915ZM14.5973 11.2928L14.6888 11.5255L14.8427 11.3406L14.5973 11.2928ZM14.5349 11.3173L14.4435 11.0847L14.2928 11.3796L14.5349 11.3173ZM15.4683 14.9493L15.2261 15.0116L15.6478 15.1233L15.4683 14.9493ZM16.8507 10.9877L17.1006 10.9909L17.1007 10.9898L16.8507 10.9877ZM16.8517 10.8587L17.1017 10.8607V10.8587H16.8517ZM14.3957 11.3723L14.6379 11.3101L14.3036 11.1399L14.3957 11.3723ZM12.2443 12.2256L12.1521 11.9932L12.0117 12.1339L12.2443 12.2256ZM11.3749 14.4309L11.1424 14.3393L11.3435 14.6789L11.3749 14.4309ZM15.3093 14.9301L15.2779 15.1781L15.5515 14.868L15.3093 14.9301ZM8.8848 12.2336L9.0646 12.4073L8.8848 11.9836V12.2336ZM5.9184 12.2336V11.9836L5.68643 12.3268L5.9184 12.2336ZM6.78987 14.4021L6.5579 14.4954L6.96967 14.5758L6.78987 14.4021ZM12.0816 12.2336L12.3142 12.3253L12.0816 11.9836V12.2336ZM9.1376 12.2336V11.9836L8.95814 12.4077L9.1376 12.2336ZM11.2309 14.392L11.0515 14.5661L11.4635 14.4837L11.2309 14.392ZM12.1072 5.9136H12.3572L12.1072 5.6636V5.9136ZM5.89227 5.9136V5.6636L5.64227 5.9136H5.89227ZM5.89227 12.0864H5.64227L5.89227 12.3364V12.0864ZM12.1072 12.0864V12.3364L12.3572 12.0864H12.1072ZM5.744 9.14133H5.994L5.57116 8.9607L5.744 9.14133ZM3.59253 11.2L3.4197 11.0194L3.41964 11.3806L3.59253 11.2ZM3.6176 11.224L3.85677 11.1512L3.7905 11.0434L3.6176 11.224ZM3.62133 11.2363L3.38216 11.3091L3.53061 11.4692L3.62133 11.2363ZM5.744 12.0629L5.65328 12.2959L5.994 12.0629H5.744ZM12.2555 9.11947L12.428 8.93852L12.0055 9.11947H12.2555ZM12.2555 12.0619H12.0055L12.3476 12.2943L12.2555 12.0619ZM14.3872 11.2165L14.4794 11.4489L14.6292 11.2793L14.3872 11.2165ZM14.3909 11.2021L14.2181 11.0215L14.1489 11.1394L14.3909 11.2021ZM14.4155 11.1787L14.5883 11.3593L14.588 10.9977L14.4155 11.1787ZM3.45707 6.90933L3.62957 6.72839L3.28479 6.72817L3.45707 6.90933ZM1.25973 8.99893L1.08745 8.81777L1.08815 9.18076L1.25973 8.99893ZM3.48533 11.0992L3.31375 11.281L3.65822 11.2798L3.48533 11.0992ZM5.664 9.01333L5.83689 9.19391L5.83651 8.83239L5.664 9.01333ZM14.5344 6.8864L14.706 6.70457L14.3615 6.70579L14.5344 6.8864ZM12.3355 8.99093L12.1626 8.81032L12.1629 9.17185L12.3355 8.99093ZM14.5221 11.0763L14.3496 11.2572L14.6944 11.2574L14.5221 11.0763ZM16.7397 8.96747L16.912 9.14863L16.9113 8.78564L16.7397 8.96747ZM2.52907 3.05387L2.77102 2.99096L2.34938 2.88005L2.52907 3.05387ZM1.14773 8.90133H0.897733L1.32004 9.08247L1.14773 8.90133ZM3.39147 6.76693L3.56378 6.94807L3.63661 6.81596L3.39147 6.76693ZM3.40213 6.7136L3.30809 6.48196L3.15699 6.66457L3.40213 6.7136ZM3.47307 6.6848L3.56711 6.91644L3.71502 6.62189L3.47307 6.6848ZM5.744 5.9424H5.994L5.65184 5.71001L5.744 5.9424ZM3.56533 6.8064L3.47317 6.57401L3.34173 6.6946L3.56533 6.8064ZM3.5648 6.80747L3.34119 6.69566L3.39228 6.9884L3.5648 6.80747ZM5.744 8.88533L5.57148 9.06627L5.994 8.88533H5.744ZM15.3739 2.95573L15.548 2.77639L15.1303 2.89932L15.3739 2.95573ZM14.5152 6.66293L14.2716 6.60652L14.4244 6.89587L14.5152 6.66293ZM14.5877 6.6912L14.8326 6.64071L14.6785 6.45826L14.5877 6.6912ZM14.5984 6.74293L14.3536 6.79342L14.4268 6.92476L14.5984 6.74293ZM16.8517 8.86933L16.6802 9.05116L17.1017 8.86933H16.8517ZM12.2555 5.9424L12.346 5.70938L12.0055 5.9424H12.2555ZM12.2555 8.86347H12.0055L12.4283 9.04408L12.2555 8.86347ZM14.4261 6.78613L14.599 6.96675L14.5167 6.55312L14.4261 6.78613ZM2.69013 3.08427L2.71875 2.83591L2.4482 3.14724L2.69013 3.08427ZM3.6128 6.6288L3.37086 6.69178L3.70496 6.86119L3.6128 6.6288ZM5.7552 5.7792L5.84736 6.01159L5.98777 5.8709L5.7552 5.7792ZM6.6384 3.5392L6.87097 3.6309L6.66702 3.29084L6.6384 3.5392ZM15.2219 2.9536L15.4654 3.01001L15.1853 2.70628L15.2219 2.9536ZM11.3392 3.52693L11.3027 3.27962L11.1072 3.6202L11.3392 3.52693ZM12.2448 5.7792L12.0128 5.87246L12.1542 6.01219L12.2448 5.7792ZM14.3755 6.608L14.2848 6.84099L14.619 6.66441L14.3755 6.608ZM6.76853 3.61333L6.948 3.43929L6.53592 3.52172L6.76853 3.61333ZM5.92053 5.7664L5.68792 5.67479L5.92053 6.0164V5.7664ZM8.85653 5.7664V6.0164L9.036 5.59236L8.85653 5.7664ZM11.2096 3.60373L11.4415 3.51044L11.0298 3.43004L11.2096 3.60373ZM9.12053 5.7664L8.94072 5.59271L9.12053 6.0164V5.7664ZM12.0795 5.7664V6.0164L12.3114 5.67311L12.0795 5.7664ZM8.99467 1.19147L9.17649 1.36305L8.9156 0.954298L8.99467 1.19147ZM6.84 3.47467L6.65818 3.30308L6.66052 3.6487L6.84 3.47467ZM8.98827 5.69013L8.80879 5.86417L9.16808 5.86382L8.98827 5.69013ZM11.1371 3.4656L11.3169 3.63929L11.319 3.29408L11.1371 3.4656ZM8.99307 1.192L8.914 0.954832L8.81118 1.36352L8.99307 1.192ZM8.832 1.1488L9.01381 1.3204L8.82934 0.898814L8.832 1.1488ZM5.9264 1.43147L5.88083 1.18565L5.88054 1.18571L5.9264 1.43147ZM2.65173 2.93173L2.47897 2.75103L2.62313 3.18009L2.65173 2.93173ZM6.70827 3.39893L6.67966 3.64729L6.89008 3.57053L6.70827 3.39893ZM9.19733 1.14773L9.19804 0.897733H9.19733V1.14773ZM9.15627 1.14773V0.897733L8.97439 1.31926L9.15627 1.14773ZM11.2699 3.3888L11.088 3.56033L11.3064 3.63612L11.2699 3.3888ZM15.2123 2.8064L15.2488 3.05372L15.3774 2.6187L15.2123 2.8064ZM12.0747 1.43093L12.0287 1.67667L12.0288 1.67668L12.0747 1.43093ZM9.19649 1.25C10.1316 1.25315 10.9031 1.31622 12.0553 1.53212L12.1474 1.04068C10.9657 0.819248 10.1639 0.753253 9.19818 0.750001L9.19649 1.25ZM12.0554 1.53215C13.6296 1.82611 14.7945 2.40973 15.5679 3.31107C16.3404 4.21121 16.75 5.46035 16.75 7.14133H17.25C17.25 5.37965 16.8196 4.00186 15.9474 2.98546C15.0762 1.97027 13.7918 1.34776 12.1472 1.04065L12.0554 1.53215ZM16.75 7.14133V10.8587H17.25V7.14133H16.75ZM16.75 10.8587C16.75 12.5396 16.3404 13.7887 15.5679 14.6888C14.7944 15.5902 13.6295 16.1739 12.0554 16.4684L12.1473 16.9599C13.7918 16.6522 15.0762 16.0296 15.9474 15.0144C16.8196 13.998 17.25 12.6204 17.25 10.8587H16.75ZM12.0554 16.4684C10.9871 16.668 9.93851 16.75 8.99733 16.75V17.25C9.96656 17.25 11.046 17.1656 12.1472 16.9599L12.0554 16.4684ZM8.99733 16.75H8.80267V17.25H8.99733V16.75ZM8.80351 16.75C7.86949 16.7469 7.09685 16.6838 5.9446 16.4684L5.85273 16.9599C7.03436 17.1808 7.83718 17.2467 8.80182 17.25L8.80351 16.75ZM5.9446 16.4684C4.37047 16.1742 3.20556 15.5904 2.43206 14.6889C1.65961 13.7887 1.25 12.5394 1.25 10.8581H0.75C0.75 12.6201 1.18039 13.998 2.0526 15.0145C2.92377 16.0298 4.20819 16.6525 5.85274 16.9599L5.9446 16.4684ZM1.25 10.8581V7.1408H0.75V10.8581H1.25ZM1.25 7.1408C1.25 5.46009 1.6596 4.21108 2.43205 3.31101C3.20554 2.40973 4.37044 1.82611 5.94456 1.53215L5.85277 1.04065C4.20822 1.34776 2.9238 1.97027 2.05262 2.98539C1.1804 4.00172 0.75 5.37937 0.75 7.1408H1.25ZM5.94426 1.53221C6.95304 1.34508 7.97683 1.25061 9.00282 1.25L9.00252 0.75C7.94604 0.750633 6.89183 0.847903 5.85307 1.04059L5.94426 1.53221ZM9.00267 1.25H9.19733V0.75H9.00267V1.25ZM6.69672 14.3309L2.67432 14.8733L2.74114 15.3688L6.76354 14.8264L6.69672 14.3309ZM2.53816 15.3048C3.27146 15.9817 4.23762 16.4402 5.41321 16.7164L5.52759 16.2297C4.41092 15.9673 3.53068 15.5405 2.8773 14.9374L2.53816 15.3048ZM5.41604 16.7171L5.64111 16.7672L5.74982 16.2792L5.52476 16.229L5.41604 16.7171ZM5.64379 16.7678C5.72106 16.7841 5.79999 16.8 5.8804 16.8149L5.97133 16.3232C5.89601 16.3093 5.82134 16.2943 5.74714 16.2786L5.64379 16.7678ZM5.87989 16.8148C7.05189 17.0341 7.84571 17.0996 8.80249 17.1023L8.80391 16.6023C7.87802 16.5996 7.11451 16.5371 5.97184 16.3233L5.87989 16.8148ZM8.8032 17.1023H8.85067V16.6023H8.8032V17.1023ZM9.03349 16.6818L6.91296 14.4082L6.54731 14.7492L8.66784 17.0228L9.03349 16.6818ZM11.1086 14.3989L8.98908 16.6811L9.35545 17.0213L11.4749 14.7392L11.1086 14.3989ZM9.17227 17.1012H9.2016V16.6012H9.17227V17.1012ZM9.20469 17.1012C10.1034 17.0901 10.9999 17.0085 11.8858 16.8571L11.8016 16.3642C10.9415 16.5112 10.0711 16.5904 9.19851 16.6012L9.20469 17.1012ZM11.8882 16.8567L12.1186 16.8151L12.0297 16.323L11.7993 16.3646L11.8882 16.8567ZM12.1196 16.8149C12.2 16.8 12.2789 16.7841 12.3562 16.7678L12.2529 16.2786C12.1787 16.2943 12.104 16.3093 12.0287 16.3232L12.1196 16.8149ZM12.3589 16.7672L12.584 16.7171L12.4752 16.229L12.2502 16.2792L12.3589 16.7672ZM12.5868 16.7164C13.7859 16.4347 14.7665 15.9639 15.5058 15.2636L15.1619 14.9006C14.5039 15.5241 13.6115 15.9621 12.4724 16.2297L12.5868 16.7164ZM15.3653 14.8341L11.3232 14.3211L11.2603 14.8171L15.3024 15.3301L15.3653 14.8341ZM8.83085 12.1426L6.70018 14.3484L7.05981 14.6958L9.19048 12.49L8.83085 12.1426ZM6.69717 14.6926L8.82837 16.978L9.19403 16.637L7.06283 14.3516L6.69717 14.6926ZM9.19439 16.9776L11.3251 14.6832L10.9587 14.3429L8.82801 16.6373L9.19439 16.9776ZM11.3213 14.339L9.1901 12.1422L8.83123 12.4903L10.9624 14.6871L11.3213 14.339ZM3.37124 11.3302L2.44857 14.912L2.93276 15.0368L3.85543 11.4549L3.37124 11.3302ZM2.72408 15.2222L6.67928 14.6888L6.61246 14.1933L2.65726 14.7266L2.72408 15.2222ZM6.87782 14.3478L5.98716 12.1323L5.52324 12.3189L6.41391 14.5343L6.87782 14.3478ZM5.84582 11.9926L3.70396 11.1595L3.52271 11.6255L5.66458 12.4586L5.84582 11.9926ZM0.898267 9.09813V10.8581H1.39827V9.09813H0.898267ZM0.898267 10.8581C0.898267 12.7116 1.37981 14.126 2.36235 15.1335L2.72031 14.7844C1.85539 13.8975 1.39827 12.6249 1.39827 10.8581H0.898267ZM2.78344 15.0213L3.7157 11.4005L3.2315 11.2758L2.29923 14.8966L2.78344 15.0213ZM3.56362 11.1049L3.50282 11.0814L3.32278 11.5479L3.38358 11.5714L3.56362 11.1049ZM3.65769 11.2644L3.63742 11.1657L3.14765 11.2663L3.16791 11.365L3.65769 11.2644ZM3.56412 11.0342L1.31985 8.91631L0.976684 9.27996L3.22095 11.3978L3.56412 11.0342ZM16.6794 8.88498L14.4448 11.0103L14.7894 11.3726L17.024 9.24729L16.6794 8.88498ZM14.3717 11.1437L14.3519 11.245L14.8427 11.3406L14.8625 11.2393L14.3717 11.1437ZM14.5059 11.0601L14.4435 11.0847L14.6264 11.55L14.6888 11.5255L14.5059 11.0601ZM14.2928 11.3796L15.2261 15.0116L15.7104 14.8871L14.7771 11.2551L14.2928 11.3796ZM15.6478 15.1233C16.5996 14.1409 17.0782 12.773 17.1006 10.9909L16.6007 10.9846C16.5794 12.6798 16.1268 13.9103 15.2887 14.7754L15.6478 15.1233ZM17.1007 10.9898L17.1017 10.8607L16.6017 10.8566L16.6007 10.9857L17.1007 10.9898ZM17.1017 10.8587V9.06613H16.6017V10.8587H17.1017ZM14.3036 11.1399L12.1521 11.9932L12.3364 12.458L14.4879 11.6047L14.3036 11.1399ZM12.0117 12.1339L11.1424 14.3393L11.6075 14.5226L12.4768 12.3173L12.0117 12.1339ZM11.3435 14.6789L15.2779 15.1781L15.3408 14.6821L11.4064 14.1829L11.3435 14.6789ZM15.5515 14.868L14.6379 11.3101L14.1536 11.4344L15.0672 14.9923L15.5515 14.868ZM8.8848 11.9836H5.9184V12.4836H8.8848V11.9836ZM5.68643 12.3268L6.5579 14.4954L7.02184 14.3089L6.15037 12.1404L5.68643 12.3268ZM6.96967 14.5758L9.0646 12.4073L8.705 12.0599L6.61006 14.2284L6.96967 14.5758ZM12.0816 11.9836H9.1376V12.4836H12.0816V11.9836ZM8.95814 12.4077L11.0515 14.5661L11.4104 14.218L9.31706 12.0595L8.95814 12.4077ZM11.4635 14.4837L12.3142 12.3253L11.849 12.1419L10.9983 14.3003L11.4635 14.4837ZM12.1072 5.6636H5.89227V6.1636H12.1072V5.6636ZM5.64227 5.9136V12.0864H6.14227V5.9136H5.64227ZM5.89227 12.3364H12.1072V11.8364H5.89227V12.3364ZM12.3572 12.0864V5.9136H11.8572V12.0864H12.3572ZM5.57116 8.9607L3.4197 11.0194L3.76537 11.3806L5.91684 9.32196L5.57116 8.9607ZM3.41964 11.3806L3.4447 11.4046L3.7905 11.0434L3.76543 11.0194L3.41964 11.3806ZM3.37843 11.2968L3.38216 11.3091L3.8605 11.1635L3.85677 11.1512L3.37843 11.2968ZM3.53061 11.4692L5.65328 12.2959L5.83472 11.83L3.71206 11.0033L3.53061 11.4692ZM5.994 12.0629V9.14133H5.494V12.0629H5.994ZM12.0055 9.11947V12.0619H12.5055V9.11947H12.0055ZM12.3476 12.2943L14.4794 11.4489L14.295 10.9841L12.1633 11.8295L12.3476 12.2943ZM14.6292 11.2793L14.6329 11.2649L14.1489 11.1394L14.1452 11.1538L14.6292 11.2793ZM14.5637 11.3828L14.5883 11.3593L14.2427 10.998L14.2181 11.0215L14.5637 11.3828ZM14.588 10.9977L12.428 8.93852L12.083 9.30042L14.243 11.3596L14.588 10.9977ZM3.28479 6.72817L1.08745 8.81777L1.43201 9.1801L3.62935 7.0905L3.28479 6.72817ZM1.08815 9.18076L3.31375 11.281L3.65692 10.9174L1.43132 8.81711L1.08815 9.18076ZM3.65822 11.2798L5.83689 9.19391L5.49111 8.83275L3.31244 10.9186L3.65822 11.2798ZM5.83651 8.83239L3.62957 6.72839L3.28456 7.09028L5.49149 9.19428L5.83651 8.83239ZM14.3615 6.70579L12.1626 8.81032L12.5083 9.17154L14.7073 7.06701L14.3615 6.70579ZM12.1629 9.17185L14.3496 11.2572L14.6947 10.8953L12.508 8.81001L12.1629 9.17185ZM14.6944 11.2574L16.912 9.14863L16.5675 8.7863L14.3499 10.8951L14.6944 11.2574ZM16.9113 8.78564L14.706 6.70457L14.3628 7.06822L16.5682 9.14929L16.9113 8.78564ZM2.34938 2.88005C1.37545 3.88688 0.897733 5.29653 0.897733 7.14133H1.39773C1.39773 5.38294 1.85122 4.11419 2.70875 3.22768L2.34938 2.88005ZM0.897733 7.14133V8.90133H1.39773V7.14133H0.897733ZM1.32004 9.08247L3.56378 6.94807L3.21916 6.5858L0.975425 8.7202L1.32004 9.08247ZM3.63661 6.81596L3.64728 6.76263L3.15699 6.66457L3.14632 6.7179L3.63661 6.81596ZM3.49618 6.94524L3.56711 6.91644L3.37902 6.45316L3.30809 6.48196L3.49618 6.94524ZM3.71502 6.62189L2.77102 2.99096L2.28711 3.11677L3.23111 6.74771L3.71502 6.62189ZM5.65184 5.71001L3.47317 6.57401L3.65749 7.03879L5.83616 6.17479L5.65184 5.71001ZM3.34173 6.6946L3.34119 6.69566L3.78841 6.91927L3.78894 6.9182L3.34173 6.6946ZM3.39228 6.9884L5.57148 9.06627L5.91652 8.7044L3.73732 6.62653L3.39228 6.9884ZM5.994 8.88533V5.9424H5.494V8.88533H5.994ZM15.1303 2.89932L14.2716 6.60652L14.7588 6.71935L15.6174 3.01215L15.1303 2.89932ZM14.4244 6.89587L14.497 6.92414L14.6785 6.45826L14.606 6.43L14.4244 6.89587ZM14.3429 6.74169L14.3536 6.79342L14.8433 6.69245L14.8326 6.64071L14.3429 6.74169ZM14.4268 6.92476L16.6802 9.05116L17.0233 8.68751L14.77 6.56111L14.4268 6.92476ZM17.1017 8.86933V7.14133H16.6017V8.86933H17.1017ZM17.1017 7.14133C17.1017 5.23174 16.5898 3.78806 15.548 2.77639L15.1997 3.13508C16.1164 4.02528 16.6017 5.32187 16.6017 7.14133H17.1017ZM12.0055 5.9424V8.86347H12.5055V5.9424H12.0055ZM12.4283 9.04408L14.599 6.96675L14.2533 6.60552L12.0826 8.68285L12.4283 9.04408ZM14.5167 6.55312L12.346 5.70938L12.1649 6.17542L14.3356 7.01915L14.5167 6.55312ZM2.4482 3.14724L3.37086 6.69178L3.85474 6.56582L2.93207 3.02129L2.4482 3.14724ZM3.70496 6.86119L5.84736 6.01159L5.66304 5.54681L3.52064 6.39641L3.70496 6.86119ZM5.98777 5.8709L6.87097 3.6309L6.40583 3.4475L5.52263 5.6875L5.98777 5.8709ZM6.66702 3.29084L2.71875 2.83591L2.66152 3.33262L6.60978 3.78756L6.66702 3.29084ZM15.1853 2.70628L11.3027 3.27962L11.3757 3.77425L15.2584 3.20092L15.1853 2.70628ZM11.1072 3.6202L12.0128 5.87246L12.4768 5.68594L11.5712 3.43367L11.1072 3.6202ZM12.1542 6.01219L14.2848 6.84099L14.4661 6.37501L12.3354 5.54621L12.1542 6.01219ZM14.619 6.66441L15.4654 3.01001L14.9783 2.89719L14.1319 6.55159L14.619 6.66441ZM6.53592 3.52172L5.68792 5.67479L6.15314 5.85801L7.00114 3.70495L6.53592 3.52172ZM5.92053 6.0164H8.85653V5.5164H5.92053V6.0164ZM9.036 5.59236L6.948 3.43929L6.58907 3.78738L8.67707 5.94044L9.036 5.59236ZM11.0298 3.43004L8.94072 5.59271L9.30034 5.94009L11.3894 3.77742L11.0298 3.43004ZM9.12053 6.0164H12.0795V5.5164H9.12053V6.0164ZM12.3114 5.67311L11.4415 3.51044L10.9777 3.69702L11.8475 5.85969L12.3114 5.67311ZM8.81285 1.01988L6.65818 3.30308L7.02182 3.64625L9.17649 1.36305L8.81285 1.01988ZM6.66052 3.6487L8.80879 5.86417L9.16774 5.5161L7.01948 3.30063L6.66052 3.6487ZM9.16808 5.86382L11.3169 3.63929L10.9573 3.29191L8.80846 5.51644L9.16808 5.86382ZM11.319 3.29408L9.17495 1.02048L8.81118 1.36352L10.9552 3.63712L11.319 3.29408ZM9.07213 1.42917L9.07373 1.42863L8.9156 0.954298L8.914 0.954832L9.07213 1.42917ZM8.82934 0.898814C7.84008 0.909349 6.85357 1.00532 5.88083 1.18566L5.97197 1.67728C6.9164 1.50219 7.87419 1.40901 8.83466 1.39879L8.82934 0.898814ZM5.88054 1.18571C4.45809 1.45112 3.31317 1.95352 2.47897 2.75103L2.82449 3.11244C3.56683 2.40275 4.61071 1.93128 5.97226 1.67723L5.88054 1.18571ZM2.62313 3.18009L6.67966 3.64729L6.73687 3.15058L2.68034 2.68338L2.62313 3.18009ZM6.89008 3.57053L9.01381 1.3204L8.65019 0.977204L6.52646 3.22734L6.89008 3.57053ZM9.19733 0.897733H9.15627V1.39773H9.19733V0.897733ZM8.97439 1.31926L11.088 3.56033L11.4517 3.21727L9.33814 0.976205L8.97439 1.31926ZM11.3064 3.63612L15.2488 3.05372L15.1757 2.55908L11.2333 3.14148L11.3064 3.63612ZM15.3774 2.6187C14.5575 1.89737 13.4624 1.43589 12.1206 1.18519L12.0288 1.67668C13.3131 1.91665 14.3151 2.3501 15.0471 2.9941L15.3774 2.6187ZM12.1206 1.1852C10.9487 0.965921 10.1559 0.900445 9.19804 0.897734L9.19663 1.39773C10.1236 1.40036 10.886 1.46288 12.0287 1.67667L12.1206 1.1852Z" fill="#151542"/>
</svg>