<svg width="16" height="16" viewBox="0 0 16 16" fill="none" xmlns="http://www.w3.org/2000/svg">
<path d="M11.41 0.5L11.5076 0.269854L11.41 0.25V0.5ZM11.4595 0.521L11.6394 0.34739L11.5571 0.290854L11.4595 0.521ZM13.2295 2.355L13.4615 2.26176L13.4094 2.18139L13.2295 2.355ZM13.25 2.406H13.5L13.482 2.31276L13.25 2.406ZM13.25 13.5185L13.4827 13.6098L13.5 13.5185H13.25ZM13.23 13.5695L13.4099 13.7431L13.4627 13.6608L13.23 13.5695ZM11.3865 15.479L11.4833 15.7095L11.5664 15.6526L11.3865 15.479ZM11.3365 15.5V15.75L11.4333 15.7305L11.3365 15.5ZM3.84 15.5L3.74236 15.7301L3.84 15.75V15.5ZM3.7905 15.479L3.61061 15.6526L3.69286 15.7091L3.7905 15.479ZM2.0205 13.645L1.78792 13.7367L1.84061 13.8186L2.0205 13.645ZM2 13.593H1.75L1.76742 13.6847L2 13.593ZM2 2.4815L1.76726 2.39023L1.75 2.4815H2ZM2.02 2.4305L1.84014 2.25686L1.78726 2.33923L2.02 2.4305ZM3.8635 0.521L3.76669 0.290505L3.68364 0.347359L3.8635 0.521ZM3.9135 0.5V0.25L3.81669 0.269505L3.9135 0.5ZM9.9435 13.5385L10.1491 13.3962L9.9435 13.2885V13.5385ZM5.2595 13.5385V13.2885L5.05527 13.3943L5.2595 13.5385ZM3.977 15.355L3.77277 15.2108L3.977 15.605V15.355ZM11.201 15.355V15.605L11.4066 15.2127L11.201 15.355ZM4.0915 12.394L4.27146 12.2205L3.95743 12.183L4.0915 12.394ZM2.1815 13.6075L2.04743 13.3965L2.00165 13.7811L2.1815 13.6075ZM3.8315 15.3165L3.65165 15.4901L4.03574 15.4607L3.8315 15.3165ZM5.1325 13.4735L5.33674 13.6177L5.31246 13.3L5.1325 13.4735ZM11.1585 12.346L11.2905 12.1337L10.9786 12.1724L11.1585 12.346ZM10.0705 13.4735L9.8906 13.2999L9.86494 13.6158L10.0705 13.4735ZM11.3455 15.3155L11.1399 15.4578L11.5254 15.4891L11.3455 15.3155ZM13.067 13.5325L13.2469 13.7061L13.199 13.3202L13.067 13.5325ZM2.1395 2.6085L2.27068 2.39568L1.8895 2.6085H2.1395ZM2.1395 13.465H1.8895L2.27357 13.676L2.1395 13.465ZM4.032 12.2625L4.16607 12.4735L4.282 12.2625H4.032ZM4.032 3.775H4.282L4.16318 3.56218L4.032 3.775ZM9.287 11.8425L9.45033 11.6532L9.287 11.5925V11.8425ZM5.961 11.8425V11.5925L5.79768 11.6532L5.961 11.8425ZM4.758 12.8805L4.59468 12.6912L4.57801 13.054L4.758 12.8805ZM5.253 13.394L5.07301 13.5675L5.253 13.644V13.394ZM9.95 13.394V13.644L10.1301 13.5674L9.95 13.394ZM10.465 12.859L10.6451 13.0324L10.6283 12.6697L10.465 12.859ZM13.11 2.535H13.36L12.9759 2.32399L13.11 2.535ZM11.2175 3.7375L11.0834 3.52649L10.9675 3.7375H11.2175ZM11.2175 12.214H10.9675L11.0855 12.4263L11.2175 12.214ZM13.11 13.391L12.978 13.6033L13.36 13.391H13.11ZM4.695 3.2325L4.85831 3.04321L4.5151 3.0589L4.695 3.2325ZM4.1715 3.775L3.9916 3.6014L3.9215 3.775H4.1715ZM4.1715 12.272H3.9215L3.99163 12.4456L4.1715 12.272ZM4.659 12.777L4.47913 12.9506L4.8223 12.9663L4.659 12.777ZM5.89 11.715L6.0533 11.9043L6.14 11.715H5.89ZM5.89 4.2635H6.14L6.05331 4.07421L5.89 4.2635ZM10.579 3.21L10.759 3.03647L10.4157 3.02074L10.579 3.21ZM9.36 4.262L9.19666 4.07273L9.11 4.262H9.36ZM9.36 11.717H9.11L9.19666 11.9063L9.36 11.717ZM10.5645 12.7565L10.4012 12.9458L10.7444 12.9301L10.5645 12.7565ZM11.078 12.2245L11.2579 12.3981L11.328 12.2245H11.078ZM11.078 3.7275H11.328L11.258 3.55397L11.078 3.7275ZM9.22 4.302H9.47L9.22 4.052V4.302ZM6.03 4.302V4.052L5.78 4.302H6.03ZM6.03 11.6975H5.78L6.03 11.9475V11.6975ZM9.22 11.6975V11.9475L9.47 11.6975H9.22ZM9.9965 2.606L10.1764 2.43239L9.9965 2.356V2.606ZM5.2995 2.606V2.356L5.11957 2.43243L5.2995 2.606ZM4.7945 3.1295L4.61457 2.95593L4.63112 3.31872L4.7945 3.1295ZM5.9845 4.157L5.82112 4.34622L5.9845 4.407V4.157ZM9.263 4.157V4.407L9.42631 4.34629L9.263 4.157ZM10.48 3.107L10.6433 3.29629L10.6599 2.93339L10.48 3.107ZM3.8975 0.69L4.10174 0.545829L3.71764 0.516364L3.8975 0.69ZM2.1825 2.4665L2.00264 2.29286L2.05127 2.67929L2.1825 2.4665ZM4.0975 3.6475L3.96627 3.86029L4.27743 3.82106L4.0975 3.6475ZM5.1875 2.5175L5.36743 2.69106L5.39174 2.37333L5.1875 2.5175ZM11.4175 0.683L11.5973 0.509328L11.2132 0.538899L11.4175 0.683ZM10.1175 2.526L9.91321 2.3819L9.93746 2.69945L10.1175 2.526ZM11.158 3.606L10.978 3.77945L11.2921 3.81699L11.158 3.606ZM13.068 2.392L13.2021 2.60299L13.2478 2.21833L13.068 2.392ZM11.2725 0.6445L11.4767 0.788691L11.2725 0.3945V0.6445ZM4.038 0.6445V0.3945L3.83375 0.788653L4.038 0.6445ZM5.32 2.461L5.11575 2.60515L5.32 2.711V2.461ZM9.99 2.461V2.711L10.1942 2.60519L9.99 2.461ZM11.3124 0.730146L11.3619 0.751146L11.5571 0.290854L11.5076 0.269854L11.3124 0.730146ZM11.2796 0.69461L13.0496 2.52861L13.4094 2.18139L11.6394 0.34739L11.2796 0.69461ZM12.9975 2.44824L13.018 2.49924L13.482 2.31276L13.4615 2.26176L12.9975 2.44824ZM13 2.406V13.5185H13.5V2.406H13ZM13.0173 13.4272L12.9973 13.4782L13.4627 13.6608L13.4827 13.6098L13.0173 13.4272ZM13.0501 13.3959L11.2066 15.3054L11.5664 15.6526L13.4099 13.7431L13.0501 13.3959ZM11.2897 15.2485L11.2397 15.2695L11.4333 15.7305L11.4833 15.7095L11.2897 15.2485ZM11.3365 15.25H3.84V15.75H11.3365V15.25ZM3.93764 15.2699L3.88814 15.2489L3.69286 15.7091L3.74236 15.7301L3.93764 15.2699ZM3.97039 15.3054L2.20039 13.4714L1.84061 13.8186L3.61061 15.6526L3.97039 15.3054ZM2.25308 13.5533L2.23258 13.5013L1.76742 13.6847L1.78792 13.7367L2.25308 13.5533ZM2.25 13.593V2.4815H1.75V13.593H2.25ZM2.23274 2.57277L2.25274 2.52177L1.78726 2.33923L1.76726 2.39023L2.23274 2.57277ZM2.19986 2.60414L4.04336 0.694641L3.68364 0.347359L1.84014 2.25686L2.19986 2.60414ZM3.96031 0.751495L4.01031 0.730495L3.81669 0.269505L3.76669 0.290505L3.96031 0.751495ZM3.9135 0.75H11.41V0.25H3.9135V0.75ZM9.9435 13.2885H5.2595V13.7885H9.9435V13.2885ZM5.05527 13.3943L3.77277 15.2108L4.18123 15.4992L5.46373 13.6827L5.05527 13.3943ZM3.977 15.605H11.201V15.105H3.977V15.605ZM11.4066 15.2127L10.1491 13.3962L9.73795 13.6808L10.9954 15.4973L11.4066 15.2127ZM3.95743 12.183L2.04743 13.3965L2.31557 13.8185L4.22557 12.605L3.95743 12.183ZM2.00165 13.7811L3.65165 15.4901L4.01135 15.1429L2.36135 13.4339L2.00165 13.7811ZM4.03574 15.4607L5.33674 13.6177L4.92826 13.3293L3.62726 15.1723L4.03574 15.4607ZM5.31246 13.3L4.27146 12.2205L3.91154 12.5675L4.95254 13.647L5.31246 13.3ZM10.9786 12.1724L9.8906 13.2999L10.2504 13.6471L11.3384 12.5196L10.9786 12.1724ZM9.86494 13.6158L11.1399 15.4578L11.5511 15.1732L10.2761 13.3312L9.86494 13.6158ZM11.5254 15.4891L13.2469 13.7061L12.8871 13.3589L11.1656 15.1419L11.5254 15.4891ZM13.199 13.3202L11.2905 12.1337L11.0265 12.5583L12.935 13.7448L13.199 13.3202ZM1.8895 2.6085V13.465H2.3895V2.6085H1.8895ZM2.27357 13.676L4.16607 12.4735L3.89793 12.0515L2.00543 13.254L2.27357 13.676ZM4.282 12.2625V3.775H3.782V12.2625H4.282ZM4.16318 3.56218L2.27068 2.39568L2.00832 2.82132L3.90082 3.98782L4.16318 3.56218ZM9.287 11.5925H5.961V12.0925H9.287V11.5925ZM5.79768 11.6532L4.59468 12.6912L4.92132 13.0698L6.12432 12.0318L5.79768 11.6532ZM4.57801 13.054L5.07301 13.5675L5.43299 13.2205L4.93799 12.707L4.57801 13.054ZM5.253 13.644H9.95V13.144H5.253V13.644ZM10.1301 13.5674L10.6451 13.0324L10.2849 12.6856L9.76989 13.2206L10.1301 13.5674ZM10.6283 12.6697L9.45033 11.6532L9.12367 12.0318L10.3017 13.0483L10.6283 12.6697ZM12.9759 2.32399L11.0834 3.52649L11.3516 3.94851L13.2441 2.74601L12.9759 2.32399ZM10.9675 3.7375V12.214H11.4675V3.7375H10.9675ZM11.0855 12.4263L12.978 13.6033L13.242 13.1787L11.3495 12.0017L11.0855 12.4263ZM13.36 13.391V2.535H12.86V13.391H13.36ZM4.5151 3.0589L3.9916 3.6014L4.3514 3.9486L4.8749 3.4061L4.5151 3.0589ZM3.9215 3.775V12.272H4.4215V3.775H3.9215ZM3.99163 12.4456L4.47913 12.9506L4.83887 12.6034L4.35137 12.0984L3.99163 12.4456ZM4.8223 12.9663L6.0533 11.9043L5.72669 11.5257L4.49569 12.5877L4.8223 12.9663ZM6.14 11.715V4.2635H5.64V11.715H6.14ZM6.05331 4.07421L4.85831 3.04321L4.53169 3.42179L5.72669 4.45279L6.05331 4.07421ZM10.4157 3.02074L9.19666 4.07273L9.52334 4.45127L10.7423 3.39927L10.4157 3.02074ZM9.11 4.262V11.717H9.61V4.262H9.11ZM9.19666 11.9063L10.4012 12.9458L10.7278 12.5672L9.52334 11.5277L9.19666 11.9063ZM10.7444 12.9301L11.2579 12.3981L10.8981 12.0509L10.3846 12.5829L10.7444 12.9301ZM11.328 12.2245V3.7275H10.828V12.2245H11.328ZM11.258 3.55397L10.759 3.03647L10.399 3.38353L10.898 3.90103L11.258 3.55397ZM9.22 4.052H6.03V4.552H9.22V4.052ZM5.78 4.302V11.6975H6.28V4.302H5.78ZM6.03 11.9475H9.22V11.4475H6.03V11.9475ZM9.47 11.6975V4.302H8.97V11.6975H9.47ZM9.9965 2.356H5.2995V2.856H9.9965V2.356ZM5.11957 2.43243L4.61457 2.95593L4.97443 3.30307L5.47943 2.77957L5.11957 2.43243ZM4.63112 3.31872L5.82112 4.34622L6.14788 3.96778L4.95788 2.94028L4.63112 3.31872ZM5.9845 4.407H9.263V3.907H5.9845V4.407ZM9.42631 4.34629L10.6433 3.29629L10.3167 2.91771L9.09969 3.96771L9.42631 4.34629ZM10.6599 2.93339L10.1764 2.43239L9.81661 2.77961L10.3001 3.28061L10.6599 2.93339ZM3.71764 0.516364L2.00264 2.29286L2.36236 2.64014L4.07736 0.863636L3.71764 0.516364ZM2.05127 2.67929L3.96627 3.86029L4.22873 3.43471L2.31373 2.25371L2.05127 2.67929ZM4.27743 3.82106L5.36743 2.69106L5.00757 2.34394L3.91757 3.47394L4.27743 3.82106ZM5.39174 2.37333L4.10174 0.545829L3.69326 0.834171L4.98326 2.66167L5.39174 2.37333ZM11.2132 0.538899L9.91321 2.3819L10.3218 2.6701L11.6218 0.827101L11.2132 0.538899ZM9.93746 2.69945L10.978 3.77945L11.338 3.43255L10.2975 2.35255L9.93746 2.69945ZM11.2921 3.81699L13.2021 2.60299L12.9339 2.18101L11.0239 3.39501L11.2921 3.81699ZM13.2478 2.21833L11.5973 0.509328L11.2377 0.856672L12.8882 2.56567L13.2478 2.21833ZM11.2725 0.3945H4.038V0.8945H11.2725V0.3945ZM3.83375 0.788653L5.11575 2.60515L5.52425 2.31685L4.24225 0.500347L3.83375 0.788653ZM5.32 2.711H9.99V2.211H5.32V2.711ZM10.1942 2.60519L11.4767 0.788691L11.0683 0.500309L9.78577 2.31681L10.1942 2.60519Z" fill="#151542"/>
</svg>