<svg width="40" height="16" viewBox="0 0 40 16" fill="none" xmlns="http://www.w3.org/2000/svg">
<path d="M38.68 6.25326H28.46C27.9151 6.25326 27.4733 6.695 27.4733 7.23992V8.83326C27.4733 9.37818 27.9151 9.81992 28.46 9.81992H38.68C39.2249 9.81992 39.6667 9.37818 39.6667 8.83326V7.23992C39.6667 6.695 39.2249 6.25326 38.68 6.25326Z" stroke="#151542" stroke-width="0.5"/>
<path d="M12.2067 6.25326H1.98667C1.44175 6.25326 1 6.695 1 7.23992V8.83326C1 9.37818 1.44175 9.81992 1.98667 9.81992H12.2067C12.7516 9.81992 13.1933 9.37818 13.1933 8.83326V7.23992C13.1933 6.695 12.7516 6.25326 12.2067 6.25326Z" stroke="#151542" stroke-width="0.5"/>
<path d="M23.48 7.98659L22.5467 5.79992L20.3133 4.90659L18.1 5.81992L17.1867 8.01326L18.12 10.1999L20.3533 11.0933L22.5667 10.1799L23.48 7.98659Z" stroke="#151542" stroke-width="0.5"/>
<path d="M26.1333 9.33326C25.7888 9.33353 25.4575 9.2004 25.2089 8.96177C24.9603 8.72315 24.8138 8.39755 24.8 8.05326V7.99992C24.8 7.6463 24.9405 7.30716 25.1905 7.05711C25.4406 6.80706 25.7797 6.66659 26.1333 6.66659C26.4746 6.66607 26.8031 6.79644 27.0511 7.03084C27.2992 7.26524 27.4479 7.58583 27.4667 7.92659V8.03325C27.458 8.38107 27.3137 8.71171 27.0646 8.95459C26.8154 9.19747 26.4813 9.33336 26.1333 9.33326ZM14.5333 9.27326C14.1888 9.27353 13.8575 9.1404 13.6089 8.90177C13.3603 8.66315 13.2138 8.33755 13.2 7.99326V7.93326C13.2 7.57963 13.3405 7.24049 13.5905 6.99045C13.8406 6.7404 14.1797 6.59992 14.5333 6.59992C14.8746 6.5994 15.2031 6.72977 15.4511 6.96417C15.6992 7.19857 15.8479 7.51916 15.8667 7.85992V7.99992C15.8479 8.34068 15.6992 8.66127 15.4511 8.89567C15.2031 9.13007 14.8746 9.26044 14.5333 9.25992V9.27326ZM20.2867 3.51992C19.9421 3.5202 19.6108 3.38707 19.3622 3.14844C19.1137 2.90981 18.9671 2.58422 18.9533 2.23992V2.16659C18.9533 1.81297 19.0938 1.47383 19.3439 1.22378C19.5939 0.973729 19.933 0.833253 20.2867 0.833253C20.6279 0.832737 20.9564 0.963102 21.2045 1.1975C21.4525 1.4319 21.6012 1.75249 21.62 2.09325V2.19992C21.613 2.5489 21.4695 2.88123 21.2202 3.12554C20.9709 3.36985 20.6357 3.50666 20.2867 3.50659V3.51992ZM20.2867 15.1533C19.9421 15.1535 19.6108 15.0204 19.3622 14.7818C19.1137 14.5431 18.9671 14.2176 18.9533 13.8733V13.8133C18.9533 13.4596 19.0938 13.1205 19.3439 12.8704C19.5939 12.6204 19.933 12.4799 20.2867 12.4799C20.6279 12.4794 20.9564 12.6098 21.2045 12.8442C21.4525 13.0786 21.6012 13.3992 21.62 13.7399V13.8466C21.6095 14.1956 21.4626 14.5265 21.2108 14.7683C20.959 15.0102 20.6224 15.1436 20.2733 15.1399L20.2867 15.1533ZM24.6267 11.9999C24.3311 11.8255 24.1142 11.5438 24.0211 11.2135C23.928 10.8832 23.9658 10.5297 24.1267 10.2266V10.1733C24.316 9.88104 24.6093 9.67167 24.9472 9.58751C25.2851 9.50334 25.6424 9.55067 25.9467 9.71992C26.2394 9.8919 26.4554 10.1691 26.5508 10.4949C26.6462 10.8207 26.6137 11.1706 26.46 11.4733L26.4067 11.5666C26.2215 11.8526 25.9339 12.0568 25.6029 12.1374C25.2719 12.2179 24.9226 12.1688 24.6267 11.9999ZM14.6267 6.16659C14.3311 5.99215 14.1142 5.71048 14.0211 5.38018C13.928 5.04988 13.9658 4.69638 14.1267 4.39325V4.33992C14.316 4.0477 14.6093 3.83833 14.9472 3.75417C15.2851 3.67001 15.6424 3.71734 15.9467 3.88659C16.2394 4.05857 16.4554 4.33572 16.5508 4.66152C16.6462 4.98732 16.6137 5.33724 16.46 5.63992L16.4067 5.73326C16.225 6.01739 15.9424 6.22213 15.6159 6.30625C15.2893 6.39036 14.943 6.34761 14.6467 6.18659L14.6267 6.16659ZM22.5333 4.06659C22.2378 3.89215 22.0209 3.61048 21.9278 3.28018C21.8346 2.94987 21.8724 2.59638 22.0333 2.29325V2.23992C22.2227 1.9477 22.516 1.73833 22.8539 1.65417C23.1918 1.57001 23.549 1.61734 23.8533 1.78659C24.146 1.95857 24.3621 2.23572 24.4575 2.56152C24.5529 2.88732 24.5204 3.23724 24.3667 3.53992L24.3133 3.63325C24.1317 3.91738 23.8491 4.12213 23.5225 4.20625C23.196 4.29036 22.8496 4.24761 22.5533 4.08659L22.5333 4.06659ZM16.5933 14.1199C16.2978 13.9455 16.0809 13.6638 15.9878 13.3335C15.8946 13.0032 15.9324 12.6497 16.0933 12.3466V12.2933C16.2827 12.001 16.576 11.7917 16.9139 11.7075C17.2518 11.6233 17.609 11.6707 17.9133 11.8399C18.206 12.0119 18.4221 12.2891 18.5175 12.6149C18.6129 12.9407 18.5804 13.2906 18.4267 13.5933L18.3733 13.6866C18.1882 13.9726 17.9006 14.1768 17.5695 14.2574C17.2385 14.3379 16.8892 14.2888 16.5933 14.1199ZM21.9267 13.6799C21.762 13.3785 21.72 13.0252 21.8095 12.6936C21.8989 12.362 22.1128 12.0777 22.4067 11.8999H22.46C22.7708 11.7406 23.1306 11.7057 23.4663 11.8023C23.8019 11.8989 24.0881 12.1198 24.2667 12.4199C24.4311 12.7183 24.475 13.0683 24.3895 13.3981C24.3039 13.7279 24.0954 14.0124 23.8067 14.1933L23.7133 14.2466C23.4043 14.396 23.0496 14.4204 22.723 14.3149C22.3965 14.2093 22.1231 13.9819 21.96 13.6799H21.9267ZM16.3333 3.65325C16.1687 3.35184 16.1267 2.99853 16.2161 2.66693C16.3056 2.33533 16.5195 2.05102 16.8133 1.87325H16.8667C17.1775 1.71395 17.5373 1.67905 17.8729 1.77565C18.2086 1.87226 18.4948 2.0931 18.6733 2.39325C18.8377 2.69165 18.8817 3.04166 18.7961 3.37143C18.7106 3.70121 18.5021 3.98573 18.2133 4.16659L18.12 4.21992C17.8075 4.37956 17.4448 4.40959 17.1103 4.30351C16.7758 4.19743 16.4967 3.96379 16.3333 3.65325ZM24.2467 5.79992C24.0753 5.4974 24.0289 5.13992 24.1173 4.80367C24.2057 4.46742 24.422 4.17901 24.72 3.99992H24.7733C25.0841 3.84062 25.444 3.80572 25.7796 3.90232C26.1152 3.99892 26.4014 4.21977 26.58 4.51992C26.7444 4.81832 26.7883 5.16833 26.7028 5.4981C26.6173 5.82788 26.4087 6.11239 26.12 6.29325L26.0267 6.34659C25.7173 6.50569 25.358 6.53758 25.0254 6.43545C24.6929 6.33331 24.4134 6.10525 24.2467 5.79992ZM13.96 11.4666C13.7954 11.1652 13.7534 10.8119 13.8428 10.4803C13.9322 10.1487 14.1461 9.86436 14.44 9.68659H14.4933C14.8041 9.52729 15.164 9.49239 15.4996 9.58899C15.8352 9.68559 16.1214 9.90644 16.3 10.2066C16.4644 10.505 16.5083 10.855 16.4228 11.1848C16.3373 11.5145 16.1287 11.7991 15.84 11.9799L15.7467 12.0333C15.4342 12.1929 15.0714 12.2229 14.737 12.1168C14.4025 12.0108 14.1233 11.7771 13.96 11.4666Z" stroke="#151542" stroke-width="0.5"/>
</svg>