<svg width="18" height="16" viewBox="0 0 18 16" fill="none" xmlns="http://www.w3.org/2000/svg">
<path d="M11.4592 0.693257L11.4071 0.506944L11.4044 0.507735L11.4592 0.693257ZM14.1185 0.686293L14.07 0.873577L14.07 0.873583L14.1185 0.686293ZM16.6571 2.98445L16.8362 2.91129L16.8362 2.91125L16.6571 2.98445ZM16.6598 7.28558L16.4736 7.2332L16.4736 7.23325L16.6598 7.28558ZM14.5094 11.3274L14.6554 11.4543L14.6556 11.4541L14.5094 11.3274ZM13.0294 12.821L12.9012 12.6761L12.8363 12.8094L13.0294 12.821ZM13.024 12.9099L13.15 13.0567L13.2171 12.9215L13.024 12.9099ZM12.9472 12.9758L12.9278 13.1682L13.0732 13.1226L12.9472 12.9758ZM12.8624 12.9672L12.8819 12.7747L12.7361 12.8207L12.8624 12.9672ZM11.0358 14.3557L10.9284 14.1948L10.9281 14.195L11.0358 14.3557ZM9.52107 15.2568L9.60915 15.429L9.61095 15.4281L9.52107 15.2568ZM9.34507 15.3468L9.43073 15.5203L9.43314 15.519L9.34507 15.3468ZM9.1856 15.4255L9.26814 15.6005L9.27125 15.599L9.1856 15.4255ZM9.02773 15.5V15.6934L9.11026 15.675L9.02773 15.5ZM8.97173 15.5L8.88921 15.675L8.97173 15.6934V15.5ZM8.81386 15.4255L8.72843 15.5991L8.73134 15.6005L8.81386 15.4255ZM8.65386 15.3468L8.56535 15.5188L8.56844 15.5204L8.65386 15.3468ZM8.47893 15.2568L8.3886 15.4279L8.39043 15.4288L8.47893 15.2568ZM8.38559 15.2075L8.2946 15.3782L8.29527 15.3786L8.38559 15.2075ZM6.96424 14.3557L7.07188 14.195L7.07159 14.1948L6.96424 14.3557ZM5.13703 12.9672L5.26332 12.8207L5.11769 12.7747L5.13703 12.9672ZM5.05169 12.9758L4.92472 13.1217L5.07103 13.1683L5.05169 12.9758ZM4.97596 12.9099L4.78293 12.9226L4.84898 13.0558L4.97596 12.9099ZM4.97009 12.821L5.16312 12.8082L5.09831 12.6761L4.97009 12.821ZM3.49061 11.3269L3.3444 11.4536L3.34451 11.4537L3.49061 11.3269ZM1.34019 7.28504L1.52643 7.23275L1.5264 7.23263L1.34019 7.28504ZM1.34285 2.98445L1.52192 3.05763L1.52196 3.05755L1.34285 2.98445ZM3.88155 0.685757L3.92994 0.873052L3.93001 0.873034L3.88155 0.685757ZM6.54077 0.692721L6.59315 0.506499L6.59289 0.506428L6.54077 0.692721ZM7.37972 0.999142L7.45568 0.821233L7.45566 0.821224L7.37972 0.999142ZM7.85652 1.21342L7.93922 1.03854L7.93828 1.0381L7.85652 1.21342ZM8.7536 1.66502L8.84598 1.49505L8.84481 1.49443L8.7536 1.66502ZM9 1.79894L8.90762 1.96891L9.09348 1.9683L9 1.79894ZM9.1184 1.73359L9.02714 1.563L9.02492 1.56423L9.1184 1.73359ZM9.31467 1.62859L9.22421 1.4576L9.22342 1.45802L9.31467 1.62859ZM10.1435 1.21396L10.061 1.03896L10.0609 1.03903L10.1435 1.21396ZM10.6198 0.999677L10.6952 1.17783L10.6975 1.17679L10.6198 0.999677ZM10.3856 12.7144L10.4052 12.5219L10.2113 12.6305L10.3856 12.7144ZM9.14774 15.2879L8.97341 15.204L9.23319 15.4614L9.14774 15.2879ZM9.28374 15.2209L9.3692 15.3945L9.37204 15.393L9.28374 15.2209ZM9.45707 15.132L9.54538 15.3041L9.54744 15.303L9.45707 15.132ZM9.54934 15.0832L9.63971 15.2543L9.64027 15.254L9.54934 15.0832ZM10.959 14.239L10.8516 14.0781L10.8513 14.0782L10.959 14.239ZM12.671 12.9474L12.7962 13.0948L12.6906 12.7549L12.671 12.9474ZM7.61385 12.7144L7.78819 12.6305L7.59422 12.5219L7.61385 12.7144ZM5.32903 12.9474L5.3094 12.7549L5.20384 13.0949L5.32903 12.9474ZM7.04105 14.2384L7.1487 14.0777L7.14841 14.0775L7.04105 14.2384ZM8.54293 15.132L8.45304 15.3033L8.45463 15.3041L8.54293 15.132ZM8.71626 15.2209L8.62795 15.393L8.63082 15.3945L8.71626 15.2209ZM8.8512 15.2873L8.76576 15.4609L9.02553 15.2035L8.8512 15.2873ZM9.02187 11.778L9.13451 11.6207L8.91173 11.6189L9.02187 11.778ZM7.74399 12.6629L7.63385 12.5039L7.56965 12.7468L7.74399 12.6629ZM8.99947 15.2739L8.82513 15.3578L9.17379 15.3578L8.99947 15.2739ZM10.256 12.6619L10.4303 12.7457L10.3687 12.5046L10.256 12.6619ZM4.93489 9.87783L4.97607 9.68882L4.74178 9.88929L4.93489 9.87783ZM5.10556 12.754L4.91245 12.7655L4.97843 12.8998L5.10556 12.754ZM5.18236 12.821L5.05523 12.9668L5.20199 13.0134L5.18236 12.821ZM7.57172 12.5772L7.59135 12.7697L7.76131 12.5388L7.57172 12.5772ZM7.12105 10.3541L7.31064 10.3156L7.16222 10.1651L7.12105 10.3541ZM13.0635 9.8773L13.2566 9.88868L13.023 9.68813L13.0635 9.8773ZM10.9558 10.3284L10.9153 10.1392L10.7674 10.2844L10.9558 10.3284ZM10.4304 12.5772L10.242 12.5332L10.4108 12.7697L10.4304 12.5772ZM12.8176 12.821L12.798 13.0134L12.9453 12.9663L12.8176 12.821ZM12.8939 12.754L13.0215 12.8994L13.087 12.7654L12.8939 12.754ZM15.8038 9.14339L15.977 9.22961L15.7534 8.95661L15.8038 9.14339ZM13.2048 9.84408L13.1545 9.6573L13.0117 9.83267L13.2048 9.84408ZM13.0406 12.6233L12.8475 12.6119L13.17 12.7671L13.0406 12.6233ZM14.4049 11.2348L14.259 11.1076L14.2588 11.1079L14.4049 11.2348ZM2.1962 9.14339L2.24658 8.95662L2.02304 9.22963L2.1962 9.14339ZM3.59514 11.2348L3.74121 11.1079L3.74094 11.1076L3.59514 11.2348ZM4.95889 12.6228L4.82951 12.7666L5.152 12.6113L4.95889 12.6228ZM4.79356 9.84408L4.98666 9.83259L4.84394 9.65731L4.79356 9.84408ZM10.7862 10.4419L10.9745 10.4859L10.6691 10.2879L10.7862 10.4419ZM9.14133 11.6912L9.02433 11.5371L9.02867 11.8484L9.14133 11.6912ZM10.3003 12.5215L10.1876 12.6788L10.4887 12.5655L10.3003 12.5215ZM7.28425 10.458L7.39995 10.303L7.09465 10.4964L7.28425 10.458ZM7.70239 12.5215L7.51279 12.5599L7.81255 12.6805L7.70239 12.5215ZM8.91947 11.6783L9.02963 11.8373L9.03516 11.5233L8.91947 11.6783ZM7.35892 4.37994L7.45505 4.21207L7.29079 4.19889L7.35892 4.37994ZM4.96422 5.28099L4.8961 5.09994L4.77342 5.31284L4.96422 5.28099ZM5.42716 8.05484L5.23635 8.08669L5.27769 8.17764L5.42716 8.05484ZM7.22185 10.2394L7.07237 10.3622L7.10633 10.3946L7.22185 10.2394ZM9.03947 11.5926L8.92395 11.7478L9.15626 11.7468L9.03947 11.5926ZM10.8438 10.226L10.9606 10.3802L10.997 10.3441L10.8438 10.226ZM12.5984 7.94985L12.7516 8.06795L12.7893 7.98108L12.5984 7.94985ZM13.0347 5.28313L13.2256 5.31437L13.0959 5.09961L13.0347 5.28313ZM10.5638 4.45976L10.6249 4.27624L10.4667 4.29239L10.5638 4.45976ZM9.07467 5.32277V5.51622L9.17167 5.49014L9.07467 5.32277ZM9.00533 5.32277L8.9092 5.49065L9.00533 5.51622V5.32277ZM5.3909 8.23055L5.5403 8.10767L5.2053 8.17601L5.3909 8.23055ZM4.94822 9.73694L4.76262 9.6824L4.90701 9.92595L4.94822 9.73694ZM6.99731 10.1837L6.9561 10.3727L7.14672 10.0608L6.99731 10.1837ZM12.6272 8.14109L12.8142 8.09127L12.4742 8.02281L12.6272 8.14109ZM11.0667 10.1607L10.9136 10.0424L11.1072 10.3498L11.0667 10.1607ZM13.0523 9.73587L13.0928 9.92504L13.2392 9.68605L13.0523 9.73587ZM3.56314 6.72684L3.68451 6.57621L3.39357 6.63375L3.56314 6.72684ZM2.30126 9.02553L2.13169 8.93244L2.25082 9.21229L2.30126 9.02553ZM4.81222 9.70373L4.76178 9.89048L4.99782 9.75828L4.81222 9.70373ZM5.28049 8.11056L5.46609 8.16511L5.40186 7.95992L5.28049 8.11056ZM14.4502 6.75309L14.6197 6.65997L14.3289 6.60241L14.4502 6.75309ZM12.7632 8.11109L12.6419 7.9604L12.5763 8.16093L12.7632 8.11109ZM13.1878 9.70319L13.0009 9.75303L13.2382 9.88996L13.1878 9.70319ZM15.6982 9.02553L15.7486 9.21229L15.8678 8.93241L15.6982 9.02553ZM16.8353 4.36923L17.0279 4.35179L16.6993 4.2316L16.8353 4.36923ZM14.5494 6.6272L14.4134 6.48958L14.3561 6.62031L14.5494 6.6272ZM14.5489 6.6422L14.3555 6.63531L14.3793 6.73529L14.5489 6.6422ZM15.8593 9.02928L15.6897 9.12237L16.0335 9.11326L15.8593 9.02928ZM16.4763 7.41897L16.6618 7.47411L16.6622 7.47274L16.4763 7.41897ZM16.5259 7.24754L16.7118 7.30131L16.7122 7.29989L16.5259 7.24754ZM1.16472 4.36923L1.30068 4.23162L0.972057 4.3518L1.16472 4.36923ZM1.47405 7.24701L1.66028 7.19466L1.66027 7.19461L1.47405 7.24701ZM2.14073 9.02928L1.96643 9.1132L2.31031 9.12236L2.14073 9.02928ZM3.45594 6.6331L3.62552 6.72618L3.59191 6.49549L3.45594 6.6331ZM13.1595 5.38063L13.296 5.24355L12.9686 5.34945L13.1595 5.38063ZM12.7398 7.95038L12.5489 7.9192L12.8611 8.10108L12.7398 7.95038ZM14.399 6.61488L14.5203 6.76558L14.5355 6.47781L14.399 6.61488ZM4.84422 5.4042L5.03504 5.37244L4.70674 5.26811L4.84422 5.4042ZM3.64634 6.61435L3.50886 6.47826L3.52499 6.765L3.64634 6.61435ZM5.26236 7.9161L5.14101 8.06675L5.45318 7.88433L5.26236 7.9161ZM4.81702 2.99141L5.01047 2.99146L4.75109 2.80955L4.81702 2.99141ZM1.27085 4.27709L1.20492 4.09523L1.1349 4.41471L1.27085 4.27709ZM3.54181 6.5206L3.40586 6.65822L3.67933 6.65666L3.54181 6.5206ZM4.81649 5.23224L4.95401 5.3683L5.00994 5.23229L4.81649 5.23224ZM13.2256 3.00748L13.2916 2.82562L13.0322 3.00373L13.2256 3.00748ZM13.183 5.20653L12.9896 5.20278L13.0465 5.34361L13.183 5.20653ZM14.4806 6.49864L14.3441 6.63571L14.6165 6.63625L14.4806 6.49864ZM16.7286 4.27762L16.8646 4.41524L16.7946 4.09576L16.7286 4.27762ZM9.0368 3.87156L9.10646 3.69109L8.98088 3.68638L9.0368 3.87156ZM7.54132 4.32316L7.4854 4.13797L7.44521 4.49104L7.54132 4.32316ZM9.03947 5.18081L8.94336 5.3487L9.13649 5.34817L9.03947 5.18081ZM10.3941 4.39548L10.4912 4.56284L10.4638 4.21501L10.3941 4.39548ZM13.0864 3.01337L13.2799 3.01716L12.9903 2.84553L13.0864 3.01337ZM10.7259 4.36601L10.6297 4.19817L10.6647 4.54953L10.7259 4.36601ZM13.0448 5.13903L12.9837 5.32255L13.2383 5.14282L13.0448 5.13903ZM4.95569 3.01177L5.05141 2.84366L4.76224 3.01177H4.95569ZM4.95569 5.13421H4.76224L5.02379 5.31527L4.95569 5.13421ZM7.20051 4.28995L7.26861 4.47101L7.29623 4.12184L7.20051 4.28995ZM11.4768 0.874324L11.6303 0.756558L11.3257 0.753582L11.4768 0.874324ZM9.16373 3.76978L9.01259 3.64904L9.094 3.95022L9.16373 3.76978ZM10.5499 4.30548L10.4801 4.48592L10.6461 4.47332L10.5499 4.30548ZM13.0224 2.88856L13.1186 3.0564L13.1759 2.77079L13.0224 2.88856ZM6.52424 0.873252L6.67314 0.749761L6.37082 0.755424L6.52424 0.873252ZM4.99089 2.86981L4.83747 2.75198L4.89514 3.03789L4.99089 2.86981ZM7.37385 4.22727L7.2781 4.39536L7.42977 4.41246L7.37385 4.22727ZM8.91893 3.76067L8.97486 3.94586L9.06783 3.63718L8.91893 3.76067ZM2.9834 1.2011L3.11428 1.05864L2.88552 1.03424L2.9834 1.2011ZM1.47139 3.03855L1.29231 2.96536L1.29159 2.96717L1.47139 3.03855ZM1.18765 4.1587L0.995556 4.13587L1.25366 4.34054L1.18765 4.1587ZM4.78236 2.85373L4.84837 3.03557L4.91323 2.71128L4.78236 2.85373ZM15.0401 1.21556L15.1393 1.04953L14.9092 1.07309L15.0401 1.21556ZM13.2448 2.86445L13.114 2.72198L13.1789 3.0463L13.2448 2.86445ZM16.8129 4.1587L16.7469 4.34055L17.0049 4.13545L16.8129 4.1587ZM16.5691 3.14194L16.7509 3.07556L16.7492 3.07133L16.5691 3.14194ZM16.5286 3.03855L16.7087 2.96794L16.7077 2.96535L16.5286 3.03855ZM11.2822 0.89468L11.4333 1.01543L11.2206 0.711295L11.2822 0.89468ZM10.6742 1.12932L10.7497 1.30739L10.7501 1.30722L10.6742 1.12932ZM10.2021 1.34199L10.2844 1.5171L10.2846 1.517L10.2021 1.34199ZM9.3792 1.75394L9.28882 1.58291L9.2881 1.58329L9.3792 1.75394ZM9.18454 1.85787L9.09342 1.6872L9.09129 1.68838L9.18454 1.85787ZM9.0336 1.9409V2.13435L9.12684 2.11039L9.0336 1.9409ZM8.96587 1.9409L8.8721 2.11011L8.96587 2.13435V1.9409ZM8.87307 1.88947L8.96684 1.72026L8.96462 1.71906L8.87307 1.88947ZM8.6208 1.75394L8.71235 1.58353L8.71139 1.58302L8.6208 1.75394ZM7.79785 1.34145L7.88058 1.16659L7.88037 1.16649L7.79785 1.34145ZM7.32585 1.12932L7.40191 0.95145L7.40149 0.951272L7.32585 1.12932ZM6.72584 0.897359L6.78775 0.714084L6.57694 1.02085L6.72584 0.897359ZM9.04533 3.69425L8.89643 3.81774L9.19646 3.815L9.04533 3.69425ZM13.9595 0.79129L14.0063 0.603566L14.0046 0.603175L13.9595 0.79129ZM11.4966 0.828789L11.4444 0.642512L11.5474 1.01543L11.4966 0.828789ZM11.5968 0.801469L11.7503 0.683721L11.546 0.614826L11.5968 0.801469ZM13.1211 2.78838L12.9676 2.90613L13.252 2.93082L13.1211 2.78838ZM14.9121 1.14271L15.043 1.28515L15.0033 0.972142L14.9121 1.14271ZM14.1761 0.847003L14.2282 0.660695L14.2262 0.660179L14.1761 0.847003ZM14.0843 0.822361L14.1345 0.635505L14.1311 0.634644L14.0843 0.822361ZM6.40264 0.801469L6.55607 0.919284L6.45163 0.614327L6.40264 0.801469ZM3.91568 0.822361L3.96327 1.00986L3.96415 1.00964L3.91568 0.822361ZM3.11194 1.12985L3.02224 0.958458L2.98108 1.27233L3.11194 1.12985ZM4.89382 2.76642L4.76297 2.90889L5.04726 2.88423L4.89382 2.76642ZM11.5113 0.879551C12.4101 0.628101 13.1598 0.638153 14.07 0.873577L14.1669 0.499009C13.1965 0.248017 12.3772 0.235571 11.4071 0.506963L11.5113 0.879551ZM14.07 0.873583C15.1292 1.14741 15.9697 1.81392 16.4781 3.05764L16.8362 2.91125C16.2822 1.55576 15.3456 0.803735 14.1669 0.499003L14.07 0.873583ZM16.4781 3.0576C16.9306 4.16531 16.9027 5.70753 16.4736 7.2332L16.846 7.33796C17.2884 5.76514 17.333 4.12744 16.8362 2.91129L16.4781 3.0576ZM16.4736 7.23325C16.0373 8.78604 15.3519 10.059 14.3632 11.2008L14.6556 11.4541C15.6829 10.2677 16.3949 8.94361 16.846 7.33791L16.4736 7.23325ZM14.3633 11.2006C13.9087 11.7241 13.4202 12.217 12.9012 12.6761L13.1575 12.9659C13.6893 12.4955 14.1897 11.9906 14.6554 11.4543L14.3633 11.2006ZM12.8363 12.8094L12.8309 12.8983L13.2171 12.9215L13.2225 12.8325L12.8363 12.8094ZM12.8981 12.7631L12.8213 12.829L13.0732 13.1226L13.15 13.0567L12.8981 12.7631ZM12.9667 12.7833L12.8819 12.7747L12.843 13.1597L12.9278 13.1682L12.9667 12.7833ZM12.7361 12.8207C12.1621 13.3155 11.5584 13.7744 10.9284 14.1948L11.1431 14.5167C11.7864 14.0874 12.4027 13.6189 12.9888 13.1137L12.7361 12.8207ZM10.9281 14.195C10.4453 14.5184 9.94558 14.8156 9.4312 15.0855L9.61095 15.4281C10.1375 15.1518 10.6491 14.8475 11.1434 14.5165L10.9281 14.195ZM9.433 15.0846L9.257 15.1746L9.43314 15.519L9.60915 15.429L9.433 15.0846ZM9.25942 15.1733L9.09995 15.2521L9.27125 15.599L9.43072 15.5202L9.25942 15.1733ZM9.10308 15.2506L8.94521 15.325L9.11026 15.675L9.26812 15.6005L9.10308 15.2506ZM9.02773 15.3066H8.97173V15.6934H9.02773V15.3066ZM9.05426 15.325L8.89639 15.2506L8.73134 15.6005L8.88921 15.675L9.05426 15.325ZM8.89929 15.252L8.73928 15.1732L8.56844 15.5204L8.72844 15.5991L8.89929 15.252ZM8.74236 15.1748L8.56743 15.0848L8.39043 15.4288L8.56536 15.5188L8.74236 15.1748ZM8.56925 15.0857L8.47592 15.0364L8.29527 15.3786L8.3886 15.4279L8.56925 15.0857ZM8.47658 15.0368C8.02963 14.7986 7.55415 14.5179 7.07188 14.195L6.85661 14.5165C7.35035 14.8471 7.83701 15.1343 8.2946 15.3782L8.47658 15.0368ZM7.07159 14.1948C6.44137 13.7744 5.83747 13.3155 5.26332 12.8207L5.01073 13.1137C5.59691 13.6189 6.21346 14.0875 6.8569 14.5167L7.07159 14.1948ZM5.11769 12.7747L5.03236 12.7833L5.07103 13.1683L5.15636 13.1597L5.11769 12.7747ZM5.17867 12.8298L5.10293 12.7639L4.84898 13.0558L4.92472 13.1217L5.17867 12.8298ZM5.16899 12.8972L5.16312 12.8082L4.77706 12.8337L4.78293 12.9226L5.16899 12.8972ZM5.09831 12.6761C4.57945 12.2168 4.09119 11.7237 3.6367 11.2001L3.34451 11.4537C3.81011 11.9901 4.3103 12.4953 4.84187 12.9658L5.09831 12.6761ZM3.63682 11.2002C2.6481 10.059 1.96273 8.78657 1.52643 7.23275L1.15394 7.33734C1.60512 8.94414 2.31709 10.2678 3.3444 11.4536L3.63682 11.2002ZM1.5264 7.23263C1.0973 5.70806 1.06942 4.16479 1.52192 3.05763L1.16378 2.91126C0.666945 4.1269 0.711595 5.76568 1.15397 7.33745L1.5264 7.23263ZM1.52196 3.05755C2.02979 1.81337 2.87025 1.14688 3.92994 0.873052L3.83315 0.498462C2.65388 0.80319 1.71727 1.55524 1.16375 2.91134L1.52196 3.05755ZM3.93001 0.873034C4.83964 0.637622 5.58988 0.627563 6.48865 0.879015L6.59289 0.506428C5.62285 0.235037 4.80294 0.247477 3.83308 0.49848L3.93001 0.873034ZM6.4884 0.878944C6.71768 0.943426 6.99207 1.04401 7.30377 1.17706L7.45566 0.821224C7.13482 0.684277 6.84387 0.577013 6.59315 0.506499L6.4884 0.878944ZM7.30375 1.17705C7.45418 1.24128 7.61157 1.31264 7.77476 1.38874L7.93828 1.0381C7.77293 0.960993 7.61139 0.887717 7.45568 0.821233L7.30375 1.17705ZM7.77382 1.3883C8.07362 1.53006 8.36989 1.67921 8.66238 1.83561L8.84481 1.49443C8.54672 1.33503 8.24476 1.18302 7.93922 1.03854L7.77382 1.3883ZM8.66122 1.83498L8.90762 1.96891L9.09238 1.62898L8.84598 1.49505L8.66122 1.83498ZM9.09348 1.9683L9.21188 1.90295L9.02492 1.56423L8.90652 1.62958L9.09348 1.9683ZM9.20965 1.90416L9.40592 1.79916L9.22342 1.45802L9.02715 1.56301L9.20965 1.90416ZM9.40513 1.79958C9.67565 1.65646 9.94937 1.51953 10.2261 1.38889L10.0609 1.03903C9.77888 1.17218 9.49991 1.31174 9.22421 1.4576L9.40513 1.79958ZM10.2259 1.38896C10.3881 1.31254 10.5452 1.24134 10.6952 1.17781L10.5443 0.821544C10.3882 0.88765 10.2263 0.961094 10.061 1.03896L10.2259 1.38896ZM10.6975 1.17679C10.963 1.06021 11.2357 0.961004 11.514 0.878779L11.4044 0.507735C11.1108 0.594465 10.8228 0.699234 10.542 0.822561L10.6975 1.17679ZM10.2113 12.6305L8.97341 15.204L9.32206 15.3717L10.5599 12.7982L10.2113 12.6305ZM9.23319 15.4614L9.36919 15.3945L9.19829 15.0474L9.06228 15.1143L9.23319 15.4614ZM9.37204 15.393L9.54537 15.3041L9.36877 14.9599L9.19543 15.0488L9.37204 15.393ZM9.54744 15.303L9.63971 15.2543L9.45897 14.9122L9.3667 14.9609L9.54744 15.303ZM9.64027 15.254C10.1296 14.9933 10.6057 14.7082 11.0666 14.3997L10.8513 14.0782C10.4012 14.3795 9.93631 14.658 9.45841 14.9125L9.64027 15.254ZM11.0664 14.3999C11.6675 13.9986 12.245 13.5629 12.7962 13.0948L12.5458 12.7999C12.0059 13.2583 11.4403 13.6851 10.8516 14.0781L11.0664 14.3999ZM12.6906 12.7549L10.4052 12.5219L10.366 12.9068L12.6513 13.1398L12.6906 12.7549ZM7.59422 12.5219L5.3094 12.7549L5.34866 13.1398L7.63348 12.9068L7.59422 12.5219ZM5.20384 13.0949C5.755 13.5627 6.33258 13.9983 6.93368 14.3993L7.14841 14.0775C6.5597 13.6847 5.99403 13.2581 5.45422 12.7999L5.20384 13.0949ZM6.93339 14.3992C7.42357 14.7275 7.93084 15.0293 8.45304 15.3033L8.63281 14.9607C8.12283 14.6931 7.62742 14.3983 7.1487 14.0777L6.93339 14.3992ZM8.45463 15.3041L8.62796 15.393L8.80457 15.0488L8.63123 14.9599L8.45463 15.3041ZM8.63082 15.3945L8.76576 15.4609L8.93664 15.1138L8.8017 15.0473L8.63082 15.3945ZM9.02553 15.2035L7.78819 12.6305L7.43952 12.7982L8.67686 15.3712L9.02553 15.2035ZM8.91173 11.6189L7.63385 12.5039L7.85412 12.822L9.132 11.937L8.91173 11.6189ZM7.56965 12.7468L8.82513 15.3578L9.17381 15.1901L7.91833 12.5791L7.56965 12.7468ZM9.17379 15.3578L10.4303 12.7457L10.0817 12.578L8.82514 15.1901L9.17379 15.3578ZM10.3687 12.5046L9.13451 11.6207L8.90923 11.9352L10.1434 12.8191L10.3687 12.5046ZM4.74178 9.88929L4.91245 12.7655L5.29867 12.7425L5.128 9.86637L4.74178 9.88929ZM4.97843 12.8998L5.05523 12.9668L5.30949 12.6752L5.23269 12.6082L4.97843 12.8998ZM5.20199 13.0134L7.59135 12.7697L7.55209 12.3848L5.16273 12.6285L5.20199 13.0134ZM7.76131 12.5388L7.31064 10.3156L6.93146 10.3925L7.38213 12.6157L7.76131 12.5388ZM7.16222 10.1651L4.97607 9.68882L4.89372 10.0668L7.07987 10.5431L7.16222 10.1651ZM13.023 9.68813L10.9153 10.1392L10.9962 10.5175L13.104 10.0665L13.023 9.68813ZM10.7674 10.2844L10.242 12.5332L10.6188 12.6212L11.1441 10.3724L10.7674 10.2844ZM10.4108 12.7697L12.798 13.0134L12.8373 12.6285L10.4501 12.3848L10.4108 12.7697ZM12.9453 12.9663L13.0215 12.8994L12.7663 12.6086L12.69 12.6756L12.9453 12.9663ZM13.087 12.7654L13.2566 9.88868L12.8704 9.86591L12.7008 12.7426L13.087 12.7654ZM15.7534 8.95661L13.1545 9.6573L13.2552 10.0309L15.8542 9.33016L15.7534 8.95661ZM13.0117 9.83267L12.8475 12.6119L13.2337 12.6347L13.398 9.8555L13.0117 9.83267ZM13.17 12.7671C13.6586 12.3275 14.1198 11.8581 14.5509 11.3616L14.2588 11.1079C13.8381 11.5925 13.388 12.0505 12.9112 12.4795L13.17 12.7671ZM14.5507 11.3619C15.1147 10.715 15.594 9.99874 15.977 9.22961L15.6306 9.05717C15.2624 9.79676 14.8015 10.4855 14.259 11.1076L14.5507 11.3619ZM2.02304 9.22963C2.40599 9.99855 2.88531 10.7151 3.44935 11.3619L3.74094 11.1076C3.19857 10.4857 2.73763 9.79661 2.36936 9.05715L2.02304 9.22963ZM3.44907 11.3616C3.88005 11.8579 4.34107 12.3272 4.82951 12.7666L5.08827 12.4789C4.61165 12.0502 4.16178 11.5923 3.74121 11.1079L3.44907 11.3616ZM5.152 12.6113L4.98666 9.83259L4.60045 9.85557L4.76579 12.6342L5.152 12.6113ZM4.84394 9.65731L2.24658 8.95662L2.14581 9.33016L4.74317 10.0309L4.84394 9.65731ZM10.6691 10.2879L9.02433 11.5371L9.25834 11.8452L10.9032 10.596L10.6691 10.2879ZM9.02867 11.8484L10.1876 12.6788L10.4129 12.3643L9.254 11.5339L9.02867 11.8484ZM10.4887 12.5655L10.9745 10.4859L10.5978 10.3979L10.1119 12.4775L10.4887 12.5655ZM7.09465 10.4964L7.51279 12.5599L7.89198 12.4831L7.47384 10.4196L7.09465 10.4964ZM7.81255 12.6805L9.02963 11.8373L8.8093 11.5193L7.59222 12.3625L7.81255 12.6805ZM9.03516 11.5233L7.39995 10.303L7.16855 10.613L8.80377 11.8334L9.03516 11.5233ZM7.29079 4.19889L4.8961 5.09994L5.03235 5.46205L7.42704 4.561L7.29079 4.19889ZM4.77342 5.31284L5.23635 8.08669L5.61797 8.023L5.15503 5.24915L4.77342 5.31284ZM5.27769 8.17764L7.07237 10.3622L7.37132 10.1166L5.57664 7.93205L5.27769 8.17764ZM7.10633 10.3946L8.92395 11.7478L9.15499 11.4374L7.33737 10.0843L7.10633 10.3946ZM9.15626 11.7468L10.9606 10.3802L10.727 10.0718L8.92267 11.4384L9.15626 11.7468ZM10.997 10.3441L12.7516 8.06795L12.4452 7.83174L10.6905 10.1079L10.997 10.3441ZM12.7893 7.98108L13.2256 5.31437L12.8438 5.2519L12.4075 7.91861L12.7893 7.98108ZM13.0959 5.09961L10.6249 4.27624L10.5026 4.64329L12.9736 5.46666L13.0959 5.09961ZM10.4667 4.29239L8.97767 5.15541L9.17167 5.49014L10.6608 4.62713L10.4667 4.29239ZM9.07467 5.12933H9.00533V5.51622H9.07467V5.12933ZM9.10147 5.1549L7.45505 4.21207L7.26278 4.54781L8.9092 5.49065L9.10147 5.1549ZM5.2053 8.17601L4.76262 9.6824L5.13382 9.79148L5.57649 8.28509L5.2053 8.17601ZM4.90701 9.92595L6.9561 10.3727L7.03852 9.99471L4.98943 9.54794L4.90701 9.92595ZM7.14672 10.0608L5.5403 8.10767L5.24149 8.35344L6.84791 10.3066L7.14672 10.0608ZM12.4742 8.02281L10.9136 10.0424L11.2198 10.279L12.7803 8.25937L12.4742 8.02281ZM11.1072 10.3498L13.0928 9.92504L13.0118 9.5467L11.0262 9.97151L11.1072 10.3498ZM13.2392 9.68605L12.8142 8.09127L12.4403 8.19091L12.8654 9.78569L13.2392 9.68605ZM3.39357 6.63375L2.13169 8.93244L2.47084 9.11862L3.73272 6.81993L3.39357 6.63375ZM2.25082 9.21229L4.76178 9.89048L4.86266 9.51697L2.3517 8.83878L2.25082 9.21229ZM4.99782 9.75828L5.46609 8.16511L5.0949 8.05601L4.62663 9.64918L4.99782 9.75828ZM5.40186 7.95992L3.68451 6.57621L3.44177 6.87748L5.15912 8.26119L5.40186 7.95992ZM14.3289 6.60241L12.6419 7.9604L12.8845 8.26178L14.5715 6.90378L14.3289 6.60241ZM12.5763 8.16093L13.0009 9.75303L13.3747 9.65335L12.9502 8.06125L12.5763 8.16093ZM13.2382 9.88996L15.7486 9.21229L15.6478 8.83877L13.1374 9.51643L13.2382 9.88996ZM15.8678 8.93241L14.6197 6.65997L14.2806 6.84622L15.5286 9.11865L15.8678 8.93241ZM16.6993 4.2316L14.4134 6.48958L14.6853 6.76483L16.9712 4.50686L16.6993 4.2316ZM14.3561 6.62031L14.3555 6.63531L14.7422 6.6491L14.7427 6.6341L14.3561 6.62031ZM14.3793 6.73529L15.6897 9.12237L16.0288 8.93619L14.7184 6.54911L14.3793 6.73529ZM16.0335 9.11326C16.2811 8.59964 16.4889 8.05528 16.6618 7.47411L16.2909 7.36383C16.1235 7.92691 15.9228 8.45181 15.685 8.9453L16.0335 9.11326ZM16.6622 7.47274L16.7118 7.30131L16.3401 7.19378L16.2905 7.3652L16.6622 7.47274ZM16.7122 7.29989C16.9947 6.29479 17.111 5.26915 17.0279 4.35179L16.6426 4.38667C16.7207 5.24891 16.6119 6.22678 16.3397 7.1952L16.7122 7.29989ZM0.972057 4.3518C0.889032 5.26967 1.00533 6.29532 1.28784 7.2994L1.66027 7.19461C1.38811 6.22732 1.27934 5.24945 1.35738 4.38666L0.972057 4.3518ZM1.28783 7.29936C1.46983 7.9468 1.69449 8.54833 1.96643 9.1132L2.31503 8.94537C2.05363 8.40241 1.83669 7.82218 1.66028 7.19466L1.28783 7.29936ZM2.31031 9.12236L3.62552 6.72618L3.28636 6.54002L1.97115 8.9362L2.31031 9.12236ZM3.59191 6.49549L1.30068 4.23162L1.02875 4.50684L3.31998 6.7707L3.59191 6.49549ZM12.9686 5.34945L12.5489 7.9192L12.9307 7.98157L13.3504 5.41181L12.9686 5.34945ZM12.8611 8.10108L14.5203 6.76558L14.2777 6.46419L12.6185 7.79969L12.8611 8.10108ZM14.5355 6.47781L13.296 5.24355L13.023 5.51771L14.2625 6.75196L14.5355 6.47781ZM4.70674 5.26811L3.50886 6.47826L3.78383 6.75044L4.98171 5.54029L4.70674 5.26811ZM3.52499 6.765L5.14101 8.06675L5.38371 7.76545L3.7677 6.4637L3.52499 6.765ZM5.45318 7.88433L5.03504 5.37244L4.6534 5.43597L5.07154 7.94786L5.45318 7.88433ZM4.75109 2.80955L1.20492 4.09523L1.33679 4.45895L4.88296 3.17327L4.75109 2.80955ZM1.1349 4.41471L3.40586 6.65822L3.67776 6.38298L1.40681 4.13947L1.1349 4.41471ZM3.67933 6.65666L4.95401 5.3683L4.67897 5.09619L3.40429 6.38454L3.67933 6.65666ZM5.00994 5.23229L5.01047 2.99146L4.62358 2.99136L4.62304 5.2322L5.00994 5.23229ZM13.0322 3.00373L12.9896 5.20278L13.3764 5.21028L13.4191 3.01123L13.0322 3.00373ZM13.0465 5.34361L14.3441 6.63571L14.6171 6.36156L13.3195 5.06945L13.0465 5.34361ZM14.6165 6.63625L16.8646 4.41524L16.5927 4.14001L14.3446 6.36102L14.6165 6.63625ZM16.7946 4.09576L13.2916 2.82562L13.1597 3.18934L16.6627 4.45949L16.7946 4.09576ZM8.98088 3.68638L7.4854 4.13797L7.59724 4.50835L9.09272 4.05675L8.98088 3.68638ZM7.44521 4.49104L8.94336 5.3487L9.13558 5.01293L7.63743 4.15528L7.44521 4.49104ZM9.13649 5.34817L10.4912 4.56284L10.2971 4.22812L8.94245 5.01346L9.13649 5.34817ZM10.4638 4.21501L9.10646 3.69109L8.96714 4.05203L10.3245 4.57595L10.4638 4.21501ZM12.9903 2.84553L10.6297 4.19817L10.8221 4.53386L13.1826 3.18122L12.9903 2.84553ZM10.6647 4.54953L12.9837 5.32255L13.106 4.95551L10.7871 4.1825L10.6647 4.54953ZM13.2383 5.14282L13.2799 3.01716L12.893 3.00959L12.8514 5.13524L13.2383 5.14282ZM4.76224 3.01177V5.13421H5.14914V3.01177H4.76224ZM5.02379 5.31527L7.26861 4.47101L7.13242 4.10888L4.88759 4.95314L5.02379 5.31527ZM7.29623 4.12184L5.05141 2.84366L4.85997 3.17987L7.1048 4.45805L7.29623 4.12184ZM11.3257 0.753582L9.01259 3.64904L9.31487 3.89052L11.628 0.995065L11.3257 0.753582ZM9.094 3.95022L10.4801 4.48592L10.6196 4.12504L9.23347 3.58934L9.094 3.95022ZM10.6461 4.47332L13.1186 3.0564L12.9263 2.72071L10.4537 4.13764L10.6461 4.47332ZM13.1759 2.77079L11.6303 0.756558L11.3234 0.992089L12.869 3.00632L13.1759 2.77079ZM6.37082 0.755424L4.83747 2.75198L5.14431 2.98763L6.67766 0.99108L6.37082 0.755424ZM4.89514 3.03789L7.2781 4.39536L7.4696 4.05918L5.08664 2.70172L4.89514 3.03789ZM7.42977 4.41246L8.97486 3.94586L8.86301 3.57549L7.31793 4.04208L7.42977 4.41246ZM9.06783 3.63718L6.67314 0.749761L6.37534 0.996744L8.77003 3.88417L9.06783 3.63718ZM2.88552 1.03424C2.20355 1.4343 1.66105 2.06312 1.29232 2.96537L1.65046 3.11173C1.99106 2.27832 2.48111 1.72003 3.08128 1.36796L2.88552 1.03424ZM1.29159 2.96717C1.14272 3.34216 1.0432 3.73504 0.995556 4.13587L1.37975 4.18153C1.42343 3.81398 1.51469 3.45374 1.65118 3.10993L1.29159 2.96717ZM1.25366 4.34054L4.84837 3.03557L4.71634 2.6719L1.12164 3.97686L1.25366 4.34054ZM4.91323 2.71128L3.11428 1.05864L2.85253 1.34356L4.65148 2.99619L4.91323 2.71128ZM14.9092 1.07309L13.114 2.72198L13.3757 3.00692L15.1709 1.35804L14.9092 1.07309ZM13.1789 3.0463L16.7469 4.34055L16.8788 3.97685L13.3108 2.6826L13.1789 3.0463ZM17.0049 4.13545C16.9611 3.77353 16.8759 3.41789 16.7509 3.07558L16.3874 3.2083C16.5023 3.52274 16.5806 3.84945 16.6208 4.18195L17.0049 4.13545ZM16.7492 3.07133L16.7087 2.96794L16.3485 3.10916L16.389 3.21255L16.7492 3.07133ZM16.7077 2.96535C16.3434 2.07426 15.8094 1.45014 15.1393 1.04953L14.9408 1.3816C15.5305 1.73419 16.013 2.2886 16.3496 3.11175L16.7077 2.96535ZM11.2206 0.711295C11.0312 0.774897 10.8225 0.855612 10.5982 0.95141L10.7501 1.30722C10.9674 1.21445 11.1662 1.13767 11.3437 1.07807L11.2206 0.711295ZM10.5986 0.951243C10.4441 1.01682 10.2838 1.08972 10.1197 1.16698L10.2846 1.517C10.4458 1.44105 10.6013 1.37038 10.7497 1.30739L10.5986 0.951243ZM10.1199 1.16688C9.83823 1.29914 9.55652 1.44145 9.28882 1.58291L9.46958 1.92498C9.73309 1.78573 10.0093 1.64626 10.2844 1.5171L10.1199 1.16688ZM9.2881 1.58329L9.09343 1.68722L9.27564 2.02852L9.47031 1.92459L9.2881 1.58329ZM9.09129 1.68838L8.94036 1.77141L9.12684 2.11039L9.27778 2.02736L9.09129 1.68838ZM9.0336 1.74746H8.96587V2.13435H9.0336V1.74746ZM9.05963 1.7717L8.96683 1.72027L8.7793 2.05868L8.8721 2.11011L9.05963 1.7717ZM8.96462 1.71906L8.71235 1.58353L8.52924 1.92435L8.78151 2.05989L8.96462 1.71906ZM8.71139 1.58302C8.43763 1.43791 8.16062 1.29906 7.88058 1.16659L7.71513 1.51632C7.98986 1.64629 8.26162 1.7825 8.5302 1.92486L8.71139 1.58302ZM7.88037 1.16649C7.7222 1.09189 7.56269 1.0202 7.40191 0.951451L7.24979 1.30718C7.40622 1.37408 7.56143 1.44384 7.71534 1.51642L7.88037 1.16649ZM7.40149 0.951272C7.18029 0.857295 6.97448 0.777156 6.78775 0.714084L6.66394 1.08063C6.83881 1.1397 7.03513 1.21599 7.25021 1.30736L7.40149 0.951272ZM6.57694 1.02085L8.89643 3.81774L9.19424 3.57076L6.87475 0.773871L6.57694 1.02085ZM9.19646 3.815L11.4333 1.01543L11.131 0.773928L8.8942 3.5735L9.19646 3.815ZM14.0046 0.603175C13.1119 0.389138 12.3461 0.389929 11.4444 0.642512L11.5487 1.01507C12.3835 0.781234 13.0823 0.779882 13.9144 0.979406L14.0046 0.603175ZM11.5474 1.01543L11.6477 0.988111L11.546 0.614826L11.4457 0.642146L11.5474 1.01543ZM11.4433 0.919216L12.9676 2.90613L13.2746 2.67063L11.7503 0.683721L11.4433 0.919216ZM13.252 2.93082L15.043 1.28515L14.7812 1.00027L12.9902 2.64594L13.252 2.93082ZM15.0033 0.972142C14.757 0.840342 14.4971 0.73591 14.2282 0.660705L14.124 1.0333C14.3657 1.1009 14.5993 1.19478 14.8208 1.31328L15.0033 0.972142ZM14.2262 0.660179L14.1345 0.635537L14.0341 1.00918L14.1259 1.03383L14.2262 0.660179ZM14.1311 0.634644L14.0063 0.603573L13.9128 0.979007L14.0376 1.01008L14.1311 0.634644ZM6.45163 0.614327C5.55064 0.378465 4.7793 0.399004 3.86721 0.635085L3.96415 1.00964C4.81955 0.78823 5.52342 0.77127 6.35365 0.98861L6.45163 0.614327ZM3.86809 0.634859C3.57457 0.709358 3.2907 0.81796 3.02224 0.958458L3.20164 1.30125C3.4434 1.17472 3.699 1.07694 3.96327 1.00986L3.86809 0.634859ZM2.98108 1.27233L4.76297 2.90889L5.02468 2.62394L3.24279 0.987378L2.98108 1.27233ZM5.04726 2.88423L6.55607 0.919284L6.24921 0.683653L4.74039 2.6486L5.04726 2.88423Z" fill="#151542"/>
</svg>