<svg width="16" height="18" viewBox="0 0 16 18" fill="none" xmlns="http://www.w3.org/2000/svg">
<path d="M8.23905 1.07681L8.31532 1.13814L8.41826 1.22348L8.47479 1.27148C9.21894 1.90866 9.90193 2.61397 10.5149 3.37822C11.9432 5.16281 12.8003 7.06047 12.8003 8.99387C12.8003 10.3155 12.3971 11.6574 11.685 12.8943L11.6157 13.0116V13.0233C11.6118 13.0671 11.5925 13.1081 11.5613 13.1391L11.5416 13.1588C10.9581 14.1268 10.237 15.0245 9.45669 15.8192L9.34576 15.9306L9.23482 16.04L9.12495 16.1466L8.96334 16.2987L8.80921 16.44L8.6652 16.568L8.53506 16.6811L8.42146 16.7755L8.32706 16.8496L8.27692 16.8864L8.23745 16.912C8.09345 17.0208 7.94144 17.0288 7.79637 16.9355L7.76277 16.912L7.80117 16.8603L7.75957 16.9093L7.50996 16.7008C6.77284 16.0712 6.09578 15.3745 5.48749 14.6197C5.0268 14.0523 4.61635 13.4459 4.26079 12.8073L4.25065 12.7972L4.25385 12.794C3.57916 11.5636 3.19995 10.2899 3.19995 8.99441C3.19995 6.23911 5.15202 3.09234 7.76277 1.07574C7.90464 0.969068 8.09452 0.980269 8.23905 1.07681ZM9.94844 11.2158L8.01291 16.8651C8.05567 16.861 8.09673 16.8463 8.13238 16.8224L8.20065 16.776L8.24972 16.7403L8.27799 16.7189L8.34199 16.6677L8.45399 16.5749L8.5372 16.5029L8.6748 16.3813L8.82414 16.2458L8.98095 16.0992L9.08868 15.9957L9.25242 15.8357L9.36176 15.7253C10.1351 14.9375 10.8498 14.0479 11.437 13.0767C11.469 13.0457 11.4797 13.0308 11.4824 13.0073L11.4834 12.9924L11.493 12.9577L11.5453 12.8681L9.94844 11.2158ZM6.00058 11.1795L4.41919 12.8164C4.76169 13.4209 5.15381 13.9958 5.5915 14.5354C6.16702 15.2496 6.80474 15.9115 7.49716 16.5131L7.6865 16.6752L7.81984 16.7856L6.00111 11.1801L6.00058 11.1795ZM6.12112 11.1177L7.93024 16.6939L9.78577 11.2782L8.14998 12.4441L8.07425 12.4447L6.12112 11.1177ZM12.6621 9.22961L10.0279 11.1054L11.6152 12.7471C12.2456 11.6254 12.6189 10.4217 12.6621 9.22961ZM4.35199 12.6927L5.95418 11.035L5.94138 10.9945L3.33862 9.22535C3.38022 10.4041 3.7397 11.5646 4.35199 12.6927ZM8.06571 5.69403L6.10405 7.11594L5.46509 9.09254L6.05391 10.9081L8.11105 12.3065L9.86044 11.0601L10.5357 9.09201L9.85777 7.02954L8.06571 5.69403ZM10.0444 7.16821L10.6695 9.07121V9.11441L10.0476 10.9267L12.6243 9.09094L10.0444 7.16821ZM5.92058 7.24875L3.37862 9.09094L5.87311 10.7865L5.33069 9.11387V9.07227L5.92004 7.24928L5.92058 7.24875ZM3.33382 8.9576L5.94084 7.06794L4.31092 5.38202C3.70077 6.56712 3.34129 7.7981 3.33382 8.9576ZM11.6589 5.32548L10.0407 7.0002L12.6659 8.95654L12.6653 8.86587C12.6408 7.66743 12.2819 6.48072 11.6589 5.32548ZM7.84384 1.18348C6.41659 2.28538 5.18882 3.72916 4.37599 5.25775L6.01551 6.9538L7.88811 1.15574C7.87224 1.16295 7.85721 1.1719 7.84331 1.18241L7.84384 1.18348ZM7.97878 1.31148L6.17285 6.901L8.02625 5.55749L8.10518 5.55802L9.78524 6.8098L7.97878 1.31148ZM8.06465 1.14347L9.95431 6.8962L11.5677 5.22681L11.6477 5.30521C11.2907 4.65562 10.8768 4.03897 10.4109 3.46249C9.80315 2.70505 9.12605 2.00599 8.38839 1.37442L8.28012 1.28375L8.16012 1.18614C8.13096 1.16658 8.09867 1.15215 8.06465 1.14347Z" stroke="#151542" stroke-width="0.5" stroke-linejoin="bevel"/>
</svg>