<svg width="16" height="18" viewBox="0 0 16 18" fill="none" xmlns="http://www.w3.org/2000/svg">
<path d="M8.0998 1.00143L8.1068 0.751525L8.1068 0.751525L8.0998 1.00143ZM13.3324 9.1488L13.0825 9.14572L13.3324 9.1488ZM11.5585 14.7287L11.7629 14.8727L11.5585 14.4787V14.7287ZM9.54143 14.7287V14.4787L9.33281 14.5909L9.54143 14.7287ZM8.13606 16.8567L7.92745 16.7189L8.14566 17.1065L8.13606 16.8567ZM4.44105 14.7287V14.4787L4.23667 14.8726L4.44105 14.7287ZM7.90299 16.8578L7.89593 17.1077L7.91326 16.608L7.90299 16.8578ZM7.86406 16.8562L7.65546 16.994L7.85379 17.106L7.86406 16.8562ZM6.45869 14.7287V14.4787L6.2501 14.8664L6.45869 14.7287ZM8.00006 13.7809L8.13396 13.5698H7.86617L8.00006 13.7809ZM6.58723 14.6769L6.45334 14.4658L6.37866 14.8148L6.58723 14.6769ZM8.00059 16.8156L7.79202 16.9535L8.20921 16.9534L8.00059 16.8156ZM9.41289 14.6769L9.62151 14.8147L9.54679 14.4658L9.41289 14.6769ZM11.6124 11.4891H11.8624L11.4784 11.278L11.6124 11.4891ZM10.1804 12.3979L10.0464 12.1869L9.93895 12.333L10.1804 12.3979ZM9.59156 14.5873L9.35014 14.5224L9.59156 14.8373V14.5873ZM11.6124 14.5873V14.8373L11.8624 14.5873H11.6124ZM4.38772 11.4891L4.52168 11.278L4.13772 11.4891H4.38772ZM4.38772 14.5879H4.13772L4.38772 14.8379V14.5879ZM6.40856 14.5879V14.8379L6.64999 14.5229L6.40856 14.5879ZM5.81975 12.3979L6.06117 12.333L5.95371 12.1869L5.81975 12.3979ZM5.98668 12.5035L6.12065 12.2925L5.74527 12.5685L5.98668 12.5035ZM6.53603 14.5457L6.29461 14.6107L6.67004 14.7568L6.53603 14.5457ZM7.86993 13.6988L8.00393 13.9098L8.00389 13.4877L7.86993 13.6988ZM10.0129 12.5035L10.2543 12.5684L9.87896 12.2925L10.0129 12.5035ZM8.1302 13.6982L7.99625 13.4871L7.99619 13.9093L8.1302 13.6982ZM9.46409 14.5452L9.33009 14.7562L9.70552 14.6101L9.46409 14.5452ZM2.80102 9.19201L3.00959 9.05417L2.55105 9.19593L2.80102 9.19201ZM4.25491 14.4503L4.04412 14.5847L4.50491 14.4503H4.25491ZM4.25491 11.3921H4.50491L4.46348 11.2542L4.25491 11.3921ZM13.1986 9.19201L13.4072 9.32979L13.4485 9.19789L13.1986 9.19201ZM11.7457 11.3915L11.5371 11.2537L11.4957 11.3915H11.7457ZM11.7457 14.4497H11.4957L11.9566 14.5841L11.7457 14.4497ZM13.1996 9.14667L13.4496 9.14977L12.9497 9.14079L13.1996 9.14667ZM7.99953 4.3679L8.13191 4.15582L7.86708 4.15587L7.99953 4.3679ZM5.92482 5.66393L5.79237 5.4519L5.68336 5.59913L5.92482 5.66393ZM5.03733 8.9712L4.79587 8.90641L4.7959 9.03609L5.03733 8.9712ZM5.93335 12.3051L5.69192 12.37L5.7994 12.5162L5.93335 12.3051ZM8.00006 13.6166L7.86611 13.8277H8.13401L8.00006 13.6166ZM10.0668 12.3051L10.2007 12.5162L10.3082 12.37L10.0668 12.3051ZM10.9628 8.97173L11.2042 9.03663L11.2043 8.90698L10.9628 8.97173ZM10.0758 5.66393L10.3173 5.59918L10.2082 5.45185L10.0758 5.66393ZM4.968 9.22881L5.20943 9.16393L4.72653 9.16404L4.968 9.22881ZM4.40318 11.3345L4.16172 11.2697L4.26917 11.5455L4.40318 11.3345ZM5.76641 12.2001L5.6324 12.4111L6.00785 12.1352L5.76641 12.2001ZM11.0321 9.22987L11.2736 9.16509L10.7907 9.16495L11.0321 9.22987ZM10.2337 12.199L9.99229 12.1341L10.3675 12.4102L10.2337 12.199ZM11.5969 11.335L11.7308 11.5461L11.8384 11.2702L11.5969 11.335ZM4.29811 6.73542L4.53955 6.67053L4.09011 6.59673L4.29811 6.73542ZM2.81275 8.9632L2.60474 8.82451L2.60415 9.10099L2.81275 8.9632ZM4.29811 11.2118L4.08952 11.3496L4.53957 11.2766L4.29811 11.2118ZM4.89919 8.97173L5.14065 9.03652L5.14063 8.90684L4.89919 8.97173ZM11.7025 6.73595L11.9106 6.59728L11.4611 6.67101L11.7025 6.73595ZM11.1009 8.97227L10.8595 8.90732L10.8595 9.03707L11.1009 8.97227ZM11.702 11.2118L11.4606 11.2766L11.9106 11.3496L11.702 11.2118ZM13.1874 8.9632L13.396 9.10099L13.3954 8.82452L13.1874 8.9632ZM11.7452 3.54975L11.956 3.41532L11.4952 3.54975H11.7452ZM11.7452 6.55621H11.4952L11.5372 6.6949L11.7452 6.55621ZM13.1975 8.73439L12.9895 8.87308L13.4474 8.72895L13.1975 8.73439ZM4.25438 3.54975H4.50438L4.04355 3.4154L4.25438 3.54975ZM2.80048 8.85386L2.5505 8.8507L3.05044 8.85831L2.80048 8.85386ZM2.80262 8.73386L2.5946 8.59519L2.55266 8.72942L2.80262 8.73386ZM4.25438 6.55621L4.46239 6.69489L4.50438 6.55621H4.25438ZM5.75841 5.7674L5.99988 5.83217L5.62594 5.55538L5.75841 5.7674ZM4.40372 6.61382L4.27125 6.4018L4.16228 6.67868L4.40372 6.61382ZM4.968 8.71413L4.72656 8.77899L5.20946 8.7789L4.968 8.71413ZM10.2412 5.7674L10.3736 5.55536L9.99971 5.83218L10.2412 5.7674ZM11.0316 8.71359L10.7901 8.77837L11.273 8.77853L11.0316 8.71359ZM11.5964 6.61382L11.8378 6.67875L11.7288 6.40177L11.5964 6.61382ZM6.39043 3.41215L6.6319 3.47687L6.39043 3.16215V3.41215ZM4.38772 3.41215V3.16215L4.13772 3.41215H4.38772ZM4.38772 6.46021H4.13772L4.52012 6.67227L4.38772 6.46021ZM5.81175 5.57113L5.94415 5.78319L6.05322 5.63585L5.81175 5.57113ZM11.6124 3.41215H11.8624L11.6124 3.16215V3.41215ZM9.60916 3.41215V3.16215L9.3677 3.47693L9.60916 3.41215ZM10.1884 5.57113L9.94691 5.63591L10.056 5.78319L10.1884 5.57113ZM11.6124 6.46021L11.48 6.67227L11.8624 6.46021H11.6124ZM6.52056 3.44415L6.65294 3.23207L6.27912 3.37928L6.52056 3.44415ZM5.97708 5.46712L5.73565 5.40226L6.1095 5.67917L5.97708 5.46712ZM7.86886 4.28576L8.00128 4.49781L8.00124 4.07369L7.86886 4.28576ZM9.47956 3.44415L9.72101 3.37933L9.34728 3.23201L9.47956 3.44415ZM8.13073 4.28523L7.99845 4.0731L7.99831 4.49728L8.13073 4.28523ZM10.0225 5.46659L9.89009 5.67864L10.264 5.40177L10.0225 5.46659ZM8.00006 1.18383L8.20806 1.04513L7.79206 1.04513L8.00006 1.18383ZM6.57816 3.31614L6.37017 3.17744L6.4457 3.52817L6.57816 3.31614ZM7.99953 4.20416L7.86706 4.41618L8.13192 4.41623L7.99953 4.20416ZM9.42196 3.31614L9.55435 3.52821L9.62996 3.17744L9.42196 3.31614ZM8.1366 1.14383L8.34458 1.00511L8.14326 0.893919L8.1366 1.14383ZM9.5553 3.27081L9.34731 3.40953L9.5553 3.52081V3.27081ZM11.5585 3.27081V3.52081L11.7629 3.12679L11.5585 3.27081ZM8.0966 1.14276L8.10326 0.892852L8.08963 1.39267L8.0966 1.14276ZM7.86406 1.14383L7.87366 1.39365L8.04087 0.967087L7.86406 1.14383ZM4.44158 3.27081L4.23727 3.12674L4.44158 3.52081V3.27081ZM6.44483 3.27081V3.52081L6.65282 3.40951L6.44483 3.27081ZM7.86353 1.1433L8.04034 0.966554L7.65553 1.0046L7.86353 1.1433ZM8.0928 1.25133C9.45924 1.28962 10.7147 2.15558 11.6325 3.58627C12.549 5.01487 13.1091 6.9817 13.0825 9.14572L13.5824 9.15189C13.6101 6.90301 13.0292 4.83748 12.0534 3.31629C11.0789 1.79718 9.69081 0.795907 8.1068 0.751525L8.0928 1.25133ZM13.0825 9.14572C13.0558 11.3101 12.4471 13.2431 11.497 14.6176C10.5459 15.9933 9.27254 16.7869 7.90733 16.7487L7.89333 17.2485C9.47911 17.2929 10.8946 16.3683 11.9083 14.9019C12.9228 13.4342 13.5547 11.4009 13.5824 9.15188L13.0825 9.14572ZM7.90733 16.7487C6.54059 16.7104 5.28511 15.8445 4.3674 14.4139C3.45102 12.9854 2.89098 11.0186 2.91766 8.85428L2.4177 8.84812C2.38997 11.0972 2.97076 13.1628 3.94655 14.6839C4.92102 16.203 6.30906 17.2041 7.89333 17.2485L7.90733 16.7487ZM2.91766 8.85428C2.94434 6.6899 3.5529 4.75692 4.50297 3.38243C5.4539 2.00669 6.72731 1.21308 8.0928 1.25133L8.1068 0.751525C6.52076 0.707102 5.1053 1.63167 4.09166 3.09812C3.07716 4.56583 2.44542 6.59907 2.4177 8.84812L2.91766 8.85428ZM11.5585 14.4787H9.54143V14.9787H11.5585V14.4787ZM9.33281 14.5909L7.92745 16.7189L8.34468 16.9945L9.75004 14.8664L9.33281 14.5909ZM8.14566 17.1065C9.56548 17.052 10.8313 16.1949 11.7629 14.8727L11.3542 14.5847C10.482 15.8225 9.34457 16.5601 8.12647 16.6069L8.14566 17.1065ZM6.45976 14.4787H4.44105V14.9787H6.45976V14.4787ZM4.23667 14.8726C5.17441 16.2038 6.45399 17.0669 7.89593 17.1077L7.91006 16.6079C6.67247 16.5729 5.5232 15.8307 4.64543 14.5847L4.23667 14.8726ZM7.91326 16.608L7.87433 16.6064L7.85379 17.106L7.89272 17.1076L7.91326 16.608ZM8.07266 16.7184L6.66729 14.5909L6.2501 14.8664L7.65546 16.994L8.07266 16.7184ZM6.45869 14.9787H6.45976V14.4787H6.45869V14.9787ZM7.86617 13.5698L6.45334 14.4658L6.72112 14.888L8.13396 13.992L7.86617 13.5698ZM6.37866 14.8148L7.79202 16.9535L8.20917 16.6778L6.7958 14.5391L6.37866 14.8148ZM8.20921 16.9534L9.62151 14.8147L9.20427 14.5392L7.79198 16.6779L8.20921 16.9534ZM9.54679 14.4658L8.13396 13.5698L7.86617 13.992L9.279 14.888L9.54679 14.4658ZM11.4784 11.278L10.0464 12.1869L10.3143 12.609L11.7464 11.7002L11.4784 11.278ZM9.93895 12.333L9.35014 14.5224L9.83298 14.6522L10.4218 12.4629L9.93895 12.333ZM9.59156 14.8373H11.6124V14.3373H9.59156V14.8373ZM11.8624 14.5873V11.4891H11.3624V14.5873H11.8624ZM4.13772 11.4891V14.5879H4.63772V11.4891H4.13772ZM4.38772 14.8379H6.40856V14.3379H4.38772V14.8379ZM6.64999 14.5229L6.06117 12.333L5.57832 12.4629L6.16713 14.6528L6.64999 14.5229ZM5.95371 12.1869L4.52168 11.278L4.25376 11.7002L5.68579 12.609L5.95371 12.1869ZM5.74527 12.5685L6.29461 14.6107L6.77745 14.4808L6.2281 12.4386L5.74527 12.5685ZM6.67004 14.7568L8.00393 13.9098L7.73592 13.4877L6.40202 14.3347L6.67004 14.7568ZM8.00389 13.4877L6.12065 12.2925L5.85272 12.7146L7.73596 13.9098L8.00389 13.4877ZM9.87896 12.2925L7.99625 13.4871L8.26415 13.9093L10.1469 12.7146L9.87896 12.2925ZM7.99619 13.9093L9.33009 14.7562L9.5981 14.3341L8.2642 13.4872L7.99619 13.9093ZM9.70552 14.6101L10.2543 12.5684L9.77148 12.4386L9.22266 14.4803L9.70552 14.6101ZM2.55105 9.19593C2.58368 11.2734 3.14144 13.169 4.04412 14.5847L4.46571 14.3158C3.61902 12.988 3.08235 11.1853 3.05098 9.18808L2.55105 9.19593ZM4.50491 14.4503V11.3921H4.00491V14.4503H4.50491ZM4.46348 11.2542L3.00959 9.05417L2.59244 9.32984L4.04634 11.5299L4.46348 11.2542ZM12.99 9.05422L11.5371 11.2537L11.9543 11.5293L13.4072 9.32979L12.99 9.05422ZM11.4957 11.3915V14.4497H11.9957V11.3915H11.4957ZM11.9566 14.5841C12.8626 13.1629 13.4235 11.2542 13.4496 9.14977L12.9497 9.14357C12.9246 11.1672 12.3847 12.9824 11.5349 14.3153L11.9566 14.5841ZM12.9497 9.14079L12.9486 9.18612L13.4485 9.19789L13.4496 9.15255L12.9497 9.14079ZM7.86708 4.15587L5.79237 5.4519L6.05727 5.87596L8.13198 4.57993L7.86708 4.15587ZM5.68336 5.59913L4.79587 8.90641L5.27879 9.03599L6.16627 5.72872L5.68336 5.59913ZM4.7959 9.03609L5.69192 12.37L6.17478 12.2403L5.27876 8.90631L4.7959 9.03609ZM5.7994 12.5162L7.86611 13.8277L8.13401 13.4055L6.0673 12.0941L5.7994 12.5162ZM8.13401 13.8277L10.2007 12.5162L9.93282 12.0941L7.86611 13.4055L8.13401 13.8277ZM10.3082 12.37L11.2042 9.03663L10.7214 8.90684L9.82534 12.2402L10.3082 12.37ZM11.2043 8.90698L10.3173 5.59918L9.83437 5.72868L10.7213 9.03648L11.2043 8.90698ZM10.2082 5.45185L8.13191 4.15582L7.86715 4.57998L9.94346 5.876L10.2082 5.45185ZM4.72653 9.16404L4.16172 11.2697L4.64465 11.3992L5.20946 9.29358L4.72653 9.16404ZM4.26917 11.5455L5.6324 12.4111L5.90042 11.989L4.53719 11.1234L4.26917 11.5455ZM6.00785 12.1352L5.20943 9.16393L4.72656 9.29368L5.52498 12.2649L6.00785 12.1352ZM10.7907 9.16495L9.99229 12.1341L10.4751 12.2639L11.2736 9.29479L10.7907 9.16495ZM10.3675 12.4102L11.7308 11.5461L11.4631 11.1238L10.0999 11.9878L10.3675 12.4102ZM11.8384 11.2702L11.2736 9.16509L10.7907 9.29466L11.3555 11.3998L11.8384 11.2702ZM4.09011 6.59673L2.60474 8.82451L3.02075 9.10189L4.50612 6.8741L4.09011 6.59673ZM2.60415 9.10099L4.08952 11.3496L4.50671 11.074L3.02135 8.8254L2.60415 9.10099ZM4.53957 11.2766L5.14065 9.03652L4.65774 8.90694L4.05666 11.147L4.53957 11.2766ZM5.14063 8.90684L4.53955 6.67053L4.05668 6.80031L4.65776 9.03662L5.14063 8.90684ZM11.4611 6.67101L10.8595 8.90732L11.3423 9.03721L11.944 6.8009L11.4611 6.67101ZM10.8595 9.03707L11.4606 11.2766L11.9435 11.147L11.3424 8.90746L10.8595 9.03707ZM11.9106 11.3496L13.396 9.10099L12.9788 8.8254L11.4934 11.074L11.9106 11.3496ZM13.3954 8.82452L11.9106 6.59728L11.4945 6.87463L12.9794 9.10187L13.3954 8.82452ZM11.4952 3.54975V6.55621H11.9952V3.54975H11.4952ZM11.5372 6.6949L12.9895 8.87308L13.4055 8.59571L11.9532 6.41753L11.5372 6.6949ZM13.4474 8.72895C13.4029 6.68178 12.8477 4.81346 11.956 3.41532L11.5344 3.68418C12.3707 4.99543 12.9047 6.77198 12.9476 8.73984L13.4474 8.72895ZM4.04355 3.4154C3.13753 4.83718 2.57715 6.7458 2.5505 8.8507L3.05046 8.85703C3.07609 6.83277 3.61546 5.01758 4.46521 3.6841L4.04355 3.4154ZM3.05044 8.85831L3.05258 8.73831L2.55266 8.72942L2.55052 8.84942L3.05044 8.85831ZM3.01063 8.87254L4.46239 6.69489L4.04637 6.41754L2.5946 8.59519L3.01063 8.87254ZM4.50438 6.55621V3.54975H4.00438V6.55621H4.50438ZM5.62594 5.55538L4.27125 6.4018L4.53619 6.82583L5.89088 5.97942L5.62594 5.55538ZM4.16228 6.67868L4.72656 8.77899L5.20943 8.64926L4.64516 6.54895L4.16228 6.67868ZM5.20946 8.7789L5.99988 5.83217L5.51695 5.70263L4.72653 8.64936L5.20946 8.7789ZM9.99971 5.83218L10.7901 8.77837L11.2731 8.64881L10.4826 5.70262L9.99971 5.83218ZM11.273 8.77853L11.8378 6.67875L11.355 6.54888L10.7902 8.64866L11.273 8.77853ZM11.7288 6.40177L10.3736 5.55536L10.1087 5.97944L11.464 6.82586L11.7288 6.40177ZM6.39043 3.16215H4.38772V3.66215H6.39043V3.16215ZM4.13772 3.41215V6.46021H4.63772V3.41215H4.13772ZM4.52012 6.67227L5.94415 5.78319L5.67935 5.35906L4.25532 6.24815L4.52012 6.67227ZM6.05322 5.63585L6.6319 3.47687L6.14895 3.34742L5.57027 5.5064L6.05322 5.63585ZM11.6124 3.16215H9.60916V3.66215H11.6124V3.16215ZM9.3677 3.47693L9.94691 5.63591L10.4298 5.50635L9.85062 3.34737L9.3677 3.47693ZM10.056 5.78319L11.48 6.67227L11.7448 6.24815L10.3208 5.35906L10.056 5.78319ZM11.8624 6.46021V3.41215H11.3624V6.46021H11.8624ZM6.27912 3.37928L5.73565 5.40226L6.21852 5.53199L6.762 3.50901L6.27912 3.37928ZM6.1095 5.67917L8.00128 4.49781L7.73644 4.07371L5.84467 5.25507L6.1095 5.67917ZM8.00124 4.07369L6.65294 3.23207L6.38818 3.65622L7.73648 4.49784L8.00124 4.07369ZM9.34728 3.23201L7.99845 4.0731L8.26301 4.49737L9.61184 3.65628L9.34728 3.23201ZM7.99831 4.49728L9.89009 5.67864L10.1549 5.25454L8.26315 4.07318L7.99831 4.49728ZM10.264 5.40177L9.72101 3.37933L9.23811 3.50897L9.78105 5.53141L10.264 5.40177ZM7.79206 1.04513L6.37017 3.17744L6.78616 3.45484L8.20806 1.32253L7.79206 1.04513ZM6.4457 3.52817L7.86706 4.41618L8.13199 3.99214L6.71063 3.10412L6.4457 3.52817ZM8.13192 4.41623L9.55435 3.52821L9.28957 3.10408L7.86714 3.9921L8.13192 4.41623ZM9.62996 3.17744L8.20806 1.04513L7.79206 1.32253L9.21396 3.45484L9.62996 3.17744ZM7.92862 1.28255L9.34731 3.40953L9.76328 3.13209L8.34458 1.00511L7.92862 1.28255ZM9.5553 3.52081H11.5585V3.02081H9.5553V3.52081ZM11.7629 3.12679C10.8252 1.79624 9.54556 0.933044 8.10356 0.892861L8.08963 1.39267C9.32715 1.42715 10.4764 2.16932 11.3542 3.41483L11.7629 3.12679ZM8.08993 1.39267L8.12993 1.39374L8.14326 0.893919L8.10326 0.892852L8.08993 1.39267ZM7.85446 0.894015C6.43522 0.948557 5.16889 1.80562 4.23727 3.12674L4.64589 3.41488C5.51805 2.17808 6.65604 1.44044 7.87366 1.39365L7.85446 0.894015ZM4.44158 3.52081H6.44483V3.02081H4.44158V3.52081ZM6.65282 3.40951L8.07152 1.282L7.65553 1.0046L6.23683 3.13211L6.65282 3.40951ZM7.68671 1.32004L7.68725 1.32057L8.04087 0.967087L8.04034 0.966554L7.68671 1.32004Z" fill="#151542"/>
</svg>