<svg width="16" height="18" viewBox="0 0 16 18" fill="none" xmlns="http://www.w3.org/2000/svg">
<path d="M7.9303 17L7.6803 17L7.9303 17.25L7.9303 17ZM7.9303 16.912L8.1803 16.912L7.99607 16.6708L7.9303 16.912ZM7.8567 16.8709L7.68988 17.0575L7.6993 17.0652L7.8567 16.8709ZM7.8215 16.8395L7.64768 17.0194L7.65488 17.0259L7.8215 16.8395ZM7.77456 16.7941L7.59659 16.9698L7.60088 16.9739L7.77456 16.7941ZM7.61136 16.6288L7.43047 16.8014L7.43344 16.8044L7.61136 16.6288ZM7.45563 16.4656L7.27334 16.6367L7.27476 16.6382L7.45563 16.4656ZM7.37403 16.3787L7.18944 16.5473L7.19175 16.5498L7.37403 16.3787ZM7.20496 16.1936L7.0192 16.3609L7.02039 16.3622L7.20496 16.1936ZM5.38736 13.8683L5.17897 14.0064L5.18014 14.0081L5.38736 13.8683ZM5.2375 13.6421L5.02291 13.7709L5.02911 13.7802L5.2375 13.6421ZM5.2183 13.6101L5.43267 13.4815L4.99209 13.7166L5.2183 13.6101ZM5.22256 13.6192L5.01329 13.756L5.44876 13.5127L5.22256 13.6192ZM3.55963 10.4357L3.32618 10.5252L3.32689 10.527L3.55963 10.4357ZM3.46683 10.1936L3.23167 10.2786L3.23339 10.2831L3.46683 10.1936ZM3.40283 10.0165L3.1674 10.1006L3.16772 10.1015L3.40283 10.0165ZM2.6711 6.2672L2.42111 6.27117L2.42118 6.27367L2.6711 6.2672ZM2.66683 5.99893L2.41674 5.99505L2.41686 6.00291L2.66683 5.99893ZM2.66896 5.86133L2.41905 5.85387L2.41899 5.85746L2.66896 5.86133ZM2.73456 5.20427L2.48881 5.15819L2.48813 5.16218L2.73456 5.20427ZM2.76656 5.0336L2.52238 4.97934L2.52084 4.98753L2.76656 5.0336ZM2.7879 4.9376L2.54435 4.88113L2.54385 4.88337L2.7879 4.9376ZM13.214 4.944L13.4585 4.8917L13.4576 4.88763L13.214 4.944ZM13.2354 5.04373L13.4805 4.99468L13.4798 4.99144L13.2354 5.04373ZM13.2359 5.0464L13.4814 4.99892L13.481 4.99735L13.2359 5.0464ZM13.261 5.176L13.507 5.13177L13.5064 5.12853L13.261 5.176ZM13.277 5.26773L13.0307 5.31069L13.0415 5.35168L13.277 5.26773ZM13.2812 5.296L13.0347 5.33763L13.531 5.3067L13.2812 5.296ZM13.3324 5.8608L13.5825 5.85949L13.5823 5.85326L13.3324 5.8608ZM13.3335 6.06507L13.5829 6.08227L13.5835 6.06376L13.3335 6.06507ZM13.3324 6.08053L13.0827 6.06331L13.0825 6.07621L13.3324 6.08053ZM13.3292 6.2656L13.5792 6.27196L13.5792 6.26992L13.3292 6.2656ZM12.6684 9.81227L12.9043 9.89527L12.905 9.89296L12.6684 9.81227ZM12.534 10.1941L12.7677 10.2833L12.7699 10.2771L12.534 10.1941ZM12.5228 10.2235L12.2893 10.1343L12.2887 10.1358L12.5228 10.2235ZM10.9068 13.4176L11.117 13.553L11.1177 13.552L10.9068 13.4176ZM10.7698 13.6304L10.5596 13.495L10.9465 13.8072L10.7698 13.6304ZM10.7751 13.6251L10.9846 13.7614L10.5983 13.4483L10.7751 13.6251ZM10.7463 13.6693L10.9549 13.8072L10.9558 13.8057L10.7463 13.6693ZM10.685 13.7621L10.893 13.9007L10.8935 13.9L10.685 13.7621ZM8.70203 16.296L8.88515 16.4662L8.88658 16.4646L8.70203 16.296ZM8.54043 16.4699L8.7208 16.643L8.72355 16.6401L8.54043 16.4699ZM8.38683 16.6299L8.56405 16.8063L8.56718 16.803L8.38683 16.6299ZM8.16176 16.856L8.33015 17.0412L8.33896 17.0324L8.16176 16.856ZM8.0711 16.9083L7.99531 16.67L7.8211 16.9083L8.0711 16.9083ZM8.0711 17L8.0711 17.25L8.3211 17L8.0711 17ZM8.0711 3.54293L7.8211 3.54293L8.14804 3.7808L8.0711 3.54293ZM11.517 2.42827L11.5939 2.66613L11.68 2.23878L11.517 2.42827ZM8.0711 1.14293L8.07413 0.892952L7.8211 1.14293L8.0711 1.14293ZM7.9303 3.54293L7.85335 3.7808L8.1803 3.54293L7.9303 3.54293ZM7.9303 1.14293L8.1803 1.14293L7.9303 0.892932L7.9303 1.14293ZM7.89563 1.14293L7.89563 0.892889L7.89093 0.892978L7.89563 1.14293ZM4.48443 2.42827L4.32129 2.23883L4.40749 2.66613L4.48443 2.42827ZM2.87803 5.2016L2.63222 5.15604L2.93379 5.4453L2.87803 5.2016ZM6.24603 4.43093L6.30179 4.67464L6.42183 4.25319L6.24603 4.43093ZM4.3463 2.552L4.5221 2.37425L4.17645 2.36855L4.3463 2.552ZM2.9255 4.9696L2.68196 4.9131L2.68168 4.91435L2.9255 4.9696ZM2.90096 5.07787L2.65695 5.02257L2.65515 5.03231L2.90096 5.07787ZM13.1218 5.192L13.3701 5.16279L13.367 5.14336L13.1218 5.192ZM13.0962 5.06293L13.3414 5.01429L13.3408 5.01152L13.0962 5.06293ZM11.6562 2.55253L11.8262 2.36923L11.4803 2.37481L11.6562 2.55253ZM9.7575 4.43093L9.58167 4.25321L9.70173 4.67463L9.7575 4.43093ZM13.1228 5.20107L13.0671 5.44477L13.3711 5.17186L13.1228 5.20107ZM9.59963 4.38773L9.42291 4.2109L9.77545 4.56546L9.59963 4.38773ZM11.3852 2.62133L11.561 2.79906L11.3083 2.38345L11.3852 2.62133ZM8.18256 3.65653L8.10567 3.41865L8.06803 3.87875L8.18256 3.65653ZM9.60016 4.3872L9.77688 4.56403L9.7147 4.16498L9.60016 4.3872ZM6.40283 4.38667L6.22704 4.56442L6.5174 4.60887L6.40283 4.38667ZM7.8199 3.656L7.93447 3.8782L7.89676 3.41811L7.8199 3.656ZM4.61776 2.62133L4.69463 2.38344L4.44197 2.79909L4.61776 2.62133ZM8.07056 11.9493L7.82056 11.9493L8.26133 12.1109L8.07056 11.9493ZM9.49403 10.2688L9.68479 10.4304L9.73755 10.3253L9.49403 10.2688ZM10.3644 6.51947L10.608 6.576L10.5961 6.42561L10.3644 6.51947ZM9.55643 4.5248L9.78814 4.43094L9.67106 4.30263L9.55643 4.5248ZM8.0711 3.7584L8.18573 3.53623L7.8211 3.75838L8.0711 3.7584ZM7.9303 11.9477L7.73958 12.1094L8.1803 11.9477L7.9303 11.9477ZM7.9303 3.75947L8.1803 3.75947L7.81576 3.53725L7.9303 3.75947ZM6.4455 4.5248L6.33096 4.30258L6.21383 4.43083L6.4455 4.5248ZM5.63643 6.51947L5.40476 6.4255L5.39291 6.57603L5.63643 6.51947ZM6.50736 10.2688L6.26385 10.3254L6.31664 10.4304L6.50736 10.2688ZM10.4764 6.42133L10.2447 6.51514L10.5772 6.65013L10.4764 6.42133ZM12.9868 5.31573L13.0876 5.54453L13.0426 5.07203L12.9868 5.31573ZM9.7271 4.57013L9.78284 4.32643L9.49536 4.66394L9.7271 4.57013ZM5.52443 6.42027L5.42364 6.64905L5.7561 6.51423L5.52443 6.42027ZM6.27483 4.57013L6.5065 4.6641L6.21905 4.32643L6.27483 4.57013ZM3.01723 5.31573L2.96145 5.07203L2.91644 5.54451L3.01723 5.31573ZM3.48496 9.82293L3.24854 9.90421L3.69916 9.95184L3.48496 9.82293ZM5.4567 6.54667L5.6709 6.67558L5.55752 6.3179L5.4567 6.54667ZM2.84763 5.3968L2.94845 5.16803L2.59982 5.36382L2.84763 5.3968ZM2.8103 5.84373L2.5604 5.83484L2.56032 5.84026L2.8103 5.84373ZM2.80763 6.03573L2.55743 6.03226L2.55773 6.04287L2.80763 6.03573ZM2.8087 6.07307L3.05875 6.07128L3.05859 6.06592L2.8087 6.07307ZM3.46736 9.77173L3.23073 9.85238L3.23094 9.85301L3.46736 9.77173ZM12.5164 9.82133L12.7524 9.904L12.7307 9.69247L12.5164 9.82133ZM12.4652 9.96747L12.2293 9.8848L12.7006 10.0516L12.4652 9.96747ZM13.1884 6.26187L13.4384 6.26808L13.4384 6.26609L13.1884 6.26187ZM13.1916 6.07253L12.9418 6.06183L12.9417 6.06831L13.1916 6.07253ZM13.1932 6.0352L13.4432 6.04591L13.4432 6.0352L13.1932 6.0352ZM13.1532 5.39733L13.4011 5.36455L13.0524 5.16856L13.1532 5.39733ZM10.5463 6.54613L10.4455 6.31736L10.3321 6.675L10.5463 6.54613ZM9.6487 10.2229L9.47186 10.0462L9.67555 10.4715L9.6487 10.2229ZM12.4135 9.92427L12.4403 10.1728L12.6277 9.7954L12.4135 9.92427ZM10.469 6.69173L10.6832 6.56287L10.2254 6.63519L10.469 6.69173ZM9.64923 10.2224L9.82606 10.3991L9.89275 10.2789L9.64923 10.2224ZM6.35216 10.2229L6.32529 10.4715L6.59568 10.1664L6.35216 10.2229ZM5.53243 6.6944L5.77594 6.63783L5.3182 6.56553L5.53243 6.6944ZM3.5895 9.92427L3.37527 9.7954L3.56263 10.1728L3.5895 9.92427ZM5.4039 13.6389L5.19588 13.7776L5.64409 13.7083L5.4039 13.6389ZM6.34896 10.3653L6.58915 10.4347L6.37582 10.1168L6.34896 10.3653ZM3.5703 10.0651L3.59716 9.81651L3.33417 10.1472L3.5703 10.0651ZM3.57456 10.0773L3.3384 10.1595L3.33984 10.1634L3.57456 10.0773ZM3.60976 10.1733L3.37504 10.2594L3.37568 10.2611L3.60976 10.1733ZM5.19323 13.3136L4.98211 13.4475L4.98307 13.449L5.19323 13.3136ZM5.3719 13.5909L5.16171 13.7263L5.16388 13.7296L5.3719 13.5909ZM10.5986 13.6363L10.3584 13.7057L10.8071 13.7742L10.5986 13.6363ZM10.6631 13.5387L10.8716 13.6766L10.8732 13.6741L10.6631 13.5387ZM10.7964 13.3317L11.0066 13.4671L11.0075 13.4658L10.7964 13.3317ZM12.3106 10.3835L12.5433 10.4748L12.5442 10.4724L12.3106 10.3835ZM12.3906 10.1733L12.6242 10.2623L12.6253 10.2593L12.3906 10.1733ZM12.43 10.0656L12.6648 10.1516L12.4032 9.81704L12.43 10.0656ZM9.6535 10.3653L9.62666 10.1168L9.41332 10.4347L9.6535 10.3653ZM10.4418 13.6011L10.3083 13.8125L10.6819 13.5317L10.4418 13.6011ZM9.52976 10.4448L9.76994 10.3754L9.33895 10.2833L9.52976 10.4448ZM8.1063 12.1264L7.91548 11.9649L7.97282 12.3378L8.1063 12.1264ZM5.56176 13.6011L5.32156 13.5317L5.69528 13.8124L5.56176 13.6011ZM7.89616 12.1264L8.02968 12.3378L8.08687 11.9648L7.89616 12.1264ZM6.47216 10.4464L6.66287 10.2848L6.23196 10.3771L6.47216 10.4464ZM8.07056 16.7477L7.82056 16.7477L8.24777 16.9241L8.07056 16.7477ZM8.28656 16.5307L8.46381 16.707L8.46724 16.7035L8.28656 16.5307ZM8.43856 16.3717L8.61924 16.5445L8.62041 16.5433L8.43856 16.3717ZM8.5175 16.2875L8.70056 16.4577L8.70203 16.4561L8.5175 16.2875ZM8.68176 16.1077L8.8663 16.2764L8.86631 16.2764L8.68176 16.1077ZM8.85403 15.9152L9.04105 16.0811L9.04166 16.0804L8.85403 15.9152ZM10.4183 13.9045L10.6246 14.0458L10.6257 14.0442L10.4183 13.9045ZM10.4898 13.7984L10.6971 13.938L10.6232 13.587L10.4898 13.7984ZM8.07056 12.2715L8.204 12.0601L7.82056 12.2715L8.07056 12.2715ZM7.9303 16.7467L8.10711 16.9234L8.1803 16.7467L7.9303 16.7467ZM7.9303 12.2736L8.1803 12.2736L7.79693 12.0621L7.9303 12.2736ZM5.5111 13.7995L5.37773 13.588L5.30398 13.9395L5.5111 13.7995ZM7.13243 15.8992L6.94458 16.0642L6.94541 16.0651L7.13243 15.8992ZM7.30843 16.0976L7.12141 16.2635L7.12261 16.2648L7.30843 16.0976ZM7.47643 16.2811L7.29311 16.4511L7.29456 16.4526L7.47643 16.2811ZM7.6359 16.4501L7.45401 16.6217L7.45676 16.6245L7.6359 16.4501ZM7.83163 16.6512L7.65243 16.8256L7.65705 16.8301L7.83163 16.6512ZM7.9191 16.7365L8.09752 16.5613L8.09368 16.5576L7.9191 16.7365ZM7.92976 16.7472L7.75461 16.9256L8.10658 16.9239L7.92976 16.7472ZM8.1803 17L8.1803 16.912L7.6803 16.912L7.6803 17L8.1803 17ZM7.99607 16.6708C7.9973 16.6711 8.00041 16.6721 8.0046 16.6737C8.00887 16.6754 8.01281 16.6772 8.0161 16.679C8.02219 16.6824 8.02251 16.6835 8.01409 16.6767L7.6993 17.0652C7.74984 17.1061 7.79953 17.1355 7.86452 17.1532L7.99607 16.6708ZM8.02331 16.6845L7.98811 16.6531L7.65488 17.0259L7.69008 17.0573L8.02331 16.6845ZM7.99518 16.6596L7.94825 16.6143L7.60088 16.9739L7.64781 17.0193L7.99518 16.6596ZM7.95248 16.6185L7.78928 16.4532L7.43344 16.8044L7.59664 16.9698L7.95248 16.6185ZM7.79223 16.4562L7.63649 16.293L7.27476 16.6382L7.4305 16.8014L7.79223 16.4562ZM7.63791 16.2945L7.55631 16.2076L7.19175 16.5498L7.27335 16.6367L7.63791 16.2945ZM7.5586 16.21L7.38954 16.025L7.02039 16.3622L7.18945 16.5473L7.5586 16.21ZM7.39072 16.0263C6.73926 15.3031 6.13909 14.5352 5.59459 13.7284L5.18014 14.0081C5.73766 14.8342 6.35218 15.6204 7.01921 16.3609L7.39072 16.0263ZM5.59575 13.7302L5.44589 13.504L5.02911 13.7802L5.17897 14.0064L5.59575 13.7302ZM5.45187 13.5135L5.43267 13.4815L5.00392 13.7388L5.02312 13.7708L5.45187 13.5135ZM4.99209 13.7166L4.99636 13.7257L5.44876 13.5127L5.4445 13.5037L4.99209 13.7166ZM5.43184 13.4824C4.75224 12.4425 4.20152 11.3878 3.79237 10.3445L3.32689 10.527C3.74974 11.6053 4.31689 12.6903 5.01329 13.756L5.43184 13.4824ZM3.79307 10.3463L3.70027 10.1041L3.23339 10.2831L3.32619 10.5252L3.79307 10.3463ZM3.70194 10.1086L3.63794 9.93155L3.16772 10.1015L3.23172 10.2786L3.70194 10.1086ZM3.63826 9.93244C3.19129 8.68112 2.95172 7.44757 2.92101 6.26073L2.42118 6.27367C2.4534 7.51883 2.7045 8.80475 3.1674 10.1006L3.63826 9.93244ZM2.92106 6.26322L2.9168 5.99496L2.41686 6.00291L2.42113 6.27117L2.92106 6.26322ZM2.9168 6.00281L2.91893 5.86521L2.41899 5.85746L2.41686 5.99506L2.9168 6.00281ZM2.91885 5.8688C2.92508 5.66012 2.94585 5.45214 2.981 5.24636L2.48813 5.16218C2.44907 5.39086 2.426 5.62198 2.41907 5.85387L2.91885 5.8688ZM2.98028 5.25034L3.01228 5.07967L2.52084 4.98753L2.48884 5.15819L2.98028 5.25034ZM3.01061 5.08783L3.03194 4.99183L2.54385 4.88337L2.52252 4.97937L3.01061 5.08783ZM3.03144 4.99406C3.53105 2.83917 5.58631 1.25 8.0007 1.25L8.0007 0.75C5.37295 0.749999 3.10074 2.48136 2.54436 4.88113L3.03144 4.99406ZM8.0007 1.25C10.4144 1.25 12.4703 2.83901 12.9705 5.00037L13.4576 4.88763C12.9007 2.48152 10.6281 0.75 8.0007 0.75L8.0007 1.25ZM12.9696 4.99629L12.9909 5.09603L13.4798 4.99144L13.4585 4.89171L12.9696 4.99629ZM12.9902 5.09278L12.9908 5.09545L13.481 4.99735L13.4805 4.99469L12.9902 5.09278ZM12.9904 5.09387L13.0155 5.22347L13.5064 5.12853L13.4813 4.99893L12.9904 5.09387ZM13.0147 5.21896L13.0307 5.31069L13.5232 5.22478L13.5072 5.13304L13.0147 5.21896ZM13.0415 5.35168C13.0339 5.3304 13.0305 5.30787 13.0315 5.2853L13.531 5.3067C13.5328 5.26492 13.5265 5.22318 13.5124 5.18379L13.0415 5.35168ZM13.5277 5.25437L13.5075 5.13437L13.0145 5.21763L13.0347 5.33763L13.5277 5.25437ZM13.0149 5.22022C13.0534 5.4343 13.076 5.65093 13.0825 5.86834L13.5823 5.85326C13.575 5.61124 13.5499 5.37009 13.507 5.13178L13.0149 5.22022ZM13.0824 5.86211L13.0835 6.06637L13.5835 6.06376L13.5824 5.8595L13.0824 5.86211ZM13.0841 6.04787L13.083 6.06333L13.5818 6.09773L13.5829 6.08227L13.0841 6.04787ZM13.0825 6.07621L13.0793 6.26128L13.5792 6.26992L13.5824 6.08486L13.0825 6.07621ZM13.0793 6.25924C13.0507 7.38468 12.8346 8.55057 12.4318 9.73157L12.905 9.89296C13.3226 8.66863 13.5491 7.45265 13.5791 6.27196L13.0793 6.25924ZM12.4326 9.72927L12.2982 10.1111L12.7699 10.2771L12.9043 9.89526L12.4326 9.72927ZM12.3005 10.105L12.2893 10.1343L12.7564 10.3126L12.7676 10.2833L12.3005 10.105ZM12.2887 10.1358C11.8986 11.177 11.366 12.2319 10.696 13.2832L11.1177 13.552C11.8044 12.4743 12.3534 11.3883 12.7569 10.3112L12.2887 10.1358ZM10.6967 13.2822L10.5596 13.495L10.9799 13.7658L11.117 13.553L10.6967 13.2822ZM10.9465 13.8072L10.9519 13.8018L10.5983 13.4483L10.593 13.4536L10.9465 13.8072ZM10.5655 13.4887L10.5367 13.533L10.9558 13.8057L10.9846 13.7614L10.5655 13.4887ZM10.5377 13.5315L10.4764 13.6243L10.8935 13.9L10.9549 13.8072L10.5377 13.5315ZM10.4769 13.6235C9.88848 14.5068 9.23343 15.3439 8.51748 16.1274L8.88658 16.4646C9.61971 15.6624 10.2905 14.8052 10.893 13.9007L10.4769 13.6235ZM8.51891 16.1258L8.35731 16.2997L8.72355 16.6401L8.88515 16.4662L8.51891 16.1258ZM8.36008 16.2967L8.20648 16.4567L8.56718 16.803L8.72078 16.643L8.36008 16.2967ZM8.20963 16.4535L7.98457 16.6796L8.33896 17.0324L8.56402 16.8062L8.20963 16.4535ZM7.99358 16.671C7.99408 16.6706 7.99467 16.6702 7.99531 16.67L8.14688 17.1465C8.21478 17.1249 8.27722 17.0889 8.32994 17.041L7.99358 16.671ZM7.8211 16.9083L7.8211 17L8.3211 17L8.3211 16.9083L7.8211 16.9083ZM8.0711 16.75L7.9303 16.75L7.9303 17.25L8.0711 17.25L8.0711 16.75ZM8.14804 3.7808L11.5939 2.66613L11.44 2.1904L7.99415 3.30507L8.14804 3.7808ZM11.68 2.23878C10.7211 1.41349 9.45122 0.909671 8.07413 0.892952L8.06806 1.39292C9.3267 1.4082 10.4835 1.86864 11.3539 2.61775L11.68 2.23878ZM7.8211 1.14293L7.8211 3.54293L8.3211 3.54293L8.3211 1.14293L7.8211 1.14293ZM8.1803 3.54293L8.1803 1.14293L7.6803 1.14293L7.6803 3.54293L8.1803 3.54293ZM7.9303 0.892932L7.89563 0.892932L7.89563 1.39293L7.9303 1.39293L7.9303 0.892932ZM7.89093 0.892978C6.52788 0.918611 5.27191 1.42018 4.32129 2.23883L4.64757 2.6177C5.51029 1.87475 6.65431 1.41632 7.90033 1.39289L7.89093 0.892978ZM4.40749 2.66613L7.85335 3.7808L8.00724 3.30507L4.56138 2.1904L4.40749 2.66613ZM2.93379 5.4453L6.30179 4.67464L6.19027 4.18723L2.82227 4.9579L2.93379 5.4453ZM6.42183 4.25319L4.5221 2.37425L4.1705 2.72975L6.07023 4.60868L6.42183 4.25319ZM4.17645 2.36855C3.44452 3.04621 2.91211 3.92104 2.68196 4.9131L3.16903 5.0261C3.37515 4.13763 3.85288 3.34952 4.51614 2.73545L4.17645 2.36855ZM2.68168 4.91435L2.65714 5.02261L3.14478 5.13312L3.16931 5.02485L2.68168 4.91435ZM2.65515 5.03231L2.63222 5.15604L3.12384 5.24716L3.14678 5.12342L2.65515 5.03231ZM13.367 5.14336L13.3414 5.01429L12.8509 5.11157L12.8765 5.24064L13.367 5.14336ZM13.3408 5.01152C13.1242 3.98054 12.5816 3.06979 11.8262 2.36923L11.4862 2.73584C12.1708 3.37074 12.6575 4.19119 12.8515 5.11435L13.3408 5.01152ZM11.4803 2.37481L9.58167 4.25321L9.93332 4.60866L11.832 2.73026L11.4803 2.37481ZM9.70173 4.67463L13.0671 5.44477L13.1786 4.95737L9.81327 4.18723L9.70173 4.67463ZM13.3711 5.17186L13.3701 5.16279L12.8735 5.22121L12.8745 5.23027L13.3711 5.17186ZM9.77545 4.56546L11.561 2.79906L11.2094 2.4436L9.42381 4.21L9.77545 4.56546ZM11.3083 2.38345L8.10567 3.41865L8.25945 3.89442L11.4621 2.85922L11.3083 2.38345ZM8.06803 3.87875L9.48563 4.60942L9.7147 4.16498L8.2971 3.43431L8.06803 3.87875ZM9.42344 4.21037L9.42291 4.2109L9.77635 4.56457L9.77688 4.56403L9.42344 4.21037ZM6.5174 4.60887L7.93447 3.8782L7.70533 3.4338L6.28826 4.16447L6.5174 4.60887ZM7.89676 3.41811L4.69463 2.38344L4.5409 2.85922L7.74303 3.89389L7.89676 3.41811ZM4.44197 2.79909L6.22704 4.56442L6.57862 4.20891L4.79356 2.44358L4.44197 2.79909ZM8.26133 12.1109L9.68479 10.4304L9.30327 10.1072L7.8798 11.7877L8.26133 12.1109ZM9.73755 10.3253L10.608 6.576L10.1209 6.46293L9.25051 10.2123L9.73755 10.3253ZM10.5961 6.42561L9.78814 4.43094L9.32472 4.61866L10.1327 6.61333L10.5961 6.42561ZM9.67106 4.30263L8.18573 3.53623L7.95646 3.98057L9.4418 4.74697L9.67106 4.30263ZM7.8211 3.75838L7.82056 11.9493L8.32056 11.9493L8.3211 3.75842L7.8211 3.75838ZM8.1803 11.9477L8.1803 3.75947L7.6803 3.75947L7.6803 11.9477L8.1803 11.9477ZM7.81576 3.53725L6.33096 4.30258L6.56004 4.74702L8.04484 3.98168L7.81576 3.53725ZM6.21383 4.43083L5.40476 6.4255L5.8681 6.61343L6.67716 4.61877L6.21383 4.43083ZM5.39291 6.57603L6.26385 10.3254L6.75088 10.2122L5.87995 6.4629L5.39291 6.57603ZM6.31664 10.4304L7.73958 12.1094L8.12101 11.7861L6.69808 10.1072L6.31664 10.4304ZM10.5772 6.65013L13.0876 5.54453L12.8861 5.08694L10.3757 6.19254L10.5772 6.65013ZM13.0426 5.07203L9.78284 4.32643L9.67135 4.81384L12.9311 5.55944L13.0426 5.07203ZM9.49536 4.66394L10.2447 6.51514L10.7082 6.32753L9.95883 4.47633L9.49536 4.66394ZM5.7561 6.51423L6.5065 4.6641L6.04316 4.47617L5.29276 6.3263L5.7561 6.51423ZM6.21905 4.32643L2.96145 5.07203L3.07301 5.55943L6.33061 4.81383L6.21905 4.32643ZM2.91644 5.54451L5.42364 6.64905L5.62522 6.19148L3.11802 5.08695L2.91644 5.54451ZM3.69916 9.95184L5.6709 6.67558L5.2425 6.41776L3.27076 9.69402L3.69916 9.95184ZM5.55752 6.3179L2.94845 5.16803L2.74681 5.62557L5.35587 6.77543L5.55752 6.3179ZM2.59982 5.36382C2.57898 5.52036 2.56606 5.67721 2.56045 5.83484L3.06014 5.85262C3.0652 5.71052 3.07681 5.56977 3.09544 5.42978L2.59982 5.36382ZM2.56032 5.84026L2.55765 6.03226L3.05761 6.0392L3.06027 5.8472L2.56032 5.84026ZM2.55773 6.04287L2.5588 6.08021L3.05859 6.06592L3.05753 6.02859L2.55773 6.04287ZM2.5587 6.07485C2.56745 7.30231 2.79368 8.57 3.23073 9.85238L3.704 9.69108C3.28238 8.454 3.06701 7.23955 3.05869 6.07128L2.5587 6.07485ZM3.23094 9.85301L3.24854 9.90421L3.72138 9.74166L3.70378 9.69046L3.23094 9.85301ZM12.2805 9.73867L12.2293 9.8848L12.7012 10.0501L12.7524 9.904L12.2805 9.73867ZM12.7006 10.0516C13.1587 8.77023 13.4078 7.49966 13.4384 6.26808L12.9385 6.25566C12.9094 7.42834 12.672 8.64631 12.2298 9.88331L12.7006 10.0516ZM13.4384 6.26609L13.4416 6.07676L12.9417 6.06831L12.9385 6.25764L13.4384 6.26609ZM13.4414 6.08324L13.443 6.0459L12.9435 6.0245L12.9419 6.06183L13.4414 6.08324ZM13.4432 6.0352L13.4432 5.99893L12.9432 5.99893L12.9432 6.0352L13.4432 6.0352ZM13.4432 5.99893C13.4432 5.7872 13.4291 5.57678 13.4011 5.36455L12.9054 5.43012C12.9307 5.62109 12.9432 5.8096 12.9432 5.99893L13.4432 5.99893ZM13.0524 5.16856L10.4455 6.31736L10.6471 6.7749L13.254 5.62611L13.0524 5.16856ZM10.3321 6.675L12.3022 9.9502L12.7307 9.69247L10.7605 6.41727L10.3321 6.675ZM9.67555 10.4715L12.4403 10.1728L12.3866 9.67571L9.62185 9.97438L9.67555 10.4715ZM12.6277 9.7954L10.6832 6.56287L10.2547 6.8206L12.1993 10.0531L12.6277 9.7954ZM10.2254 6.63519L9.40571 10.1659L9.89275 10.2789L10.7125 6.74827L10.2254 6.63519ZM9.4724 10.0457L9.47186 10.0462L9.82553 10.3997L9.82606 10.3991L9.4724 10.0457ZM6.59568 10.1664L5.77594 6.63783L5.28891 6.75097L6.10865 10.2795L6.59568 10.1664ZM5.3182 6.56553L3.37527 9.7954L3.80372 10.0531L5.74666 6.82327L5.3182 6.56553ZM3.56263 10.1728L6.32529 10.4715L6.37903 9.97438L3.61637 9.67571L3.56263 10.1728ZM5.64409 13.7083L6.58915 10.4347L6.10877 10.296L5.1637 13.5696L5.64409 13.7083ZM6.37582 10.1168L3.59716 9.81651L3.54344 10.3136L6.3221 10.6139L6.37582 10.1168ZM3.33417 10.1472L3.33843 10.1595L3.81069 9.99521L3.80642 9.98294L3.33417 10.1472ZM3.33984 10.1634L3.37504 10.2594L3.84448 10.0873L3.80928 9.99127L3.33984 10.1634ZM3.37568 10.2611C3.7743 11.3241 4.31515 12.396 4.98212 13.4475L5.40434 13.1797C4.75397 12.1544 4.22922 11.1132 3.84384 10.0856L3.37568 10.2611ZM4.98307 13.449L5.16173 13.7263L5.58206 13.4555L5.40339 13.1782L4.98307 13.449ZM5.16388 13.7296L5.19588 13.7776L5.61191 13.5003L5.57991 13.4523L5.16388 13.7296ZM10.8071 13.7742L10.8716 13.6766L10.4546 13.4008L10.39 13.4984L10.8071 13.7742ZM10.8732 13.6741L11.0066 13.4671L10.5863 13.1963L10.4529 13.4033L10.8732 13.6741ZM11.0075 13.4658C11.636 12.476 12.1518 11.4719 12.5433 10.4748L12.0779 10.2921C11.6992 11.2567 11.1984 12.2323 10.5854 13.1977L11.0075 13.4658ZM12.5442 10.4724L12.6242 10.2623L12.1569 10.0844L12.0769 10.2945L12.5442 10.4724ZM12.6253 10.2593L12.6648 10.1516L12.1953 9.9796L12.1558 10.0873L12.6253 10.2593ZM12.4032 9.81704L9.62666 10.1168L9.68033 10.6139L12.4569 10.3142L12.4032 9.81704ZM9.41332 10.4347L10.3584 13.7057L10.8387 13.5669L9.89367 10.2959L9.41332 10.4347ZM10.6819 13.5317L9.76994 10.3754L9.28959 10.5142L10.2016 13.6705L10.6819 13.5317ZM9.33895 10.2833L7.91548 11.9649L8.29711 12.2879L9.72058 10.6063L9.33895 10.2833ZM7.97282 12.3378L10.3083 13.8125L10.5752 13.3897L8.23977 11.915L7.97282 12.3378ZM5.69528 13.8124L8.02968 12.3378L7.76264 11.915L5.42824 13.3897L5.69528 13.8124ZM8.08687 11.9648L6.66287 10.2848L6.28145 10.608L7.70545 12.288L8.08687 11.9648ZM6.23196 10.3771L5.32156 13.5317L5.80196 13.6704L6.71236 10.5157L6.23196 10.3771ZM8.24777 16.9241L8.46377 16.707L8.10935 16.3543L7.89335 16.5714L8.24777 16.9241ZM8.46724 16.7035L8.61924 16.5445L8.25789 16.1989L8.10589 16.3579L8.46724 16.7035ZM8.62041 16.5433C8.64723 16.5149 8.67394 16.4863 8.70055 16.4577L8.33444 16.1172C8.30863 16.145 8.28272 16.1726 8.25671 16.2002L8.62041 16.5433ZM8.70203 16.4561L8.8663 16.2764L8.49722 15.9391L8.33296 16.1188L8.70203 16.4561ZM8.86631 16.2764C8.92439 16.2128 8.98289 16.1467 9.04105 16.0811L8.66701 15.7493C8.60783 15.816 8.55221 15.8789 8.49721 15.9391L8.86631 16.2764ZM9.04166 16.0804C9.61004 15.4349 10.1386 14.7554 10.6246 14.0458L10.212 13.7633C9.73754 14.4562 9.22138 15.1197 8.6664 15.75L9.04166 16.0804ZM10.6257 14.0442L10.6971 13.938L10.2824 13.6588L10.2109 13.7649L10.6257 14.0442ZM10.6232 13.587L8.204 12.0601L7.93713 12.4829L10.3563 14.0098L10.6232 13.587ZM7.82056 12.2715L7.82056 16.7477L8.32056 16.7477L8.32056 12.2715L7.82056 12.2715ZM8.1803 16.7467L8.1803 12.2736L7.6803 12.2736L7.6803 16.7467L8.1803 16.7467ZM7.79693 12.0621L5.37773 13.588L5.64447 14.0109L8.06367 12.4851L7.79693 12.0621ZM5.30398 13.9395C5.80559 14.6815 6.35355 15.3912 6.94458 16.0642L7.32027 15.7342C6.74312 15.077 6.20804 14.3841 5.71821 13.6595L5.30398 13.9395ZM6.94541 16.0651L7.12141 16.2635L7.49545 15.9317L7.31945 15.7333L6.94541 16.0651ZM7.12261 16.2648C7.1814 16.3302 7.23835 16.392 7.29311 16.4511L7.65975 16.1111C7.6057 16.0528 7.55065 15.993 7.49425 15.9304L7.12261 16.2648ZM7.29456 16.4526L7.45403 16.6217L7.81776 16.2786L7.65829 16.1095L7.29456 16.4526ZM7.45676 16.6245L7.65249 16.8256L8.01077 16.4768L7.81503 16.2757L7.45676 16.6245ZM7.65705 16.8301L7.74451 16.9155L8.09368 16.5576L8.00621 16.4723L7.65705 16.8301ZM7.74071 16.9117C7.74531 16.9164 7.74994 16.921 7.75461 16.9256L8.10492 16.5688C8.10241 16.5664 8.09993 16.5639 8.09748 16.5614L7.74071 16.9117ZM8.10658 16.9239L8.10711 16.9234L7.75348 16.5699L7.75294 16.5705L8.10658 16.9239Z" fill="#151542"/>
</svg>