<svg width="18" height="18" viewBox="0 0 18 18" fill="none" xmlns="http://www.w3.org/2000/svg">
<path d="M1 16.923H0.75H1ZM3.335 14.775V14.525L3.15827 14.5982L3.335 14.775ZM1.264 16.845L1.08727 16.6682L1.264 17.095V16.845ZM16.736 16.845V17.095L16.9128 16.6682L16.736 16.845ZM14.666 14.775L14.8428 14.5982L14.666 14.525V14.775ZM1.154 1.263L1.33082 1.08627L0.904 1.263H1.154ZM1.154 16.737H0.904L1.33082 16.9137L1.154 16.737ZM3.225 14.665L3.40182 14.8417L3.475 14.665H3.225ZM3.225 3.335H3.475L3.40182 3.15827L3.225 3.335ZM16.8455 1.264H17.0955L16.6687 1.08722L16.8455 1.264ZM14.7755 3.334L14.5987 3.15722L14.5255 3.334H14.7755ZM14.7755 14.666H14.5255L14.5987 14.8428L14.7755 14.666ZM16.8455 16.736L16.6687 16.9128L17.0955 16.736H16.8455ZM12.2645 12.374V12.624L12.5145 12.374H12.2645ZM5.735 12.374V12.124L5.55824 12.1972L5.735 12.374ZM3.4885 14.62L3.31174 14.4432L3.4885 14.87V14.62ZM14.5115 14.62V14.87L14.6883 14.4432L14.5115 14.62ZM12.2645 12.373L12.4413 12.1962L12.0145 12.373H12.2645ZM3.3795 3.488L3.55632 3.31126L3.1295 3.488H3.3795ZM3.3795 14.511H3.1295L3.5563 14.6878L3.3795 14.511ZM5.626 12.264L5.8028 12.4408L5.876 12.264H5.626ZM5.626 5.7355H5.876L5.80282 5.55876L5.626 5.7355ZM14.6205 3.488H14.8705L14.4437 3.31124L14.6205 3.488ZM12.373 5.736L12.1962 5.55924L12.123 5.736H12.373ZM12.373 12.263H12.123L12.1962 12.4398L12.373 12.263ZM14.6205 14.511L14.4437 14.6878L14.8705 14.511H14.6205ZM12.219 5.7805L12.469 5.78052L12.219 5.5305V5.7805ZM5.78 5.7805V5.5305L5.53 5.7805H5.78ZM5.78 12.2185H5.53L5.78 12.4685V12.2185ZM12.2185 12.2185V12.4685L12.4685 12.2185L12.2185 12.2185ZM14.5115 3.3785L14.6883 3.55528L14.5115 3.1285V3.3785ZM3.4885 3.3785V3.1285L3.31172 3.55528L3.4885 3.3785ZM5.736 5.626L5.55922 5.80278L5.736 5.876V5.626ZM12.264 5.626V5.876L12.4408 5.80278L12.264 5.626ZM16.7365 1.1535L16.9133 1.33023L16.7365 0.9035V1.1535ZM1.2635 1.1535V0.9035L1.08668 1.33023L1.2635 1.1535ZM3.334 3.225L3.15718 3.40173L3.334 3.475V3.225ZM14.666 3.225V3.475L14.8428 3.40173L14.666 3.225ZM16.923 1.25C16.8264 1.25 16.75 1.17201 16.75 1.077H17.25C17.25 0.897989 17.1046 0.75 16.923 0.75V1.25ZM16.75 1.077V16.923H17.25V1.077H16.75ZM16.75 16.923C16.75 16.8264 16.828 16.75 16.923 16.75V17.25C17.102 17.25 17.25 17.1046 17.25 16.923H16.75ZM16.923 16.75H1.077V17.25H16.923V16.75ZM1.077 16.75C1.12288 16.75 1.16688 16.7682 1.19933 16.8007L0.845776 17.1542C0.907102 17.2156 0.990277 17.25 1.077 17.25V16.75ZM1.19933 16.8007C1.23177 16.8331 1.25 16.8771 1.25 16.923H0.75C0.75 17.0097 0.784454 17.0929 0.845776 17.1542L1.19933 16.8007ZM1.25 16.923V1.077H0.75V16.923H1.25ZM1.25 1.077C1.25 1.17307 1.17307 1.25 1.077 1.25V0.75C0.896929 0.75 0.75 0.896929 0.75 1.077H1.25ZM1.077 1.25H16.923V0.75H1.077V1.25ZM14.665 14.525H3.335V15.025H14.665V14.525ZM3.15827 14.5982L1.08727 16.6682L1.44073 17.0218L3.51173 14.9518L3.15827 14.5982ZM1.264 17.095H16.736V16.595H1.264V17.095ZM16.9128 16.6682L14.8428 14.5982L14.4892 14.9518L16.5592 17.0218L16.9128 16.6682ZM14.666 14.525H14.665V15.025H14.666V14.525ZM0.904 1.263V16.737H1.404V1.263H0.904ZM1.33082 16.9137L3.40182 14.8417L3.04818 14.4883L0.977181 16.5603L1.33082 16.9137ZM3.475 14.665V3.335H2.975V14.665H3.475ZM3.40182 3.15827L1.33082 1.08627L0.977181 1.43973L3.04818 3.51173L3.40182 3.15827ZM16.6687 1.08722L14.5987 3.15722L14.9523 3.51078L17.0223 1.44078L16.6687 1.08722ZM14.5255 3.334V14.666H15.0255V3.334H14.5255ZM14.5987 14.8428L16.6687 16.9128L17.0223 16.5592L14.9523 14.4892L14.5987 14.8428ZM17.0955 16.736V1.264H16.5955V16.736H17.0955ZM12.2645 12.124H5.735V12.624H12.2645V12.124ZM5.55824 12.1972L3.31174 14.4432L3.66526 14.7968L5.91176 12.5508L5.55824 12.1972ZM3.4885 14.87H14.5115V14.37H3.4885V14.87ZM14.6883 14.4432L12.4413 12.1962L12.0877 12.5498L14.3347 14.7968L14.6883 14.4432ZM12.0145 12.373V12.374H12.5145V12.373H12.0145ZM3.1295 3.488V14.511H3.6295V3.488H3.1295ZM3.5563 14.6878L5.8028 12.4408L5.4492 12.0872L3.2027 14.3342L3.5563 14.6878ZM5.876 12.264V5.7355H5.376V12.264H5.876ZM5.80282 5.55876L3.55632 3.31126L3.20268 3.66474L5.44918 5.91224L5.80282 5.55876ZM14.4437 3.31124L12.1962 5.55924L12.5498 5.91276L14.7973 3.66476L14.4437 3.31124ZM12.123 5.736V12.263H12.623V5.736H12.123ZM12.1962 12.4398L14.4437 14.6878L14.7973 14.3342L12.5498 12.0862L12.1962 12.4398ZM14.8705 14.511V3.488H14.3705V14.511H14.8705ZM12.219 5.5305H5.78V6.0305H12.219V5.5305ZM5.53 5.7805V12.2185H6.03V5.7805H5.53ZM5.78 12.4685H12.2185V11.9685H5.78V12.4685ZM12.4685 12.2185L12.469 5.78052L11.969 5.78048L11.9685 12.2185L12.4685 12.2185ZM14.5115 3.1285H3.4885V3.6285H14.5115V3.1285ZM3.31172 3.55528L5.55922 5.80278L5.91278 5.44922L3.66528 3.20172L3.31172 3.55528ZM5.736 5.876H12.264V5.376H5.736V5.876ZM12.4408 5.80278L14.6883 3.55528L14.3347 3.20172L12.0872 5.44922L12.4408 5.80278ZM16.7365 0.9035H1.2635V1.4035H16.7365V0.9035ZM1.08668 1.33023L3.15718 3.40173L3.51082 3.04827L1.44032 0.976766L1.08668 1.33023ZM3.334 3.475H14.666V2.975H3.334V3.475ZM14.8428 3.40173L16.9133 1.33023L16.5597 0.976766L14.4892 3.04827L14.8428 3.40173Z" fill="#151542"/>
</svg>