<svg width="16" height="16" viewBox="0 0 16 16" fill="none" xmlns="http://www.w3.org/2000/svg">
<path d="M12.0365 0.5L12.1305 0.268335L12.0365 0.25V0.5ZM12.0895 0.5215L12.2636 0.342131L12.1835 0.289835L12.0895 0.5215ZM13.978 2.355L14.2082 2.25759L14.1521 2.17563L13.978 2.355ZM14 2.407H14.25L14.2302 2.30959L14 2.407ZM14 13.518L14.2302 13.6154L14.25 13.518H14ZM13.978 13.57L14.1521 13.7494L14.2082 13.6674L13.978 13.57ZM12.012 15.4785L12.1052 15.7105L12.1861 15.6579L12.012 15.4785ZM11.9585 15.5V15.75L12.0517 15.732L11.9585 15.5ZM3.9635 15.5L3.87028 15.732L3.9635 15.75V15.5ZM3.91 15.4785L3.73586 15.6579L3.81678 15.7105L3.91 15.4785ZM2.022 13.6455L1.79176 13.7429L1.84786 13.8249L2.022 13.6455ZM2 13.5935H1.75L1.76976 13.6909L2 13.5935ZM2 2.4825L1.76976 2.38509L1.75 2.4825H2ZM2.022 2.4305L1.84784 2.25114L1.79176 2.33309L2.022 2.4305ZM3.988 0.5215L3.89478 0.28953L3.81384 0.342142L3.988 0.5215ZM4.0415 0.5V0.25L3.94828 0.26803L4.0415 0.5ZM10.763 13.957L10.963 13.807L10.763 13.707V13.957ZM5.181 13.957V13.707L4.98242 13.8051L5.181 13.957ZM4.113 15.3535L3.91442 15.2016L4.113 15.6035V15.3535ZM11.81 15.3535V15.6035L12.01 15.2035L11.81 15.3535ZM3.795 12.6785L3.96921 12.4992L3.66936 12.4624L3.795 12.6785ZM2.196 13.608L2.07036 13.3919L2.02182 13.7873L2.196 13.608ZM3.954 15.3155L3.77982 15.4948L4.15261 15.4673L3.954 15.3155ZM5.043 13.891L5.24161 14.0428L5.21721 13.7117L5.043 13.891ZM12.204 12.6245L12.3276 12.4072L12.0298 12.4452L12.204 12.6245ZM10.9 13.8915L10.7258 13.7122L10.7 14.0416L10.9 13.8915ZM11.9675 15.314L11.7675 15.4641L12.1416 15.4934L11.9675 15.314ZM13.802 13.533L13.9761 13.7124L13.9256 13.3157L13.802 13.533ZM8 12.591L8.11018 12.3666L7.89159 12.3657L8 12.591ZM5.465 13.811L5.35659 13.5857L5.465 14.061V13.811ZM10.485 13.811V14.061L10.5952 13.5866L10.485 13.811ZM10.308 12.264L10.5501 12.2018L10.2741 12.0163L10.308 12.264ZM8.244 12.5465L8.2101 12.2988L8.13385 12.7709L8.244 12.5465ZM10.689 13.7465L10.5789 13.9709L10.9311 13.6843L10.689 13.7465ZM5.691 12.264L5.72517 12.0163L5.45089 12.1944L5.691 12.264ZM5.2615 13.7455L5.02139 13.6759L5.36992 13.9708L5.2615 13.7455ZM7.7495 12.548L7.85792 12.7733L7.78367 12.3003L7.7495 12.548ZM5.529 12.2815L5.76913 12.3511L5.4751 12.0374L5.529 12.2815ZM3.9575 12.6285L3.9036 12.3844L3.78332 12.8078L3.9575 12.6285ZM5.1055 13.7435L4.93132 13.9228L5.34563 13.8131L5.1055 13.7435ZM10.4665 12.277L10.5135 12.0315L10.2244 12.3393L10.4665 12.277ZM10.843 13.7405L10.6009 13.8028L11.0172 13.9198L10.843 13.7405ZM12.0395 12.578L12.2137 12.7573L12.0865 12.3325L12.0395 12.578ZM2.1505 2.61L2.27405 2.39266L1.9005 2.61H2.1505ZM2.1505 13.464H1.9005L2.27611 13.6802L2.1505 13.464ZM3.732 12.545L3.85761 12.7612L3.982 12.545H3.732ZM3.732 3.509H3.982L3.85555 3.29166L3.732 3.509ZM13.849 2.536L13.9746 2.75214L14.099 2.536H13.849ZM12.268 3.455L12.1424 3.23886L12.018 3.455H12.268ZM12.268 12.4915H12.018L12.1444 12.7088L12.268 12.4915ZM13.849 13.3905L13.7254 13.6078L14.099 13.3905H13.849ZM5.163 8.376L5.41165 8.35007L4.92377 8.30342L5.163 8.376ZM3.9155 12.488L3.67627 12.4154L3.96943 12.7321L3.9155 12.488ZM5.554 12.126L5.60793 12.3701L5.80265 12.1001L5.554 12.126ZM10.838 8.376L11.077 8.30265L10.5894 8.34999L10.838 8.376ZM10.446 12.124L10.1974 12.098L10.399 12.3695L10.446 12.124ZM12.0845 12.4375L12.0375 12.683L12.3235 12.3641L12.0845 12.4375ZM8.0635 3.5645L8.08403 3.31534L8.04345 3.31531L8.0635 3.5645ZM5.5535 3.7665L5.53345 3.51731L5.30405 3.74997L5.5535 3.7665ZM5.2735 7.9925L5.02405 7.97597L5.02485 8.01844L5.2735 7.9925ZM5.704 12.1185L5.45535 12.1444L5.66954 12.3661L5.704 12.1185ZM7.989 12.4365L7.95454 12.6841L8.02315 12.6842L7.989 12.4365ZM10.2955 12.1185L10.3296 12.3662L10.5441 12.1445L10.2955 12.1185ZM10.7265 8.0035L10.9751 8.02954L10.9762 7.99071L10.7265 8.0035ZM10.5095 3.766L10.7592 3.75321L10.53 3.51684L10.5095 3.766ZM3.8825 3.9695L4.1215 3.89615L3.6325 3.9695H3.8825ZM3.8825 12.079H3.6325L4.12174 12.1516L3.8825 12.079ZM5.1195 8L5.35874 8.07255L5.3585 7.92665L5.1195 8ZM12.1175 3.921L12.3675 3.92102L11.8783 3.84842L12.1175 3.921ZM10.88 8L10.6408 7.92742L10.641 8.07334L10.88 8ZM12.117 12.031L11.878 12.1043L12.367 12.031L12.117 12.031ZM3.913 3.556L3.94724 3.30836L3.67401 3.62937L3.913 3.556ZM5.1505 7.587L4.91151 7.66037L5.39996 7.60347L5.1505 7.587ZM5.403 3.762L5.65246 3.77847L5.43724 3.51436L5.403 3.762ZM12.0855 3.5065L12.3247 3.57905L12.0418 3.26035L12.0855 3.5065ZM10.6605 3.7595L10.6168 3.51335L10.4108 3.77219L10.6605 3.7595ZM10.854 7.5675L10.6043 7.58019L11.0932 7.64005L10.854 7.5675ZM5.298 2.2455L5.40609 2.02008L5.05195 2.28979L5.298 2.2455ZM5.5455 3.6205L5.29945 3.66479L5.56561 3.86969L5.5455 3.6205ZM7.788 3.4395L7.80811 3.68869L7.89609 3.21408L7.788 3.4395ZM10.7655 2.247L11.0116 2.291L10.6553 2.02258L10.7655 2.247ZM8.335 3.44L8.22484 3.21558L8.31447 3.68916L8.335 3.44ZM10.52 3.62L10.4995 3.86916L10.7661 3.664L10.52 3.62ZM5.149 2.267L5.39505 2.22275L4.97482 2.08766L5.149 2.267ZM3.967 3.415L3.79282 3.23566L3.93266 3.66263L3.967 3.415ZM5.391 3.6125L5.35666 3.86013L5.63705 3.56825L5.391 3.6125ZM10.9135 2.2745L11.0877 2.09519L10.6674 2.2304L10.9135 2.2745ZM10.6745 3.608L10.4284 3.5639L10.7181 3.85417L10.6745 3.608ZM12.0375 3.3665L12.0811 3.61267L12.2117 3.18719L12.0375 3.3665ZM10.55 2.189L10.6601 2.41344L10.55 1.939V2.189ZM5.52 2.189V1.939L5.41188 2.41441L5.52 2.189ZM8.0635 3.409L7.95538 3.63441L8.17362 3.63344L8.0635 3.409ZM4.032 0.685L4.23192 0.534899L3.85783 0.505652L4.032 0.685ZM2.197 2.467L2.02283 2.28765L2.07349 2.68436L2.197 2.467ZM3.795 3.375L3.67149 3.59236L3.96918 3.55433L3.795 3.375ZM5.1 2.1075L5.27418 2.28683L5.29992 1.9574L5.1 2.1075ZM12.0445 0.685L12.2186 0.505616L11.8459 0.533099L12.0445 0.685ZM10.9555 2.1085L10.7569 1.9566L10.7813 2.28784L10.9555 2.1085ZM12.2045 3.3215L12.0303 3.50084L12.3302 3.53762L12.2045 3.3215ZM13.803 2.392L13.9287 2.60812L13.9771 2.21262L13.803 2.392ZM11.8865 0.6465L12.0851 0.79836L11.8865 0.3965V0.6465ZM4.19 0.6465V0.3965L3.99003 0.796546L4.19 0.6465ZM5.2375 2.0425L5.03753 2.19255L5.2375 2.2925V2.0425ZM10.819 2.0425V2.2925L11.0176 2.19436L10.819 2.0425ZM11.9425 0.731665L11.9955 0.753165L12.1835 0.289835L12.1305 0.268335L11.9425 0.731665ZM11.9154 0.700869L13.8039 2.53437L14.1521 2.17563L12.2636 0.342131L11.9154 0.700869ZM13.7478 2.45241L13.7698 2.50441L14.2302 2.30959L14.2082 2.25759L13.7478 2.45241ZM13.75 2.407V13.518H14.25V2.407H13.75ZM13.7698 13.4206L13.7478 13.4726L14.2082 13.6674L14.2302 13.6154L13.7698 13.4206ZM13.8039 13.3906L11.8379 15.2991L12.1861 15.6579L14.1521 13.7494L13.8039 13.3906ZM11.9188 15.2465L11.8653 15.268L12.0517 15.732L12.1052 15.7105L11.9188 15.2465ZM11.9585 15.25H3.9635V15.75H11.9585V15.25ZM4.05672 15.268L4.00322 15.2465L3.81678 15.7105L3.87028 15.732L4.05672 15.268ZM4.08415 15.2991L2.19614 13.4661L1.84786 13.8249L3.73586 15.6579L4.08415 15.2991ZM2.25224 13.5481L2.23024 13.4961L1.76976 13.6909L1.79176 13.7429L2.25224 13.5481ZM2.25 13.5935V2.4825H1.75V13.5935H2.25ZM2.23024 2.57991L2.25224 2.52791L1.79176 2.33309L1.76976 2.38509L2.23024 2.57991ZM2.19616 2.60986L4.16216 0.700858L3.81384 0.342142L1.84784 2.25114L2.19616 2.60986ZM4.08122 0.753469L4.13472 0.73197L3.94828 0.26803L3.89478 0.28953L4.08122 0.753469ZM4.0415 0.75H12.0365V0.25H4.0415V0.75ZM10.763 13.707H5.181V14.207H10.763V13.707ZM4.98242 13.8051L3.91442 15.2016L4.31158 15.5054L5.37958 14.1089L4.98242 13.8051ZM4.113 15.6035H11.81V15.1035H4.113V15.6035ZM12.01 15.2035L10.963 13.807L10.563 14.107L11.61 15.5035L12.01 15.2035ZM3.66936 12.4624L2.07036 13.3919L2.32164 13.8241L3.92064 12.8946L3.66936 12.4624ZM2.02182 13.7873L3.77982 15.4948L4.12818 15.1362L2.37018 13.4287L2.02182 13.7873ZM4.15261 15.4673L5.24161 14.0428L4.84439 13.7392L3.75539 15.1637L4.15261 15.4673ZM5.21721 13.7117L3.96921 12.4992L3.62079 12.8578L4.86879 14.0703L5.21721 13.7117ZM12.0298 12.4452L10.7258 13.7122L11.0742 14.0708L12.3782 12.8038L12.0298 12.4452ZM10.7 14.0416L11.7675 15.4641L12.1675 15.1639L11.1 13.7414L10.7 14.0416ZM12.1416 15.4934L13.9761 13.7124L13.6279 13.3536L11.7934 15.1346L12.1416 15.4934ZM13.9256 13.3157L12.3276 12.4072L12.0804 12.8418L13.6784 13.7503L13.9256 13.3157ZM7.89159 12.3657L5.35659 13.5857L5.57341 14.0363L8.10841 12.8163L7.89159 12.3657ZM5.465 14.061H10.485V13.561H5.465V14.061ZM10.5952 13.5866L8.11018 12.3666L7.88983 12.8154L10.3748 14.0354L10.5952 13.5866ZM10.2741 12.0163L8.2101 12.2988L8.2779 12.7942L10.3419 12.5117L10.2741 12.0163ZM8.13385 12.7709L10.5789 13.9709L10.7991 13.5221L8.35415 12.3221L8.13385 12.7709ZM10.9311 13.6843L10.5501 12.2018L10.0659 12.3262L10.4469 13.8087L10.9311 13.6843ZM5.45089 12.1944L5.02139 13.6759L5.50161 13.8151L5.93111 12.3336L5.45089 12.1944ZM5.36992 13.9708L7.85792 12.7733L7.64108 12.3227L5.15308 13.5202L5.36992 13.9708ZM7.78367 12.3003L5.72517 12.0163L5.65683 12.5117L7.71533 12.7957L7.78367 12.3003ZM5.4751 12.0374L3.9036 12.3844L4.0114 12.8726L5.5829 12.5256L5.4751 12.0374ZM3.78332 12.8078L4.93132 13.9228L5.27968 13.5642L4.13168 12.4492L3.78332 12.8078ZM5.34563 13.8131L5.76913 12.3511L5.28887 12.2119L4.86537 13.6739L5.34563 13.8131ZM10.2244 12.3393L10.6009 13.8028L11.0851 13.6782L10.7086 12.2147L10.2244 12.3393ZM11.0172 13.9198L12.2137 12.7573L11.8653 12.3987L10.6688 13.5612L11.0172 13.9198ZM12.0865 12.3325L10.5135 12.0315L10.4195 12.5225L11.9925 12.8235L12.0865 12.3325ZM1.9005 2.61V13.464H2.4005V2.61H1.9005ZM2.27611 13.6802L3.85761 12.7612L3.60639 12.3288L2.02489 13.2478L2.27611 13.6802ZM3.982 12.545V3.509H3.482V12.545H3.982ZM3.85555 3.29166L2.27405 2.39266L2.02695 2.82734L3.60845 3.72634L3.85555 3.29166ZM13.7234 2.31986L12.1424 3.23886L12.3936 3.67114L13.9746 2.75214L13.7234 2.31986ZM12.018 3.455V12.4915H12.518V3.455H12.018ZM12.1444 12.7088L13.7254 13.6078L13.9726 13.1732L12.3916 12.2742L12.1444 12.7088ZM14.099 13.3905V2.535H13.599V13.3905H14.099ZM13.599 2.535V2.536H14.099V2.535H13.599ZM4.92377 8.30342L3.67627 12.4154L4.15473 12.5606L5.40223 8.44858L4.92377 8.30342ZM3.96943 12.7321L5.60793 12.3701L5.50007 11.8819L3.86157 12.2439L3.96943 12.7321ZM5.80265 12.1001L5.41165 8.35007L4.91435 8.40193L5.30535 12.1519L5.80265 12.1001ZM10.5894 8.34999L10.1974 12.098L10.6946 12.15L11.0866 8.40201L10.5894 8.34999ZM10.399 12.3695L12.0375 12.683L12.1315 12.192L10.493 11.8785L10.399 12.3695ZM12.3235 12.3641L11.077 8.30265L10.599 8.44935L11.8455 12.5108L12.3235 12.3641ZM8.04345 3.31531L5.53345 3.51731L5.57355 4.01569L8.08356 3.81369L8.04345 3.31531ZM5.30405 3.74997L5.02405 7.97597L5.52295 8.00903L5.80295 3.78303L5.30405 3.74997ZM5.02485 8.01844L5.45535 12.1444L5.95265 12.0926L5.52215 7.96656L5.02485 8.01844ZM5.66954 12.3661L7.95454 12.6841L8.02346 12.1889L5.73846 11.8709L5.66954 12.3661ZM8.02315 12.6842L10.3296 12.3662L10.2614 11.8708L7.95486 12.1888L8.02315 12.6842ZM10.5441 12.1445L10.9751 8.02954L10.4779 7.97746L10.0469 12.0925L10.5441 12.1445ZM10.9762 7.99071L10.7592 3.75321L10.2598 3.77879L10.4768 8.01628L10.9762 7.99071ZM10.53 3.51684L8.08403 3.31534L8.04298 3.81366L10.489 4.01516L10.53 3.51684ZM3.6325 3.9695V12.079H4.1325V3.9695H3.6325ZM4.12174 12.1516L5.35874 8.07255L4.88026 7.92745L3.64326 12.0064L4.12174 12.1516ZM5.3585 7.92665L4.1215 3.89615L3.6435 4.04285L4.8805 8.07335L5.3585 7.92665ZM11.8783 3.84842L10.6408 7.92742L11.1192 8.07258L12.3567 3.99358L11.8783 3.84842ZM10.641 8.07334L11.878 12.1043L12.356 11.9577L11.119 7.92666L10.641 8.07334ZM12.367 12.031L12.3675 3.92102L11.8675 3.92098L11.867 12.031L12.367 12.031ZM3.67401 3.62937L4.91151 7.66037L5.38949 7.51363L4.15199 3.48263L3.67401 3.62937ZM5.39996 7.60347L5.65246 3.77847L5.15354 3.74553L4.90104 7.57053L5.39996 7.60347ZM5.43724 3.51436L3.94724 3.30836L3.87876 3.80364L5.36876 4.00964L5.43724 3.51436ZM12.0418 3.26035L10.6168 3.51335L10.7042 4.00565L12.1292 3.75265L12.0418 3.26035ZM10.4108 3.77219L10.6043 7.58019L11.1037 7.55481L10.9102 3.74681L10.4108 3.77219ZM11.0932 7.64005L12.3247 3.57905L11.8463 3.43395L10.6148 7.49495L11.0932 7.64005ZM5.05195 2.28979L5.29945 3.66479L5.79155 3.57621L5.54405 2.20121L5.05195 2.28979ZM5.56561 3.86969L7.80811 3.68869L7.76789 3.19031L5.52539 3.37131L5.56561 3.86969ZM7.89609 3.21408L5.40609 2.02008L5.18991 2.47092L7.67991 3.66492L7.89609 3.21408ZM10.6553 2.02258L8.22484 3.21558L8.44516 3.66442L10.8757 2.47142L10.6553 2.02258ZM8.31447 3.68916L10.4995 3.86916L10.5405 3.37084L8.35553 3.19084L8.31447 3.68916ZM10.7661 3.664L11.0116 2.291L10.5194 2.203L10.2739 3.576L10.7661 3.664ZM4.97482 2.08766L3.79282 3.23566L4.14118 3.59434L5.32318 2.44634L4.97482 2.08766ZM3.93266 3.66263L5.35666 3.86013L5.42534 3.36487L4.00134 3.16737L3.93266 3.66263ZM5.63705 3.56825L5.39505 2.22275L4.90295 2.31125L5.14495 3.65675L5.63705 3.56825ZM10.6674 2.2304L10.4284 3.5639L10.9206 3.6521L11.1596 2.3186L10.6674 2.2304ZM10.7181 3.85417L12.0811 3.61267L11.9939 3.12033L10.6309 3.36183L10.7181 3.85417ZM12.2117 3.18719L11.0877 2.09519L10.7393 2.45381L11.8633 3.54581L12.2117 3.18719ZM10.55 1.939H5.52V2.439H10.55V1.939ZM5.41188 2.41441L7.95538 3.63441L8.17162 3.18359L5.62812 1.96359L5.41188 2.41441ZM8.17362 3.63344L10.6601 2.41344L10.4399 1.96456L7.95338 3.18456L8.17362 3.63344ZM3.85783 0.505652L2.02283 2.28765L2.37117 2.64635L4.20617 0.864348L3.85783 0.505652ZM2.07349 2.68436L3.67149 3.59236L3.91851 3.15764L2.32051 2.24964L2.07349 2.68436ZM3.96918 3.55433L5.27418 2.28683L4.92582 1.92817L3.62082 3.19567L3.96918 3.55433ZM5.29992 1.9574L4.23192 0.534899L3.83208 0.835101L4.90008 2.2576L5.29992 1.9574ZM11.8459 0.533099L10.7569 1.9566L11.1541 2.2604L12.2431 0.836901L11.8459 0.533099ZM10.7813 2.28784L12.0303 3.50084L12.3787 3.14216L11.1297 1.92916L10.7813 2.28784ZM12.3302 3.53762L13.9287 2.60812L13.6773 2.17588L12.0788 3.10538L12.3302 3.53762ZM13.9771 2.21262L12.2186 0.505616L11.8704 0.864384L13.6289 2.57138L13.9771 2.21262ZM11.8865 0.3965H4.19V0.8965H11.8865V0.3965ZM3.99003 0.796546L5.03753 2.19255L5.43747 1.89245L4.38997 0.496454L3.99003 0.796546ZM5.2375 2.2925H10.819V1.7925H5.2375V2.2925ZM11.0176 2.19436L12.0851 0.79836L11.6879 0.49464L10.6204 1.89064L11.0176 2.19436Z" fill="#151542"/>
</svg>