<svg width="18" height="18" viewBox="0 0 18 18" fill="none" xmlns="http://www.w3.org/2000/svg">
<path d="M9.14931 1.00141L9.15399 0.751456L9.15396 0.751455L9.14931 1.00141ZM16.9986 9.15016L17.2485 9.15481V9.15481L16.9986 9.15016ZM8.85125 16.9986L8.85593 16.7486L8.85587 16.7486L8.85125 16.9986ZM1.00141 8.85152L0.751456 8.84684L0.751455 8.84687L1.00141 8.85152ZM6.70761 14.5653L6.88988 14.3942L6.69864 14.3154L6.70761 14.5653ZM3.56608 14.678L3.55711 14.4282L3.39297 14.8584L3.56608 14.678ZM8.85352 16.858L8.84921 17.108H8.85352V16.858ZM8.85975 16.858V17.108L9.04203 16.6869L8.85975 16.858ZM11.3145 14.5556L11.3225 14.3058L11.1315 14.3853L11.3145 14.5556ZM9.17255 16.8575L8.98953 16.6872L9.17772 17.1074L9.17255 16.8575ZM14.4566 14.6559L14.6304 14.8356L14.4646 14.4061L14.4566 14.6559ZM8.99858 13.5844L9.09381 13.3532L8.90237 13.3536L8.99858 13.5844ZM6.82944 14.4888L6.73323 14.258L6.64714 14.6599L6.82944 14.4888ZM9.01558 16.8184L8.83328 16.9894L9.19856 16.9887L9.01558 16.8184ZM11.187 14.4859L11.37 14.6563L11.2822 14.2548L11.187 14.4859ZM3.58422 11.3545L3.67945 11.1234L3.33434 11.3466L3.58422 11.3545ZM3.48278 14.5392L3.23291 14.5313L3.49172 14.7891L3.48278 14.5392ZM6.65321 14.4259L6.66214 14.6757L6.88396 14.3297L6.65321 14.4259ZM5.74373 12.2442L5.97448 12.148L5.83896 12.013L5.74373 12.2442ZM14.4249 11.3239L14.6747 11.315L14.3287 11.0931L14.4249 11.3239ZM12.2489 12.2306L12.1527 11.9998L12.0177 12.1354L12.2489 12.2306ZM11.3491 14.4157L11.1179 14.3205L11.3411 14.6655L11.3491 14.4157ZM14.5393 14.5177L14.5313 14.7676L14.7892 14.5087L14.5393 14.5177ZM1.14308 9.17226L1.31341 8.98927L0.893128 9.17742L1.14308 9.17226ZM3.34452 14.457L3.16483 14.6309L3.5944 14.465L3.34452 14.457ZM3.44425 11.3143L3.69413 11.3222L3.61459 11.1313L3.44425 11.3143ZM16.8575 9.14109H17.1075L16.6864 8.95877L16.8575 9.14109ZM14.5648 11.2922L14.3938 11.1099L14.315 11.3012L14.5648 11.2922ZM14.6781 14.4338L14.4283 14.4428L14.8585 14.6069L14.6781 14.4338ZM16.8575 9.14676L17.1075 9.15106V9.14676H16.8575ZM5.92846 12.3201L6.02364 12.089L5.69769 12.4163L5.92846 12.3201ZM6.7773 14.3573L6.54654 14.4535L6.87347 14.5881L6.7773 14.3573ZM8.81442 13.5084L8.91058 13.7392L8.90961 13.2773L8.81442 13.5084ZM12.0647 12.3071L12.2959 12.4023L11.9686 12.0763L12.0647 12.3071ZM9.18331 13.5079L9.08714 13.2771L9.08813 13.739L9.18331 13.5079ZM11.2244 14.3482L11.1292 14.5794L11.4556 14.4434L11.2244 14.3482ZM8.98045 4.53801L9.07564 4.30685L8.88429 4.30725L8.98045 4.53801ZM5.83893 5.84703L5.74277 5.61626L5.60776 5.75184L5.83893 5.84703ZM4.54299 8.99432L4.31182 8.89914L4.31223 9.09049L4.54299 8.99432ZM5.85196 12.1354L5.6212 12.2316L5.75673 12.3665L5.85196 12.1354ZM8.99915 13.4319L8.90392 13.6631L9.09532 13.6627L8.99915 13.4319ZM12.1401 12.1229L12.2363 12.3537L12.3713 12.2181L12.1401 12.1229ZM13.4366 8.97506L13.6678 9.07026L13.6674 8.87889L13.4366 8.97506ZM12.1276 5.83399L12.3584 5.73783L12.2228 5.60283L12.1276 5.83399ZM4.46706 9.17849L4.69784 9.08237L4.23589 9.08332L4.46706 9.17849ZM3.62671 11.2196L3.39554 11.1245L3.53151 11.4508L3.62671 11.2196ZM5.66723 12.06L5.57203 12.2912L5.89801 11.9639L5.66723 12.06ZM13.5131 9.15979L13.7439 9.06358L13.2819 9.06463L13.5131 9.15979ZM12.3248 12.0464L12.0937 11.9513L12.421 12.2772L12.3248 12.0464ZM14.3625 11.197L14.4587 11.4277L14.5933 11.1008L14.3625 11.197ZM3.49468 6.8455L3.72545 6.74933L3.3236 6.66321L3.49468 6.8455ZM1.18217 9.01586L1.01109 8.83357L1.01181 9.19882L1.18217 9.01586ZM3.49468 11.1692L3.32432 11.3522L3.72587 11.2644L3.49468 11.1692ZM4.39 8.99376L4.62118 9.0889L4.62076 8.89758L4.39 8.99376ZM14.4821 6.80924L14.6524 6.62627L14.251 6.71396L14.4821 6.80924ZM13.589 8.97562L13.3579 8.88034L13.3583 9.07181L13.589 8.97562ZM14.4996 11.1601L14.2689 11.2563L14.6707 11.3424L14.4996 11.1601ZM16.8178 8.98412L16.9889 9.1664L16.9882 8.80116L16.8178 8.98412ZM3.32186 3.5673L3.57169 3.55834L3.14148 3.3942L3.32186 3.5673ZM1.14194 8.85435L0.891942 8.85002V8.85435H1.14194ZM1.14194 8.86002H0.891942L1.313 9.04234L1.14194 8.86002ZM3.43462 6.70893L3.60568 6.89125L3.68446 6.69997L3.43462 6.70893ZM14.6549 3.54464L14.8346 3.37082L14.405 3.53671L14.6549 3.54464ZM14.5552 6.68683L14.3053 6.6789L14.3848 6.86983L14.5552 6.68683ZM16.8564 8.82886L16.686 9.01185L17.1063 8.8237L16.8564 8.82886ZM5.6542 5.92466L5.88536 6.01986L5.55809 5.69387L5.6542 5.92466ZM3.61708 6.77297L3.52097 6.54218L3.38631 6.86912L3.61708 6.77297ZM4.46593 8.81015L4.23516 8.90631L4.69709 8.90535L4.46593 8.81015ZM12.3118 5.91049L12.4071 5.67935L12.081 6.00663L12.3118 5.91049ZM13.512 8.79145L13.2812 8.88759L13.7431 8.88667L13.512 8.79145ZM14.3523 6.75143L14.5835 6.84665L14.4476 6.52029L14.3523 6.75143ZM3.46125 3.48287L3.46919 3.233L3.21141 3.4918L3.46125 3.48287ZM3.57402 6.63753L3.32418 6.64646L3.67013 6.86832L3.57402 6.63753ZM5.7307 5.73936L5.82681 5.97014L5.96186 5.83456L5.7307 5.73936ZM6.61864 3.58317L6.84981 3.67837L6.62658 3.3333L6.61864 3.58317ZM14.5166 3.46077L14.7665 3.46865L14.5077 3.21093L14.5166 3.46077ZM11.3394 3.5741L11.3305 3.32426L11.1086 3.6702L11.3394 3.5741ZM12.2353 5.72576L12.0045 5.82185L12.1401 5.95691L12.2353 5.72576ZM14.4169 6.6245L14.3217 6.85565L14.6668 6.63238L14.4169 6.6245ZM6.7552 3.6217L6.85039 3.39053L6.52404 3.52651L6.7552 3.6217ZM5.91486 5.66229L5.68369 5.56709L6.01099 5.89307L5.91486 5.66229ZM8.79629 4.46208L8.89242 4.69286L8.89147 4.23091L8.79629 4.46208ZM11.2023 3.61264L11.433 3.51643L11.1061 3.38188L11.2023 3.61264ZM9.16575 4.46151L9.06956 4.23076L9.07056 4.69268L9.16575 4.46151ZM12.0517 5.64982L11.9565 5.88099L12.2825 5.55361L12.0517 5.64982ZM8.98442 1.18161L9.16672 1.01054L8.80138 1.01133L8.98442 1.18161ZM6.8283 3.4993L6.64526 3.32902L6.73315 3.73049L6.8283 3.4993ZM8.98158 4.38558L8.88643 4.61676L9.07775 4.61634L8.98158 4.38558ZM11.1451 3.484L11.2412 3.71477L11.3274 3.31293L11.1451 3.484ZM8.82802 1.14308L9.01102 1.31341L8.82284 0.893134L8.82802 1.14308ZM3.54398 3.3446L3.37016 3.16492L3.53605 3.59448L3.54398 3.3446ZM6.68607 3.44434L6.67814 3.69421L6.86907 3.61467L6.68607 3.44434ZM9.14705 1.14308V1.39308L9.32393 1.31975L9.14705 1.14308ZM9.14138 1.14308V0.89308L8.95908 1.31415L9.14138 1.14308ZM11.2924 3.43527L11.1101 3.60634L11.3014 3.68511L11.2924 3.43527ZM14.4345 3.32193L14.4435 3.57177L14.6076 3.14156L14.4345 3.32193ZM9.14761 1.14251L9.15191 0.89255L8.97073 0.965841L9.14761 1.14251ZM9.01514 1.25027L9.14717 1.2514L9.15146 0.751421L9.01943 0.750288L9.01514 1.25027ZM9.14463 1.25137C13.4242 1.33152 16.8282 4.86518 16.7486 9.14551L17.2485 9.15481C17.3333 4.59845 13.7097 0.836775 9.15399 0.751456L9.14463 1.25137ZM16.7486 9.14551C16.669 13.4241 13.1349 16.8288 8.85593 16.7486L8.84657 17.2485C13.4017 17.3338 17.1638 13.7095 17.2485 9.15481L16.7486 9.14551ZM8.85587 16.7486C4.57634 16.6696 1.17177 13.1354 1.25137 8.85617L0.751455 8.84687C0.666723 13.4021 4.29091 17.1644 8.84664 17.2485L8.85587 16.7486ZM1.25137 8.8562C1.33151 4.57643 4.8651 1.17177 9.14466 1.25137L9.15396 0.751455C4.59827 0.66672 0.836771 4.29106 0.751456 8.84684L1.25137 8.8562ZM6.69864 14.3154L3.55711 14.4282L3.57505 14.9279L6.71657 14.8151L6.69864 14.3154ZM3.39297 14.8584C4.86308 16.2694 6.8119 17.0729 8.84921 17.108L8.85783 16.6081C6.94659 16.5751 5.11834 15.8213 3.73919 14.4977L3.39297 14.8584ZM8.85352 17.108H8.85975V16.608H8.85352V17.108ZM9.04203 16.6869L6.88988 14.3942L6.52533 14.7364L8.67747 17.0291L9.04203 16.6869ZM11.1315 14.3853L8.98953 16.6872L9.35556 17.0278L11.4975 14.726L11.1315 14.3853ZM9.17772 17.1074C11.2168 17.0652 13.1645 16.2537 14.6304 14.8356L14.2828 14.4763C12.9075 15.8066 11.0803 16.5679 9.16737 16.6075L9.17772 17.1074ZM14.4646 14.4061L11.3225 14.3058L11.3065 14.8055L14.4486 14.9058L14.4646 14.4061ZM8.90237 13.3536L6.73323 14.258L6.92564 14.7195L9.09479 13.8151L8.90237 13.3536ZM6.64714 14.6599L8.83328 16.9894L9.19788 16.6473L7.01174 14.3177L6.64714 14.6599ZM9.19856 16.9887L11.37 14.6563L11.004 14.3156L8.8326 16.648L9.19856 16.9887ZM11.2822 14.2548L9.09381 13.3532L8.90335 13.8155L11.0918 14.7171L11.2822 14.2548ZM3.33434 11.3466L3.23291 14.5313L3.73266 14.5472L3.83409 11.3625L3.33434 11.3466ZM3.49172 14.7891L6.66214 14.6757L6.64428 14.176L3.47385 14.2894L3.49172 14.7891ZM6.88396 14.3297L5.97448 12.148L5.51298 12.3404L6.42245 14.5221L6.88396 14.3297ZM5.83896 12.013L3.67945 11.1234L3.48899 11.5857L5.6485 12.4753L5.83896 12.013ZM14.3287 11.0931L12.1527 11.9998L12.3451 12.4614L14.521 11.5547L14.3287 11.0931ZM12.0177 12.1354L11.1179 14.3205L11.5802 14.5109L12.4801 12.3258L12.0177 12.1354ZM11.3411 14.6655L14.5313 14.7676L14.5473 14.2678L11.357 14.1658L11.3411 14.6655ZM14.7892 14.5087L14.6747 11.315L14.175 11.3329L14.2895 14.5266L14.7892 14.5087ZM0.893128 9.17742C0.935229 11.2167 1.7467 13.1648 3.16483 14.6309L3.52421 14.2832C2.1938 12.9078 1.43252 11.0803 1.39302 9.1671L0.893128 9.17742ZM3.5944 14.465L3.69413 11.3222L3.19438 11.3064L3.09465 14.4491L3.5944 14.465ZM3.61459 11.1313L1.31341 8.98927L0.97274 9.35525L3.27392 11.4973L3.61459 11.1313ZM16.6864 8.95877L14.3938 11.1099L14.7359 11.4745L17.0285 9.32341L16.6864 8.95877ZM14.315 11.3012L14.4283 14.4428L14.928 14.4248L14.8147 11.2832L14.315 11.3012ZM14.8585 14.6069C16.2692 13.1369 17.0724 11.1882 17.1075 9.15106L16.6075 9.14246C16.5747 11.0535 15.8211 12.8816 14.4978 14.2607L14.8585 14.6069ZM17.1075 9.14676V9.14109H16.6075V9.14676H17.1075ZM5.69769 12.4163L6.54654 14.4535L7.00807 14.2612L6.15923 12.224L5.69769 12.4163ZM6.87347 14.5881L8.91058 13.7392L8.71826 13.2777L6.68114 14.1265L6.87347 14.5881ZM8.90961 13.2773L6.02364 12.089L5.83327 12.5513L8.71924 13.7396L8.90961 13.2773ZM11.9686 12.0763L9.08714 13.2771L9.27948 13.7386L12.1609 12.5379L11.9686 12.0763ZM9.08813 13.739L11.1292 14.5794L11.3196 14.1171L9.27849 13.2767L9.08813 13.739ZM11.4556 14.4434L12.2959 12.4023L11.8336 12.2119L10.9932 14.2531L11.4556 14.4434ZM8.88429 4.30725L5.74277 5.61626L5.93508 6.07779L9.07661 4.76878L8.88429 4.30725ZM5.60776 5.75184L4.31182 8.89914L4.77416 9.08951L6.0701 5.94221L5.60776 5.75184ZM4.31223 9.09049L5.6212 12.2316L6.08272 12.0392L4.77376 8.89816L4.31223 9.09049ZM5.75673 12.3665L8.90392 13.6631L9.09438 13.2008L5.94719 11.9042L5.75673 12.3665ZM9.09532 13.6627L12.2363 12.3537L12.0439 11.8922L8.90298 13.2012L9.09532 13.6627ZM12.3713 12.2181L13.6678 9.07026L13.2054 8.87985L11.9089 12.0277L12.3713 12.2181ZM13.6674 8.87889L12.3584 5.73783L11.8969 5.93016L13.2058 9.07122L13.6674 8.87889ZM12.2228 5.60283L9.07564 4.30685L8.88526 4.76918L12.0324 6.06516L12.2228 5.60283ZM4.23589 9.08332L3.39554 11.1245L3.85789 11.3148L4.69824 9.27367L4.23589 9.08332ZM3.53151 11.4508L5.57203 12.2912L5.76243 11.8289L3.72192 10.9885L3.53151 11.4508ZM5.89801 11.9639L4.69784 9.08237L4.23628 9.27461L5.43645 12.1561L5.89801 11.9639ZM13.2819 9.06463L12.0937 11.9513L12.556 12.1416L13.7443 9.25496L13.2819 9.06463ZM12.421 12.2772L14.4587 11.4277L14.2663 10.9662L12.2286 11.8157L12.421 12.2772ZM14.5933 11.1008L13.7439 9.06358L13.2824 9.256L14.1318 11.2932L14.5933 11.1008ZM3.3236 6.66321L1.01109 8.83357L1.35326 9.19815L3.66577 7.02779L3.3236 6.66321ZM1.01181 9.19882L3.32432 11.3522L3.66505 10.9863L1.35254 8.8329L1.01181 9.19882ZM3.72587 11.2644L4.62118 9.0889L4.15881 8.89861L3.2635 11.0741L3.72587 11.2644ZM4.62076 8.89758L3.72545 6.74933L3.26392 6.94167L4.15923 9.08993L4.62076 8.89758ZM14.251 6.71396L13.3579 8.88034L13.8202 9.0709L14.7132 6.90451L14.251 6.71396ZM13.3583 9.07181L14.2689 11.2563L14.7304 11.064L13.8198 8.87943L13.3583 9.07181ZM14.6707 11.3424L16.9889 9.1664L16.6467 8.80185L14.3285 10.9779L14.6707 11.3424ZM16.9882 8.80116L14.6524 6.62627L14.3117 6.9922L16.6475 9.16709L16.9882 8.80116ZM3.14148 3.3942C1.73072 4.86421 0.927269 6.81286 0.891979 8.85002L1.3919 8.85869C1.42501 6.94756 2.17876 5.11946 3.50223 3.74041L3.14148 3.3942ZM0.891942 8.85435V8.86002H1.39194V8.85435H0.891942ZM1.313 9.04234L3.60568 6.89125L3.26356 6.52662L0.970884 8.67771L1.313 9.04234ZM3.68446 6.69997L3.57169 3.55834L3.07202 3.57627L3.18478 6.7179L3.68446 6.69997ZM14.405 3.53671L14.3053 6.6789L14.8051 6.69477L14.9048 3.55257L14.405 3.53671ZM14.3848 6.86983L16.686 9.01185L17.0267 8.64586L14.7255 6.50384L14.3848 6.86983ZM17.1063 8.8237C17.0642 6.78435 16.2527 4.8369 14.8346 3.37082L14.4752 3.71845C15.8056 5.09387 16.5669 6.92084 16.6064 8.83402L17.1063 8.8237ZM5.55809 5.69387L3.52097 6.54218L3.71319 7.00376L5.7503 6.15545L5.55809 5.69387ZM3.38631 6.86912L4.23516 8.90631L4.6967 8.714L3.84785 6.67681L3.38631 6.86912ZM4.69709 8.90535L5.88536 6.01986L5.42303 5.82946L4.23476 8.71496L4.69709 8.90535ZM12.081 6.00663L13.2812 8.88759L13.7427 8.69532L12.5426 5.81435L12.081 6.00663ZM13.7431 8.88667L14.5835 6.84665L14.1212 6.65621L13.2808 8.69623L13.7431 8.88667ZM14.4476 6.52029L12.4071 5.67935L12.2165 6.14163L14.2571 6.98258L14.4476 6.52029ZM3.21141 3.4918L3.32418 6.64646L3.82386 6.6286L3.71109 3.47394L3.21141 3.4918ZM3.67013 6.86832L5.82681 5.97014L5.63458 5.50857L3.4779 6.40675L3.67013 6.86832ZM5.96186 5.83456L6.84981 3.67837L6.38748 3.48797L5.49953 5.64416L5.96186 5.83456ZM6.62658 3.3333L3.46919 3.233L3.45331 3.73274L6.6107 3.83304L6.62658 3.3333ZM14.5077 3.21093L11.3305 3.32426L11.3483 3.82394L14.5256 3.71061L14.5077 3.21093ZM11.1086 3.6702L12.0045 5.82185L12.4661 5.62966L11.5702 3.47801L11.1086 3.6702ZM12.1401 5.95691L14.3217 6.85565L14.5121 6.39335L12.3305 5.4946L12.1401 5.95691ZM14.6668 6.63238L14.7665 3.46865L14.2668 3.45289L14.167 6.61662L14.6668 6.63238ZM6.52404 3.52651L5.68369 5.56709L6.14602 5.75749L6.98637 3.7169L6.52404 3.52651ZM6.01099 5.89307L8.89242 4.69286L8.70016 4.2313L5.81873 5.43151L6.01099 5.89307ZM8.89147 4.23091L6.85039 3.39053L6.66002 3.85288L8.70111 4.69325L8.89147 4.23091ZM11.1061 3.38188L9.06956 4.23076L9.26193 4.69227L11.2985 3.84339L11.1061 3.38188ZM9.07056 4.69268L11.9565 5.88099L12.1469 5.41865L9.26093 4.23034L9.07056 4.69268ZM12.2825 5.55361L11.433 3.51643L10.9716 3.70885L11.821 5.74603L12.2825 5.55361ZM8.80138 1.01133L6.64526 3.32902L7.01134 3.66958L9.16746 1.35189L8.80138 1.01133ZM6.73315 3.73049L8.88643 4.61676L9.07674 4.1544L6.92346 3.26812L6.73315 3.73049ZM9.07775 4.61634L11.2412 3.71477L11.0489 3.25324L8.88542 4.15481L9.07775 4.61634ZM11.3274 3.31293L9.16672 1.01054L8.80212 1.35269L10.9628 3.65508L11.3274 3.31293ZM8.82284 0.893134C6.78378 0.935382 4.83606 1.74688 3.37016 3.16492L3.7178 3.52429C5.09302 2.19396 6.92027 1.43266 8.8332 1.39303L8.82284 0.893134ZM3.53605 3.59448L6.67814 3.69421L6.694 3.19446L3.55191 3.09473L3.53605 3.59448ZM6.86907 3.61467L9.01102 1.31341L8.64502 0.972751L6.50308 3.27401L6.86907 3.61467ZM9.14705 0.89308H9.14138V1.39308H9.14705V0.89308ZM8.95908 1.31415L11.1101 3.60634L11.4747 3.2642L9.32368 0.972006L8.95908 1.31415ZM11.3014 3.68511L14.4435 3.57177L14.4255 3.0721L11.2834 3.18543L11.3014 3.68511ZM14.6076 3.14156C13.1376 1.73086 11.189 0.927569 9.15191 0.89255L9.14332 1.39248C11.0543 1.42533 12.8824 2.17891 14.2614 3.50231L14.6076 3.14156ZM8.97073 0.965841L8.97017 0.966407L9.32393 1.31975L9.32449 1.31919L8.97073 0.965841Z" fill="#151542"/>
</svg>