<svg width="40" height="15" viewBox="0 0 40 15" fill="none" xmlns="http://www.w3.org/2000/svg">
<path d="M24.4267 7.33325L23.2133 4.45992M24.4267 7.33325L23.24 10.2266M24.4267 7.33325L27.4733 7.24658M23.2133 4.45992L20.3133 3.27992M23.2133 4.45992L25.4467 2.39992M20.3133 3.27992L17.4267 4.48658M20.3133 3.27992L20.3333 0.246582M17.4267 4.48658L16.24 7.37992M17.4267 4.48658L15.2667 2.34658M16.24 7.37992L17.4533 10.2532M16.24 7.37992L13.1933 7.35992M17.4533 10.2532L20.3533 11.4332L23.24 10.2266M17.4533 10.2532L15.2667 12.3666M23.24 10.2266L25.4467 12.3199M20.36 11.4332L20.3133 14.4666M28.46 5.54658H38.68C39.2249 5.54658 39.6667 5.98833 39.6667 6.53325V8.12658C39.6667 8.6715 39.2249 9.11325 38.68 9.11325H28.46C27.9151 9.11325 27.4733 8.6715 27.4733 8.12658V6.53325C27.4733 5.98833 27.9151 5.54658 28.46 5.54658ZM1.98667 5.54658H12.2067C12.7516 5.54658 13.1933 5.98833 13.1933 6.53325V8.12658C13.1933 8.6715 12.7516 9.11325 12.2067 9.11325H1.98667C1.44175 9.11325 1 8.6715 1 8.12658V6.53325C1 5.98833 1.44175 5.54658 1.98667 5.54658ZM17.6667 13.9399C16.3713 13.3991 15.265 12.4872 14.4868 11.3189C13.7087 10.1507 13.2936 8.77831 13.2938 7.37463C13.294 5.97095 13.7095 4.59871 14.488 3.43067C15.2665 2.26264 16.3731 1.35103 17.6686 0.810628C18.9641 0.270225 20.3905 0.125185 21.7682 0.39377C23.146 0.662354 24.4135 1.33256 25.4111 2.31999C26.4088 3.30743 27.092 4.56795 27.3747 5.94287C27.6574 7.31778 27.5271 8.74561 27 10.0466C26.6476 10.9188 26.1256 11.7124 25.4641 12.3813C24.8027 13.0502 24.015 13.5811 23.1468 13.9433C22.2786 14.3055 21.3471 14.4917 20.4064 14.4911C19.4657 14.4905 18.5344 14.3032 17.6667 13.9399ZM11.5667 8.77992C11.1967 8.77845 10.8417 8.63402 10.5758 8.37682C10.3099 8.11963 10.1538 7.76959 10.14 7.39992V7.33325C10.1519 6.96052 10.3067 6.60662 10.5722 6.3448C10.8378 6.08297 11.1938 5.93323 11.5667 5.92658C11.9303 5.92257 12.2816 6.05891 12.5473 6.30725C12.813 6.55558 12.9728 6.8968 12.9933 7.25992V7.37325C12.9864 7.7476 12.8332 8.10437 12.5666 8.36725C12.3 8.63012 11.9411 8.77824 11.5667 8.77992ZM8.33333 8.81325C7.96341 8.81178 7.60837 8.66735 7.34248 8.41016C7.07659 8.15296 6.92043 7.80292 6.90667 7.43325V7.33325C6.92521 6.96522 7.08286 6.61797 7.34773 6.36177C7.61259 6.10557 7.96489 5.95954 8.33333 5.95325C8.69701 5.94924 9.04824 6.08558 9.31396 6.33391C9.57968 6.58225 9.73944 6.92346 9.76 7.28658V7.39992C9.75477 7.77543 9.60236 8.13389 9.33556 8.3982C9.06876 8.6625 8.70888 8.81154 8.33333 8.81325ZM5.11333 8.81325C4.73884 8.81693 4.37778 8.67389 4.10741 8.41474C3.83704 8.15558 3.67884 7.8009 3.66667 7.42658V7.33325C3.67858 6.96052 3.83332 6.60662 4.09888 6.3448C4.36443 6.08297 4.72047 5.93323 5.09333 5.92658C5.45701 5.92257 5.80824 6.05891 6.07396 6.30725C6.33968 6.55558 6.49944 6.8968 6.52 7.25992V7.37325C6.52182 7.74997 6.37525 8.11226 6.112 8.38175C5.84875 8.65123 5.48999 8.80624 5.11333 8.81325ZM35.5533 8.79325C35.1834 8.79179 34.8284 8.64735 34.5625 8.39016C34.2966 8.13296 34.1404 7.78292 34.1267 7.41325V7.33325C34.1386 6.96052 34.2933 6.60662 34.5589 6.3448C34.8244 6.08297 35.1805 5.93323 35.5533 5.92658C35.917 5.92257 36.2682 6.05891 36.534 6.30725C36.7997 6.55558 36.9594 6.8968 36.98 7.25992V7.37325C36.9765 7.74993 36.8249 8.11008 36.5579 8.37582C36.2909 8.64156 35.93 8.79151 35.5533 8.79325ZM32.3333 8.82658C31.9634 8.82512 31.6084 8.68069 31.3425 8.42349C31.0766 8.16629 30.9204 7.81626 30.9067 7.44658V7.37992C30.9252 7.01188 31.0829 6.66463 31.3477 6.40843C31.6126 6.15223 31.9649 6.00621 32.3333 5.99992C32.697 5.9959 33.0482 6.13224 33.314 6.38058C33.5797 6.62892 33.7394 6.97013 33.76 7.33325V7.44658C33.7462 7.81626 33.5901 8.16629 33.3242 8.42349C33.0583 8.68069 32.7033 8.82512 32.3333 8.82658ZM29.0933 8.82658C28.7234 8.82512 28.3684 8.68069 28.1025 8.42349C27.8366 8.16629 27.6804 7.81626 27.6667 7.44658V7.37992C27.6852 7.01188 27.8429 6.66463 28.1077 6.40843C28.3726 6.15223 28.7249 6.00621 29.0933 5.99992C29.457 5.9959 29.8082 6.13224 30.074 6.38058C30.3397 6.62892 30.4994 6.97013 30.52 7.33325V7.44658C30.5062 7.81626 30.3501 8.16629 30.0842 8.42349C29.8183 8.68069 29.4633 8.82512 29.0933 8.82658Z" stroke="#151542" stroke-width="0.5"/>
</svg>