<svg width="40" height="16" viewBox="0 0 40 16" fill="none" xmlns="http://www.w3.org/2000/svg">
<path d="M24.4267 8L23.2133 5.12666M24.4267 8L23.24 10.8933M24.4267 8L27.4733 7.91333M23.2133 5.12666L20.3133 3.94666M23.2133 5.12666L25.4467 3.06666M20.3133 3.94666L17.4267 5.15333M20.3133 3.94666L20.3333 0.91333M17.4267 5.15333L16.24 8.04666M17.4267 5.15333L15.2667 3.01333M16.24 8.04666L17.4533 10.92M16.24 8.04666L13.1933 8.02666M17.4533 10.92L20.3533 12.1L23.24 10.8933M17.4533 10.92L15.2667 13.0333M23.24 10.8933L25.4467 12.9867M20.36 12.1L20.3133 15.1333M28.46 6.21333H38.68C39.2249 6.21333 39.6667 6.65508 39.6667 7.2V8.79333C39.6667 9.33825 39.2249 9.78 38.68 9.78H28.46C27.9151 9.78 27.4733 9.33825 27.4733 8.79333V7.2C27.4733 6.65508 27.9151 6.21333 28.46 6.21333ZM1.98667 6.21333H12.2067C12.7516 6.21333 13.1933 6.65508 13.1933 7.2V8.79333C13.1933 9.33825 12.7516 9.78 12.2067 9.78H1.98667C1.44175 9.78 1 9.33825 1 8.79333V7.2C1 6.65508 1.44175 6.21333 1.98667 6.21333ZM17.6667 14.6067C16.3713 14.0659 15.265 13.154 14.4868 11.9857C13.7087 10.8174 13.2936 9.44506 13.2938 8.04138C13.294 6.6377 13.7095 5.26546 14.488 4.09742C15.2665 2.92939 16.3731 2.01778 17.6686 1.47738C18.9641 0.936973 20.3905 0.791933 21.7682 1.06052C23.146 1.3291 24.4135 1.9993 25.4111 2.98674C26.4088 3.97418 27.092 5.2347 27.3747 6.60961C27.6574 7.98453 27.5271 9.41235 27 10.7133C26.6476 11.5856 26.1256 12.3791 25.4641 13.048C24.8027 13.717 24.015 14.2479 23.1468 14.6101C22.2786 14.9722 21.3471 15.1584 20.4064 15.1578C19.4657 15.1573 18.5344 14.9699 17.6667 14.6067Z" stroke="#151542" stroke-width="0.5"/>
</svg>