<svg width="40" height="18" viewBox="0 0 40 18" fill="none" xmlns="http://www.w3.org/2000/svg">
<path d="M29.8709 1H11.6251M29.8709 1L39.1771 6.42246C39.4702 6.64229 39.69 7.00867 39.69 7.37506V12.2113C39.69 12.651 39.3969 13.0906 39.0305 13.2372L29.8709 17.4139M29.8709 1L30.9701 4.29744C31.0434 4.444 31.0434 4.51727 31.0434 4.66383V14.1898C31.0434 14.3363 31.0434 14.4829 30.9701 14.5562L29.8709 17.4139M11.6251 1L1.58621 6.49574C1.21983 6.71557 1 7.08195 1 7.44833V12.2113C1 12.651 1.29311 13.0906 1.65949 13.2372L11.5518 17.4139H29.8709M11.6251 1L10.5259 4.29744C10.4527 4.444 10.4527 4.51727 10.4527 4.66383V14.1898C10.4527 14.3363 10.4527 14.4829 10.5259 14.5562L11.6251 17.4139M23.7157 9.20697L22.6898 6.86212M23.7157 9.20697L22.6898 11.5518M23.7157 9.20697L26.1338 9.13369M22.6898 6.86212L20.345 5.90953M22.6898 6.86212L24.5218 5.17676M20.345 5.90953L17.9269 6.86212M20.345 5.90953V3.41813M17.9269 6.86212L16.9743 9.20697M17.9269 6.86212L16.1682 5.10348M16.9743 9.20697L18.0001 11.5518M16.9743 9.20697H14.4829M18.0001 11.5518L20.345 12.5777M18.0001 11.5518L16.1682 13.3105M20.345 12.5777L22.6898 11.5518M20.345 12.5777V14.9958M22.6898 11.5518L24.5218 13.2372M18.1467 14.5562C15.2156 13.3105 13.7501 9.93973 14.9958 6.9354C16.2415 3.93106 19.6122 2.53881 22.6166 3.78451C25.5476 5.03021 26.9399 8.40093 25.7675 11.332C24.595 14.4096 21.151 15.8019 18.1467 14.5562ZM18.1467 14.5562C18.1467 14.6294 18.1467 14.6294 18.1467 14.5562Z" stroke="#151542" stroke-width="0.5"/>
</svg>