<svg width="40" height="12" viewBox="0 0 40 12" fill="none" xmlns="http://www.w3.org/2000/svg">
<path d="M6.33333 7.89326H6.58333C6.58333 7.75519 6.47141 7.64326 6.33333 7.64326V7.89326ZM2.08 7.89326V7.64292L2.06684 7.64361L2.08 7.89326ZM1 6.9066H0.749823L0.750177 6.91599L1 6.9066ZM1 5.09326L0.75 5.08361V5.09326H1ZM2.05333 4.1066L2.04665 4.3566H2.05333V4.1066ZM6.33333 4.1066H6.58333C6.58333 3.96853 6.47141 3.8566 6.33333 3.8566V4.1066ZM6.08333 7.89993C6.08333 8.038 6.19526 8.14993 6.33333 8.14993C6.47141 8.14993 6.58333 8.038 6.58333 7.89993H6.08333ZM23.3933 5.99993L23.6249 6.09426L23.6638 5.99856L23.6239 5.90327L23.3933 5.99993ZM20.3267 2.97326L20.4207 2.74164L20.3255 2.70294L20.2305 2.7425L20.3267 2.97326ZM18.3333 10.9333L18.2393 11.1649L18.3333 10.9333ZM25.28 7.99993L25.0484 7.90579L25.28 7.99993ZM31.7467 4.25326L31.9772 4.15649L31.9369 4.06062L31.8406 4.02157L31.7467 4.25326ZM28.2533 7.77326L28.0228 7.87004L28.0631 7.9659L28.1594 8.00496L28.2533 7.77326ZM28.3667 9.99993L28.4619 9.76878L28.4615 9.76863L28.3667 9.99993ZM34.0067 7.63326L33.7752 7.53893L33.775 7.53928L34.0067 7.63326ZM33.0778 9.04355L32.9 8.86783L33.0778 9.04355ZM9.04 9.99993L9.13556 9.76892L9.1352 9.76877L9.04 9.99993ZM14.6867 7.63326L14.4551 7.53906L14.455 7.53942L14.6867 7.63326ZM34.3333 7.89326V7.64326C34.1953 7.64326 34.0833 7.75519 34.0833 7.89326H34.3333ZM38.5933 7.89326L38.6049 7.64326H38.5933V7.89326ZM39.6667 6.9066L39.9167 6.91608V6.9066H39.6667ZM39.6667 5.09326H39.9169L39.9165 5.08361L39.6667 5.09326ZM38.6133 4.1066V4.35669L38.62 4.35651L38.6133 4.1066ZM34.3333 4.1066V3.8566C34.1953 3.8566 34.0833 3.96853 34.0833 4.1066H34.3333ZM34.0833 7.89993C34.0833 8.038 34.1953 8.14993 34.3333 8.14993C34.4714 8.14993 34.5833 8.038 34.5833 7.89993H34.0833ZM6.33333 7.64326H2.08V8.14326H6.33333V7.64326ZM2.06684 7.64361C1.964 7.64903 1.86111 7.63395 1.76416 7.59924L1.59563 8.06998C1.755 8.12704 1.92412 8.15183 2.09316 8.14292L2.06684 7.64361ZM1.76416 7.59924C1.6672 7.56453 1.57812 7.51088 1.50209 7.44143L1.16485 7.81057C1.28982 7.92474 1.43626 8.01292 1.59563 8.06998L1.76416 7.59924ZM1.50209 7.44143C1.42606 7.37197 1.36461 7.28808 1.3213 7.19465L0.867663 7.40493C0.938853 7.55851 1.03987 7.6964 1.16485 7.81057L1.50209 7.44143ZM1.3213 7.19465C1.27799 7.10122 1.25369 7.00011 1.24982 6.8972L0.750177 6.91599C0.756537 7.08515 0.796474 7.25135 0.867663 7.40493L1.3213 7.19465ZM1.25 6.9066V5.09326H0.75V6.9066H1.25ZM1.24981 5.10292C1.2577 4.89868 1.34578 4.70579 1.49495 4.56607L1.15313 4.20115C0.907934 4.43083 0.763156 4.7479 0.750186 5.08361L1.24981 5.10292ZM1.49495 4.56607C1.64411 4.42634 1.84234 4.35105 2.04665 4.35651L2.06001 3.85669C1.72417 3.84771 1.39832 3.97148 1.15313 4.20115L1.49495 4.56607ZM2.05333 4.3566H6.33333V3.8566H2.05333V4.3566ZM6.08333 4.1066V7.89993H6.58333V4.1066H6.08333ZM6.58333 7.89993V7.89326H6.08333V7.89993H6.58333ZM23.6239 5.90327L22.7239 3.7566L22.2628 3.94993L23.1628 6.09659L23.6239 5.90327ZM22.5874 3.62164L20.4207 2.74164L20.2326 3.20489L22.3993 4.08489L22.5874 3.62164ZM20.2305 2.7425L18.0705 3.6425L18.2628 4.10403L20.4228 3.20403L20.2305 2.7425ZM17.9351 3.77894L17.0551 5.93894L17.5182 6.12759L18.3982 3.96759L17.9351 3.77894ZM17.0564 6.13053L17.963 8.2772L18.4236 8.08266L17.517 5.93599L17.0564 6.13053ZM18.0993 8.41156L20.2659 9.29156L20.4541 8.82831L18.2874 7.94831L18.0993 8.41156ZM20.4564 9.29059L22.6097 8.39059L22.4169 7.92927L20.2636 8.82927L20.4564 9.29059ZM22.7449 8.25425L23.6249 6.09426L23.1618 5.90561L22.2818 8.06561L22.7449 8.25425ZM18.4274 10.7016C17.4957 10.3234 16.6971 9.67745 16.1326 8.84537L15.7189 9.12607C16.3389 10.04 17.216 10.7495 18.2393 11.1649L18.4274 10.7016ZM16.1326 8.84537C15.5681 8.01328 15.2631 7.03247 15.2561 6.027L14.7561 6.03049C14.7638 7.13486 15.0988 8.21214 15.7189 9.12607L16.1326 8.84537ZM15.2561 6.027C15.249 5.02153 15.5404 4.03657 16.0932 3.19668L15.6756 2.92178C15.0684 3.84427 14.7484 4.92612 14.7561 6.03049L15.2561 6.027ZM16.0932 3.19668C16.646 2.3568 17.4355 1.69974 18.3618 1.30859L18.1673 0.847974C17.1499 1.27759 16.2828 1.99929 15.6756 2.92178L16.0932 3.19668ZM18.3618 1.30859C19.2881 0.917449 20.3096 0.8098 21.2971 0.999261L21.3913 0.508218C20.3067 0.300121 19.1847 0.418358 18.1673 0.847974L18.3618 1.30859ZM21.2971 0.999261C22.2846 1.18872 23.1937 1.66678 23.9095 2.37298L24.2606 2.01705C23.4745 1.2414 22.4759 0.716315 21.3913 0.508218L21.2971 0.999261ZM23.9095 2.37298C24.6252 3.07917 25.1155 3.98177 25.3182 4.96662L25.8079 4.8658C25.5853 3.78409 25.0468 2.79271 24.2606 2.01705L23.9095 2.37298ZM25.3182 4.96662C25.5209 5.95146 25.4271 6.97431 25.0484 7.90579L25.5116 8.09407C25.9275 7.07098 26.0306 5.94752 25.8079 4.8658L25.3182 4.96662ZM25.0484 7.90579C24.5409 9.15432 23.5583 10.1502 22.3167 10.6745L22.5112 11.1351C23.8749 10.5593 24.9542 9.46542 25.5116 8.09407L25.0484 7.90579ZM22.3167 10.6745C21.0751 11.1988 19.6762 11.2085 18.4274 10.7016L18.2393 11.1649C19.6109 11.7217 21.1475 11.711 22.5112 11.1351L22.3167 10.6745ZM20.09 0.698462L20.0767 2.96513L20.5767 2.96807L20.59 0.701402L20.09 0.698462ZM22.663 4.03688L24.3297 2.49688L23.9903 2.12965L22.3237 3.66965L22.663 4.03688ZM23.4073 6.24982L25.6807 6.18316L25.666 5.68337L23.3927 5.75004L23.4073 6.24982ZM20.11 9.05625L20.0767 11.3229L20.5766 11.3303L20.61 9.06361L20.11 9.05625ZM18.0199 7.99989L16.3799 9.57989L16.7268 9.93997L18.3668 8.35997L18.0199 7.99989ZM17.2889 5.78327L15.0089 5.76327L15.0045 6.26326L17.2845 6.28325L17.2889 5.78327ZM18.3427 3.69576L16.7294 2.09576L16.3773 2.45077L17.9906 4.05077L18.3427 3.69576ZM22.341 8.34105L23.9877 9.90772L24.3323 9.54548L22.6857 7.97881L22.341 8.34105ZM32.7105 5.90315L31.9772 4.15649L31.5162 4.35004L32.2495 6.09671L32.7105 5.90315ZM31.8406 4.02157L30.0806 3.30824L29.8928 3.77162L31.6528 4.48496L31.8406 4.02157ZM29.8899 3.30942L28.1432 4.04276L28.3368 4.50377L30.0835 3.77044L29.8899 3.30942ZM28.0087 4.1783L27.2887 5.93163L27.7513 6.12156L28.4713 4.36823L28.0087 4.1783ZM27.2895 6.12338L28.0228 7.87004L28.4838 7.67649L27.7505 5.92982L27.2895 6.12338ZM28.1594 8.00496L29.9194 8.71829L30.1072 8.2549L28.3472 7.54157L28.1594 8.00496ZM30.1101 8.7171L31.8568 7.98377L31.6632 7.52276L29.9166 8.25609L30.1101 8.7171ZM31.9913 7.84823L32.7113 6.0949L32.2487 5.90496L31.5287 7.6583L31.9913 7.84823ZM28.4615 9.76863C27.7172 9.46331 27.08 8.9442 26.6305 8.27691L26.2158 8.55625C26.7205 9.30552 27.436 9.8884 28.2718 10.2312L28.4615 9.76863ZM26.6305 8.27691C26.181 7.60961 25.9393 6.82406 25.9361 6.01949L25.4361 6.02151C25.4397 6.92491 25.7111 7.80697 26.2158 8.55625L26.6305 8.27691ZM25.9361 6.01949C25.9328 5.21493 26.1681 4.42745 26.6122 3.75655L26.1953 3.48056C25.6966 4.23388 25.4325 5.1181 25.4361 6.02151L25.9361 6.01949ZM26.6122 3.75655C27.0563 3.08565 27.6893 2.56143 28.4312 2.25011L28.2378 1.78905C27.4047 2.13862 26.694 2.72724 26.1953 3.48056L26.6122 3.75655ZM28.4312 2.25011C29.1731 1.93879 29.9907 1.85435 30.7805 2.00745L30.8757 1.51658C29.9888 1.34468 29.0708 1.43949 28.2378 1.78905L28.4312 2.25011ZM30.7805 2.00745C31.5704 2.16055 32.2972 2.54432 32.869 3.11028L33.2207 2.7549C32.5786 2.11941 31.7626 1.68849 30.8757 1.51658L30.7805 2.00745ZM32.869 3.11028C33.4409 3.67624 33.8322 4.399 33.9935 5.18724L34.4833 5.08701C34.3022 4.20194 33.8629 3.39039 33.2207 2.7549L32.869 3.11028ZM33.9935 5.18724C34.1547 5.97548 34.0788 6.79384 33.7752 7.53893L34.2382 7.7276C34.5791 6.89098 34.6644 5.97209 34.4833 5.08701L33.9935 5.18724ZM33.775 7.53928C33.5737 8.03546 33.2764 8.48696 32.9 8.86783L33.2556 9.21927C33.6783 8.79154 34.0123 8.28448 34.2383 7.72724L33.775 7.53928ZM32.9 8.86783C32.5236 9.2487 32.0757 9.55143 31.582 9.75862L31.7754 10.2197C32.3299 9.98699 32.833 9.64701 33.2556 9.21927L32.9 8.86783ZM31.582 9.75862C31.0882 9.9658 30.5584 10.0734 30.0229 10.0751L30.0246 10.5751C30.6259 10.5731 31.2209 10.4524 31.7754 10.2197L31.582 9.75862ZM30.0229 10.0751C29.4875 10.0768 28.957 9.97274 28.4619 9.76878L28.2714 10.2311C28.8274 10.4601 29.4232 10.5771 30.0246 10.5751L30.0229 10.0751ZM29.75 1.69146L29.7367 3.53813L30.2367 3.54174L30.25 1.69507L29.75 1.69146ZM31.9094 4.4371L33.2694 3.18377L32.9306 2.81609L31.5706 4.06943L31.9094 4.4371ZM32.4872 6.24983L34.3339 6.19649L34.3195 5.6967L32.4728 5.75004L32.4872 6.24983ZM29.7634 8.48297L29.7367 10.323L30.2366 10.3302L30.2633 8.49022L29.7634 8.48297ZM28.0869 7.59292L26.7535 8.87292L27.0998 9.23361L28.4331 7.95361L28.0869 7.59292ZM27.5218 5.77661L25.6751 5.76327L25.6715 6.26326L27.5182 6.27659L27.5218 5.77661ZM28.4159 4.09559L27.1025 2.79559L26.7508 3.15094L28.0641 4.45094L28.4159 4.09559ZM31.5878 7.93449L32.9278 9.20783L33.2722 8.84537L31.9322 7.57204L31.5878 7.93449ZM13.3902 5.90241L12.6502 4.15574L12.1898 4.35079L12.9298 6.09746L13.3902 5.90241ZM12.5139 4.02157L10.7539 3.30824L10.5661 3.77162L12.3261 4.48496L12.5139 4.02157ZM10.5635 3.30929L8.8102 4.04263L9.00313 4.5039L10.7565 3.77057L10.5635 3.30929ZM8.6751 4.17905L7.96177 5.93239L8.4249 6.12081L9.13824 4.36748L8.6751 4.17905ZM7.96283 6.12338L8.69616 7.87004L9.15718 7.67649L8.42384 5.92982L7.96283 6.12338ZM8.83276 8.00496L10.5928 8.71829L10.7806 8.2549L9.02057 7.54157L8.83276 8.00496ZM10.7831 8.71724L12.5365 7.9839L12.3435 7.52262L10.5902 8.25596L10.7831 8.71724ZM12.6713 7.84823L13.3913 6.0949L12.9287 5.90496L12.2087 7.6583L12.6713 7.84823ZM9.1352 9.76877C8.39158 9.46251 7.75535 8.94281 7.30683 8.27528L6.89181 8.55413C7.39543 9.30367 8.10982 9.88721 8.9448 10.2311L9.1352 9.76877ZM7.30683 8.27528C6.85832 7.60774 6.61762 6.82229 6.61512 6.01807L6.11512 6.01963C6.11793 6.92264 6.3882 7.80459 6.89181 8.55413L7.30683 8.27528ZM6.61512 6.01807C6.61262 5.21386 6.84843 4.42692 7.2928 3.75661L6.87605 3.48035C6.3771 4.233 6.11232 5.11661 6.11512 6.01963L6.61512 6.01807ZM7.2928 3.75661C7.73716 3.0863 8.37014 2.56266 9.11185 2.25179L8.91858 1.79066C8.08575 2.13972 7.375 2.72769 6.87605 3.48035L7.2928 3.75661ZM9.11185 2.25179C9.85356 1.94092 10.6707 1.85676 11.4602 2.00993L11.5555 1.51908C10.669 1.34709 9.75141 1.4416 8.91858 1.79066L9.11185 2.25179ZM11.4602 2.00993C12.2497 2.16309 12.9762 2.54672 13.5478 3.11239L13.8995 2.75698C13.2576 2.12182 12.442 1.69106 11.5555 1.51908L11.4602 2.00993ZM13.5478 3.11239C14.1195 3.67806 14.5107 4.40041 14.6722 5.18825L15.162 5.08786C14.9807 4.20323 14.5414 3.39214 13.8995 2.75698L13.5478 3.11239ZM14.6722 5.18825C14.8337 5.9761 14.7581 6.79412 14.4551 7.53906L14.9182 7.72747C15.2585 6.89101 15.3433 5.97249 15.162 5.08786L14.6722 5.18825ZM14.455 7.53942C14.2537 8.03636 13.9561 8.48855 13.5793 8.86995L13.935 9.22136C14.3581 8.79303 14.6924 8.28519 14.9184 7.72711L14.455 7.53942ZM13.5793 8.86995C13.2025 9.25134 12.7539 9.55439 12.2594 9.76164L12.4527 10.2228C13.008 9.99003 13.5118 9.64968 13.935 9.22136L13.5793 8.86995ZM12.2594 9.76164C11.765 9.96888 11.2344 10.0762 10.6982 10.0775L10.6994 10.5775C11.3015 10.5761 11.8974 10.4555 12.4527 10.2228L12.2594 9.76164ZM10.6982 10.0775C10.1621 10.0787 9.63099 9.97385 9.13556 9.76892L8.94444 10.2309C9.50083 10.4611 10.0973 10.5789 10.6994 10.5775L10.6982 10.0775ZM10.4233 1.69146L10.41 3.53813L10.91 3.54174L10.9233 1.69507L10.4233 1.69146ZM12.5894 4.4371L13.9494 3.18377L13.6106 2.81609L12.2506 4.06943L12.5894 4.4371ZM13.1672 6.24983L15.0139 6.19649L14.9995 5.6967L13.1528 5.75004L13.1672 6.24983ZM10.4367 8.48297L10.41 10.323L10.91 10.3302L10.9366 8.49022L10.4367 8.48297ZM8.75308 7.59335L7.42642 8.87335L7.77359 9.23318L9.10025 7.95318L8.75308 7.59335ZM8.19513 5.77661L6.3418 5.76327L6.3382 6.26326L8.19154 6.27659L8.19513 5.77661ZM9.08299 4.09604L7.77633 2.79604L7.42368 3.15049L8.73034 4.45049L9.08299 4.09604ZM12.2678 7.93449L13.6078 9.20783L13.9522 8.84537L12.6122 7.57204L12.2678 7.93449ZM34.3333 8.14326H38.5933V7.64326H34.3333V8.14326ZM38.5818 8.143C38.7502 8.15078 38.9184 8.12515 39.0768 8.06758L38.906 7.59765C38.8097 7.63267 38.7073 7.64827 38.6049 7.64353L38.5818 8.143ZM39.0768 8.06758C39.2352 8.01001 39.3807 7.92165 39.5047 7.80758L39.1664 7.43948C39.0909 7.50887 39.0024 7.56263 38.906 7.59765L39.0768 8.06758ZM39.5047 7.80758C39.6288 7.69352 39.7291 7.55601 39.7998 7.403L39.3458 7.19335C39.3028 7.28644 39.2418 7.37009 39.1664 7.43948L39.5047 7.80758ZM39.7998 7.403C39.8704 7.24999 39.9101 7.0845 39.9165 6.91607L39.4169 6.89712C39.413 6.99959 39.3888 7.10026 39.3458 7.19335L39.7998 7.403ZM39.9167 6.9066V5.09326H39.4167V6.9066H39.9167ZM39.9165 5.08361C39.9035 4.7479 39.7587 4.43083 39.5135 4.20115L39.1717 4.56607C39.3209 4.70579 39.409 4.89868 39.4169 5.10292L39.9165 5.08361ZM39.5135 4.20115C39.2683 3.97148 38.9425 3.84771 38.6067 3.85669L38.62 4.35651C38.8243 4.35105 39.0226 4.42634 39.1717 4.56607L39.5135 4.20115ZM38.6133 3.8566H34.3333V4.3566H38.6133V3.8566ZM34.0833 4.1066V7.89993H34.5833V4.1066H34.0833ZM34.5833 7.89993V7.89326H34.0833V7.89993H34.5833Z" fill="#151542"/>
</svg>