<svg width="40" height="16" viewBox="0 0 40 16" fill="none" xmlns="http://www.w3.org/2000/svg">
<path d="M17.6667 14.6067L17.7632 14.3761L17.763 14.376L17.6667 14.6067ZM27 10.7133L26.7683 10.6195L26.7682 10.6197L27 10.7133ZM32.3333 7.92666L32.5094 8.10415C32.5567 8.05721 32.5833 7.99332 32.5833 7.92666C32.5833 7.86001 32.5567 7.79612 32.5094 7.74918L32.3333 7.92666ZM29.9067 9.04L29.887 9.28922C29.9001 9.29026 29.9133 9.29026 29.9264 9.28922L29.9067 9.04ZM27.48 7.92666L27.3039 7.74918C27.2566 7.79612 27.23 7.86001 27.23 7.92666C27.23 7.99332 27.2566 8.05721 27.3039 8.10415L27.48 7.92666ZM29.9067 6.81333L29.9264 6.56411C29.9133 6.56307 29.9001 6.56307 29.887 6.56411L29.9067 6.81333ZM39.6667 7.92666L39.8427 8.10415C39.8901 8.05721 39.9167 7.99332 39.9167 7.92666C39.9167 7.86001 39.8901 7.79612 39.8427 7.74918L39.6667 7.92666ZM37.24 9.04L37.2203 9.28922C37.2334 9.29026 37.2466 9.29026 37.2597 9.28922L37.24 9.04ZM34.8133 7.92666L34.6373 7.74918C34.59 7.79612 34.5633 7.86001 34.5633 7.92666C34.5633 7.99332 34.59 8.05721 34.6373 8.10415L34.8133 7.92666ZM37.24 6.81333L37.2597 6.56411C37.2466 6.56307 37.2334 6.56307 37.2203 6.56411L37.24 6.81333ZM5.87333 8L6.04892 8.17796C6.09654 8.13098 6.12334 8.06687 6.12333 7.99997C6.12333 7.93307 6.09651 7.86897 6.04888 7.822L5.87333 8ZM3.44 9.11333L3.4206 9.36258C3.43367 9.36359 3.4468 9.36358 3.45987 9.36254L3.44 9.11333ZM1 8L0.824418 7.82203C0.776797 7.86902 0.749993 7.93313 0.75 8.00002C0.750007 8.06692 0.776825 8.13102 0.824455 8.178L1 8ZM3.43333 6.88666L3.45273 6.63742C3.43967 6.6364 3.42654 6.63641 3.41347 6.63745L3.43333 6.88666ZM13.2267 8L13.4023 8.17796C13.4499 8.13096 13.4767 8.06682 13.4767 7.9999C13.4766 7.93297 13.4498 7.86886 13.4021 7.82189L13.2267 8ZM10.7933 9.11333L10.7753 9.36268C10.7879 9.36359 10.8006 9.36354 10.8132 9.36254L10.7933 9.11333ZM8.33333 8L8.15775 7.82203C8.11011 7.86903 8.08331 7.93317 8.08333 8.0001C8.08336 8.06702 8.11022 8.13114 8.1579 8.1781L8.33333 8ZM10.7667 6.88666L10.7847 6.63731C10.7721 6.6364 10.7594 6.63645 10.7468 6.63745L10.7667 6.88666ZM28.5333 6.46333H38.68V5.96333H28.5333V6.46333ZM38.68 6.46333C39.0869 6.46333 39.4167 6.79315 39.4167 7.2H39.9167C39.9167 6.517 39.363 5.96333 38.68 5.96333V6.46333ZM39.4167 7.2V8.79333H39.9167V7.2H39.4167ZM39.4167 8.79333C39.4167 9.20018 39.0869 9.53 38.68 9.53V10.03C39.363 10.03 39.9167 9.47632 39.9167 8.79333H39.4167ZM38.68 9.53H28.5333V10.03H38.68V9.53ZM28.5333 9.53C28.1265 9.53 27.7967 9.20018 27.7967 8.79333H27.2967C27.2967 9.47632 27.8503 10.03 28.5333 10.03V9.53ZM27.7967 8.79333V7.2H27.2967V8.79333H27.7967ZM27.7967 7.2C27.7967 6.79315 28.1265 6.46333 28.5333 6.46333V5.96333C27.8503 5.96333 27.2967 6.517 27.2967 7.2H27.7967ZM2.01333 6.46333H12.2133V5.96333H2.01333V6.46333ZM12.2133 6.46333C12.6202 6.46333 12.95 6.79315 12.95 7.2H13.45C13.45 6.517 12.8963 5.96333 12.2133 5.96333V6.46333ZM12.95 7.2V8.79333H13.45V7.2H12.95ZM12.95 8.79333C12.95 9.20018 12.6202 9.53 12.2133 9.53V10.03C12.8963 10.03 13.45 9.47632 13.45 8.79333H12.95ZM12.2133 9.53H2.01333V10.03H12.2133V9.53ZM2.01333 9.53C1.60648 9.53 1.27667 9.20018 1.27667 8.79333H0.776667C0.776667 9.47632 1.33034 10.03 2.01333 10.03V9.53ZM1.27667 8.79333V7.2H0.776667V8.79333H1.27667ZM1.27667 7.2C1.27667 6.79315 1.60648 6.46333 2.01333 6.46333V5.96333C1.33034 5.96333 0.776667 6.517 0.776667 7.2H1.27667ZM24.6703 7.90274L23.457 5.02941L22.9964 5.22392L24.2097 8.09725L24.6703 7.90274ZM23.3209 4.8951L20.4209 3.7151L20.2324 4.17823L23.1324 5.35823L23.3209 4.8951ZM20.2301 3.71608L17.3501 4.92275L17.5433 5.38391L20.4233 4.17724L20.2301 3.71608ZM17.2154 5.05846L16.0287 7.9518L16.4913 8.14153L17.678 5.2482L17.2154 5.05846ZM16.0297 8.14392L17.243 11.0173L17.7036 10.8227L16.4903 7.94941L16.0297 8.14392ZM17.3791 11.1516L20.2791 12.3316L20.4676 11.8684L17.5676 10.6884L17.3791 11.1516ZM20.4698 12.3307L23.3564 11.124L23.1636 10.6627L20.2769 11.8693L20.4698 12.3307ZM23.4915 10.9877L24.6715 8.09441L24.2085 7.90559L23.0285 10.7989L23.4915 10.9877ZM17.763 14.376C16.5132 13.8542 15.4457 12.9743 14.6949 11.8471L14.2788 12.1243C15.0842 13.3336 16.2295 14.2776 17.5704 14.8374L17.763 14.376ZM14.6949 11.8471C13.9441 10.7199 13.5436 9.39577 13.5438 8.04142L13.0438 8.04134C13.0436 9.49436 13.4733 10.915 14.2788 12.1243L14.6949 11.8471ZM13.5438 8.04142C13.544 6.68707 13.9449 5.36305 14.696 4.23607L14.28 3.95877C13.4741 5.16786 13.044 6.58833 13.0438 8.04134L13.5438 8.04142ZM14.696 4.23607C15.4471 3.10909 16.5149 2.22952 17.7648 1.70811L17.5723 1.24665C16.2313 1.80604 15.0858 2.74969 14.28 3.95877L14.696 4.23607ZM17.7648 1.70811C19.0148 1.1867 20.3911 1.04675 21.7204 1.3059L21.8161 0.815137C20.3899 0.537113 18.9134 0.68725 17.5723 1.24665L17.7648 1.70811ZM21.7204 1.3059C23.0497 1.56504 24.2727 2.21169 25.2352 3.16442L25.587 2.80906C24.5543 1.78692 23.2422 1.09316 21.8161 0.815137L21.7204 1.3059ZM25.2352 3.16442C26.1978 4.11716 26.857 5.33338 27.1298 6.65997L27.6196 6.55926C27.3269 5.13602 26.6197 3.8312 25.587 2.80906L25.2352 3.16442ZM27.1298 6.65997C27.4026 7.98656 27.2768 9.36421 26.7683 10.6195L27.2317 10.8072C27.7773 9.4605 27.9122 7.98249 27.6196 6.55926L27.1298 6.65997ZM26.7682 10.6197C26.4282 11.4612 25.9245 12.2269 25.2863 12.8723L25.6419 13.2238C26.3266 12.5314 26.867 11.7099 27.2318 10.807L26.7682 10.6197ZM25.2863 12.8723C24.6482 13.5176 23.8882 14.0299 23.0505 14.3793L23.243 14.8408C24.1418 14.4659 24.9572 13.9163 25.6419 13.2238L25.2863 12.8723ZM23.0505 14.3793C22.2129 14.7288 21.3142 14.9084 20.4065 14.9078L20.4062 15.4078C21.38 15.4084 22.3443 15.2157 23.243 14.8408L23.0505 14.3793ZM20.4065 14.9078C19.4989 14.9073 18.6004 14.7265 17.7632 14.3761L17.5701 14.8373C18.4684 15.2133 19.4324 15.4072 20.4062 15.4078L20.4065 14.9078ZM20.1033 0.911133L20.0767 3.94447L20.5767 3.94886L20.6033 0.915528L20.1033 0.911133ZM23.3959 5.31068L25.6359 3.25068L25.2974 2.88265L23.0574 4.94265L23.3959 5.31068ZM24.4471 8.2499L27.5004 8.16323L27.4862 7.66343L24.4329 7.7501L24.4471 8.2499ZM20.1234 12.0962L20.0767 15.1295L20.5766 15.1372L20.6233 12.1038L20.1234 12.0962ZM17.2999 10.74L15.1065 12.8533L15.4535 13.2134L17.6468 11.1L17.2999 10.74ZM16.2616 7.79667L13.215 7.77667L13.2117 8.27666L16.2584 8.29666L16.2616 7.79667ZM17.6223 4.97546L15.4557 2.83546L15.1043 3.1912L17.271 5.3312L17.6223 4.97546ZM23.0879 11.0747L25.2946 13.168L25.6387 12.8053L23.4321 10.712L23.0879 11.0747ZM32.1573 7.74918C31.5476 8.35401 30.7431 8.72308 29.887 8.79077L29.9264 9.28922C30.9005 9.2122 31.8157 8.7923 32.5094 8.10415L32.1573 7.74918ZM29.9264 8.79077C29.0702 8.72308 28.2658 8.35401 27.6561 7.74918L27.3039 8.10415C27.9977 8.7923 28.9129 9.2122 29.887 9.28922L29.9264 8.79077ZM27.6561 8.10415C28.2658 7.49931 29.0702 7.13025 29.9264 7.06255L29.887 6.56411C28.9129 6.64113 27.9977 7.06103 27.3039 7.74918L27.6561 8.10415ZM29.887 7.06255C30.7431 7.13025 31.5476 7.49931 32.1573 8.10415L32.5094 7.74918C31.8157 7.06103 30.9005 6.64113 29.9264 6.56411L29.887 7.06255ZM34.57 7.95333C34.57 8.40548 34.1528 8.81666 33.58 8.81666V9.31666C34.3769 9.31666 35.07 8.73093 35.07 7.95333H34.57ZM33.58 8.81666C33.0072 8.81666 32.59 8.40548 32.59 7.95333H32.09C32.09 8.73093 32.7831 9.31666 33.58 9.31666V8.81666ZM32.59 7.95333C32.59 7.50118 33.0072 7.09 33.58 7.09V6.59C32.7831 6.59 32.09 7.17573 32.09 7.95333H32.59ZM33.58 7.09C34.1528 7.09 34.57 7.50118 34.57 7.95333H35.07C35.07 7.17573 34.3769 6.59 33.58 6.59V7.09ZM39.4906 7.74918C38.8809 8.35401 38.0765 8.72308 37.2203 8.79077L37.2597 9.28922C38.2338 9.2122 39.149 8.7923 39.8427 8.10415L39.4906 7.74918ZM37.2597 8.79077C36.4036 8.72308 35.5991 8.35401 34.9894 7.74918L34.6373 8.10415C35.331 8.7923 36.2462 9.2122 37.2203 9.28922L37.2597 8.79077ZM34.9894 8.10415C35.5991 7.49931 36.4036 7.13025 37.2597 7.06255L37.2203 6.56411C36.2462 6.64113 35.331 7.06103 34.6373 7.74918L34.9894 8.10415ZM37.2203 7.06255C38.0765 7.13025 38.8809 7.49931 39.4906 8.10415L39.8427 7.74918C39.149 7.06103 38.2338 6.64113 37.2597 6.56411L37.2203 7.06255ZM5.69775 7.82203C5.0849 8.42669 4.27834 8.79571 3.42014 8.86412L3.45987 9.36254C4.43542 9.28478 5.35226 8.86529 6.04892 8.17796L5.69775 7.82203ZM3.4594 8.86408C2.599 8.79711 1.79001 8.42798 1.17554 7.822L0.824455 8.178C1.52294 8.86684 2.44255 9.28645 3.4206 9.36258L3.4594 8.86408ZM1.17558 8.17796C1.78844 7.57331 2.59499 7.20428 3.4532 7.13587L3.41347 6.63745C2.43791 6.71522 1.52108 7.1347 0.824418 7.82203L1.17558 8.17796ZM3.41393 7.13591C4.27434 7.20288 5.08333 7.57201 5.69779 8.178L6.04888 7.822C5.3504 7.13315 4.43079 6.71355 3.45273 6.63742L3.41393 7.13591ZM8.11 8.02666C8.11 8.47763 7.69112 8.89 7.11333 8.89V9.39C7.91258 9.39 8.61 8.80545 8.61 8.02666H8.11ZM7.11333 8.89C6.53555 8.89 6.11667 8.47763 6.11667 8.02666H5.61667C5.61667 8.80545 6.31409 9.39 7.11333 9.39V8.89ZM6.11667 8.02666C6.11667 7.5757 6.53555 7.16333 7.11333 7.16333V6.66333C6.31409 6.66333 5.61667 7.24788 5.61667 8.02666H6.11667ZM7.11333 7.16333C7.69112 7.16333 8.11 7.5757 8.11 8.02666H8.61C8.61 7.24788 7.91258 6.66333 7.11333 6.66333V7.16333ZM13.0511 7.82203C12.4382 8.42669 11.6317 8.79571 10.7735 8.86412L10.8132 9.36254C11.7888 9.28478 12.7056 8.86529 13.4023 8.17796L13.0511 7.82203ZM10.8114 8.86398C9.94436 8.80134 9.12804 8.43189 8.50877 7.82189L8.1579 8.1781C8.86184 8.87151 9.78978 9.29147 10.7753 9.36268L10.8114 8.86398ZM8.50892 8.17796C9.12177 7.57331 9.92832 7.20428 10.7865 7.13587L10.7468 6.63745C9.77125 6.71522 8.85441 7.1347 8.15775 7.82203L8.50892 8.17796ZM10.7487 7.13601C11.6156 7.19865 12.432 7.5681 13.0512 8.1781L13.4021 7.82189C12.6982 7.12848 11.7702 6.70852 10.7847 6.63731L10.7487 7.13601Z" fill="#151542"/>
</svg>