<svg xmlns="http://www.w3.org/2000/svg" width="30.211" height="33.936" viewBox="0 0 30.211 33.936">
  <g id="accounting" transform="translate(-28.102)">
    <g id="Group_41" data-name="Group 41" transform="translate(28.102 0)">
      <g id="Group_40" data-name="Group 40">
        <path id="Path_70" data-name="Path 70" d="M91.136,256.45H84.453a.5.5,0,1,0,0,.994h6.683a.5.5,0,1,0,0-.994Z" transform="translate(-80.254 -239.452)" fill="#212121"/>
        <path id="Path_71" data-name="Path 71" d="M91.136,321.864H84.453a.5.5,0,1,0,0,.994h6.683a.5.5,0,1,0,0-.994Z" transform="translate(-80.254 -300.53)" fill="#212121"/>
        <path id="Path_72" data-name="Path 72" d="M91.136,387.279H84.453a.5.5,0,1,0,0,.994h6.683a.5.5,0,1,0,0-.994Z" transform="translate(-80.254 -361.609)" fill="#212121"/>
        <path id="Path_73" data-name="Path 73" d="M269.393,298.515h1.055a.5.5,0,0,0,0-.994h-1.055a.5.5,0,0,0,0,.994Z" transform="translate(-252.936 -277.801)" fill="#212121"/>
        <path id="Path_74" data-name="Path 74" d="M318.8,297.521h-1.055a.5.5,0,0,0,0,.994H318.8a.5.5,0,0,0,0-.994Z" transform="translate(-298.087 -277.801)" fill="#212121"/>
        <path id="Path_75" data-name="Path 75" d="M367.159,297.521H366.1a.5.5,0,0,0,0,.994h1.055a.5.5,0,0,0,0-.994Z" transform="translate(-343.236 -277.801)" fill="#212121"/>
        <path id="Path_76" data-name="Path 76" d="M415.516,297.521h-1.055a.5.5,0,0,0,0,.994h1.055a.5.5,0,0,0,0-.994Z" transform="translate(-388.388 -277.801)" fill="#212121"/>
        <path id="Path_77" data-name="Path 77" d="M269.393,337.515h1.055a.5.5,0,1,0,0-.994h-1.055a.5.5,0,0,0,0,.994Z" transform="translate(-252.936 -314.216)" fill="#212121"/>
        <path id="Path_78" data-name="Path 78" d="M318.8,336.521h-1.055a.5.5,0,1,0,0,.994H318.8a.5.5,0,0,0,0-.994Z" transform="translate(-298.087 -314.216)" fill="#212121"/>
        <path id="Path_79" data-name="Path 79" d="M367.159,336.521H366.1a.5.5,0,1,0,0,.994h1.055a.5.5,0,0,0,0-.994Z" transform="translate(-343.236 -314.216)" fill="#212121"/>
        <path id="Path_80" data-name="Path 80" d="M415.516,336.521h-1.055a.5.5,0,1,0,0,.994h1.055a.5.5,0,0,0,0-.994Z" transform="translate(-388.388 -314.216)" fill="#212121"/>
        <path id="Path_81" data-name="Path 81" d="M269.393,376.515h1.055a.5.5,0,1,0,0-.994h-1.055a.5.5,0,0,0,0,.994Z" transform="translate(-252.936 -350.631)" fill="#212121"/>
        <path id="Path_82" data-name="Path 82" d="M318.8,375.521h-1.055a.5.5,0,1,0,0,.994H318.8a.5.5,0,0,0,0-.994Z" transform="translate(-298.087 -350.631)" fill="#212121"/>
        <path id="Path_83" data-name="Path 83" d="M367.159,375.521H366.1a.5.5,0,1,0,0,.994h1.055a.5.5,0,0,0,0-.994Z" transform="translate(-343.236 -350.631)" fill="#212121"/>
        <path id="Path_84" data-name="Path 84" d="M415.516,375.521h-1.055a.5.5,0,1,0,0,.994h1.055a.5.5,0,0,0,0-.994Z" transform="translate(-388.388 -350.631)" fill="#212121"/>
        <path id="Path_85" data-name="Path 85" d="M97.162,61.263a.5.5,0,1,0-.544.832,3.327,3.327,0,0,0,1.871.638V63.4a.5.5,0,1,0,.994,0V62.7a2.685,2.685,0,0,0,2.16-2.213,2.353,2.353,0,0,0-1.621-2.693c-.194-.069-.373-.134-.539-.2v-2.78a1.8,1.8,0,0,1,.8.363.5.5,0,0,0,.671-.733,2.839,2.839,0,0,0-1.468-.636v-.6a.5.5,0,0,0-.994,0v.637q-.147.03-.3.076a2.223,2.223,0,0,0-1.522,1.745,1.95,1.95,0,0,0,.636,1.922,5.442,5.442,0,0,0,1.187.674v3.478a2.351,2.351,0,0,1-1.327-.475Zm2.321-2.61.208.074a1.372,1.372,0,0,1,.972,1.59,1.71,1.71,0,0,1-1.18,1.356ZM97.915,56.8a.968.968,0,0,1-.272-.955,1.241,1.241,0,0,1,.832-.977l.014,0v2.292A3.59,3.59,0,0,1,97.915,56.8Z" transform="translate(-91.866 -49.215)" fill="#f2512e"/>
        <path id="Path_86" data-name="Path 86" d="M54.142,31.011a.5.5,0,0,0-.5.5v.355a1.08,1.08,0,0,1-1.079,1.079H30.175A1.08,1.08,0,0,1,29.1,31.864V2.073A1.08,1.08,0,0,1,30.175.994H47.568a1.075,1.075,0,0,1,.156.013V5.164a1.754,1.754,0,0,0,1.752,1.752h4.157a1.074,1.074,0,0,1,.013.156V9.445a.5.5,0,1,0,.994,0V7.071a2.163,2.163,0,0,0-.6-1.455L49.034.607,49.022.6h0l0,0A2.074,2.074,0,0,0,47.568,0H30.175A2.075,2.075,0,0,0,28.1,2.073V31.864a2.075,2.075,0,0,0,2.073,2.073H52.566a2.075,2.075,0,0,0,2.073-2.073v-.355A.5.5,0,0,0,54.142,31.011ZM48.718,1.7l4.224,4.224H49.476a.759.759,0,0,1-.758-.758V1.7Z" transform="translate(-28.102 0)" fill="#212121"/>
        <path id="Path_87" data-name="Path 87" d="M244.99,170.178H231.6a1.728,1.728,0,0,0-1.726,1.726v1.672a.5.5,0,1,0,.994,0V171.9a.732.732,0,0,1,.732-.732H244.99a.732.732,0,0,1,.731.732v14.953a.732.732,0,0,1-.731.732H231.6a.732.732,0,0,1-.732-.732V175.9a.5.5,0,1,0-.994,0v10.956a1.728,1.728,0,0,0,1.726,1.726H244.99a1.728,1.728,0,0,0,1.726-1.726V171.9A1.728,1.728,0,0,0,244.99,170.178Z" transform="translate(-216.505 -158.898)" fill="#212121"/>
        <path id="Path_88" data-name="Path 88" d="M280.561,207.409a.88.88,0,0,0-.879-.879h-9.906a.88.88,0,0,0-.879.879v2.544a.88.88,0,0,0,.879.879h9.906a.88.88,0,0,0,.879-.879Zm-.994,2.429H269.89v-2.315h9.676v2.315Z" transform="translate(-252.936 -192.841)" fill="#212121"/>
      </g>
    </g>
  </g>
</svg>
