<svg xmlns="http://www.w3.org/2000/svg" width="32.581" height="32.581" viewBox="0 0 32.581 32.581">
  <g id="alarm-clock-hour-schedule-time-timer-svgrepo-com" transform="translate(-1 -1)">
    <path id="Path_91" data-name="Path 91" d="M9.132,18.194a1.342,1.342,0,0,1,.525-.554l4.256-2.457V7.774a1.357,1.357,0,1,1,2.715,0v8.145a1.359,1.359,0,0,1-.639,1.155,1.421,1.421,0,0,1-.265.2l-4.709,2.718a1.356,1.356,0,0,1-1.882-1.8Z" transform="translate(2.02 1.371)" fill="#f2512e"/>
    <path id="Path_92" data-name="Path 92" d="M17.29,33.581A16.29,16.29,0,1,0,1,17.29,16.291,16.291,0,0,0,17.29,33.581Zm0-2.715A13.575,13.575,0,1,0,3.715,17.29,13.575,13.575,0,0,0,17.29,30.865Z" fill="#212121" fill-rule="evenodd"/>
  </g>
</svg>
