<svg xmlns="http://www.w3.org/2000/svg" width="36.244" height="34.878" viewBox="0 0 36.244 34.878">
  <g id="business-affiliate-network" transform="translate(0.5 -0.411)">
    <g id="Layer_1_110_" transform="translate(0 0.911)">
      <g id="Group_36" data-name="Group 36">
        <path id="Path_57" data-name="Path 57" d="M14.89,13.715l-2.151-2.032a3.152,3.152,0,0,0,.405-1.526,3.211,3.211,0,1,0-1.5,2.7l2.148,2.03A7.3,7.3,0,0,1,14.89,13.715Z" transform="translate(-1.676 -2.412)" fill="none" stroke="#212121" stroke-width="1"/>
        <path id="Path_58" data-name="Path 58" d="M29.206,11.96l2.858-4.809a3.154,3.154,0,1,0-1.386-.809l-2.849,4.8A7.136,7.136,0,0,1,29.206,11.96Z" transform="translate(-6.981 -0.911)" fill="none" stroke="#212121" stroke-width="1"/>
        <path id="Path_59" data-name="Path 59" d="M40.42,20.952a3.187,3.187,0,0,0-2.985,2.087l-3.97-.392c0,.03,0,.059,0,.088a7.311,7.311,0,0,1-.16,1.511l3.969.392a3.185,3.185,0,1,0,3.142-3.687Z" transform="translate(-8.363 -5.935)" fill="none" stroke="#212121" stroke-width="1"/>
        <path id="Path_60" data-name="Path 60" d="M27.114,36.346l-.888-3.878a7.267,7.267,0,0,1-1.566.362l.889,3.879a3.18,3.18,0,1,0,1.565-.363Z" transform="translate(-5.972 -8.836)" fill="none" stroke="#212121" stroke-width="1"/>
        <path id="Path_61" data-name="Path 61" d="M10.8,25.37,5.857,27.026a3.184,3.184,0,1,0,.522,1.74c0-.074-.016-.141-.022-.214l4.958-1.66A7.283,7.283,0,0,1,10.8,25.37Z" transform="translate(0 -7.043)" fill="none" stroke="#212121" stroke-width="1"/>
        <circle id="Ellipse_27" data-name="Ellipse 27" cx="5.469" cy="5.469" r="5.469" transform="translate(12.4 11.337)" fill="none" stroke="#f2512e" stroke-width="1"/>
      </g>
    </g>
  </g>
</svg>
