<svg xmlns="http://www.w3.org/2000/svg" width="36.811" height="27.609" viewBox="0 0 36.811 27.609">
  <g id="credit-card" transform="translate(0 -3)">
    <circle id="Ellipse_28" data-name="Ellipse 28" cx="2.5" cy="2.5" r="2.5" transform="translate(5.998 20)" fill="#f2512e"/>
    <path id="Path_62" data-name="Path 62" d="M29.142,3H7.669A7.678,7.678,0,0,0,0,10.669v12.27a7.678,7.678,0,0,0,7.669,7.669H29.142a7.678,7.678,0,0,0,7.669-7.669V10.669A7.678,7.678,0,0,0,29.142,3ZM6.669,5.068H30.142c2.541,0,4.6,3.06,4.6,5.6H2.068c0-2.541,2.06-5.6,4.6-5.6ZM30.142,28.541H6.669c-2.541,0-4.6-3.06-4.6-5.6v-10.2H34.744v10.2C34.744,25.481,32.684,28.541,30.142,28.541Z" fill="#212121"/>
  </g>
</svg>
