<svg xmlns="http://www.w3.org/2000/svg" width="30" height="30" viewBox="0 0 30 30">
  <g id="Group_29" data-name="Group 29" transform="translate(-813 -716)">
    <g id="sign-in-alt" transform="translate(837.982 721.018) rotate(90)">
      <path id="Path_38" data-name="Path 38" d="M19.673,0H5.309A5.262,5.262,0,0,0,0,5.2V8.327a1.041,1.041,0,0,0,2.082,0V5.2A3.179,3.179,0,0,1,5.309,2.082H19.673A3.179,3.179,0,0,1,22.9,5.2V19.777A3.179,3.179,0,0,1,19.673,22.9H5.309a3.179,3.179,0,0,1-3.227-3.123V16.654a1.041,1.041,0,1,0-2.082,0v3.123a5.262,5.262,0,0,0,5.309,5.2H19.673a5.262,5.262,0,0,0,5.309-5.2V5.2A5.262,5.262,0,0,0,19.673,0Z" transform="translate(0 0)" fill="#212121"/>
    </g>
    <g id="Group_28" data-name="Group 28" transform="translate(818.018 716)">
      <path id="Path_45" data-name="Path 45" d="M1487.547,706.539h-3.973l-2.365,1.513-.946,1.7v16.174l.946,1.608,1.23,1.135h17.688l1.419-1.135,1.23-1.608V709.755l-1.23-2.27-1.419-.946h-12.58Z" transform="translate(-1479.212 -705.257)" fill="#fff"/>
      <g id="sign-in-alt-2" data-name="sign-in-alt" transform="translate(24.982 0) rotate(90)">
        <path id="Path_38-2" data-name="Path 38" d="M19.673,0H5.309A5.262,5.262,0,0,0,0,5.2V8.327a1.041,1.041,0,0,0,2.082,0V5.2A3.179,3.179,0,0,1,5.309,2.082H19.673A3.179,3.179,0,0,1,22.9,5.2V19.777A3.179,3.179,0,0,1,19.673,22.9H5.309a3.179,3.179,0,0,1-3.227-3.123V16.654a1.041,1.041,0,1,0-2.082,0v3.123a5.262,5.262,0,0,0,5.309,5.2H19.673a5.262,5.262,0,0,0,5.309-5.2V5.2A5.262,5.262,0,0,0,19.673,0Z" transform="translate(0)" fill="#212121"/>
        <path id="Path_39" data-name="Path 39" d="M0,7.217A1.043,1.043,0,0,0,1.055,8.248h0l13.911-.031-4.56,4.457a1.014,1.014,0,0,0,0,1.458,1.072,1.072,0,0,0,1.492,0L16.734,9.4a3.044,3.044,0,0,0,0-4.373L11.9.3a1.072,1.072,0,0,0-1.492,0,1.015,1.015,0,0,0,0,1.458l4.5,4.395L1.055,6.186A1.043,1.043,0,0,0,0,7.217Z" transform="translate(3.164 5.274)" fill="#f2512e"/>
      </g>
    </g>
  </g>
</svg>
