<svg xmlns="http://www.w3.org/2000/svg" width="30.233" height="31.759" viewBox="0 0 30.233 31.759">
  <g id="Group_37" data-name="Group 37" transform="translate(-1088 -1681)">
    <path id="return-svgrepo-com" d="M18.065,0H2.088a.666.666,0,0,0,0,1.331H18.065a11.983,11.983,0,1,1,0,23.965H3.695l4.189-4.189-.941-.941L1.618,25.491h0l-.471.47.47.47h0l5.325,5.325.941-.941L3.695,26.628h14.37A13.314,13.314,0,1,0,18.065,0Z" transform="translate(1086.854 1681)"/>
    <path id="return-svgrepo-com-2" data-name="return-svgrepo-com" d="M3.695,25.3l4.189-4.189-.941-.941L1.618,25.491h0l-.471.47.47.47h0l5.325,5.325.941-.941L3.074,25.962" transform="translate(1086.854 1681)" fill="#f2512e"/>
  </g>
</svg>
