<svg id="Group_39" data-name="Group 39" xmlns="http://www.w3.org/2000/svg" width="30.233" height="31.759" viewBox="0 0 30.233 31.759">
  <path id="return-svgrepo-com" d="M14.46,0H30.437a.666.666,0,0,1,0,1.331H14.46a11.983,11.983,0,0,0,0,23.965H28.83l-4.189-4.189.941-.941,5.325,5.325h0l.471.47-.47.47h0l-5.325,5.325-.941-.941,4.189-4.189H14.46A13.314,13.314,0,0,1,14.46,0Z" transform="translate(-1.146 0)"/>
  <path id="return-svgrepo-com-2" data-name="return-svgrepo-com" d="M5.335,25.3,1.146,21.107l.941-.941,5.325,5.325h0l.471.47-.47.47h0L2.088,31.759l-.941-.941,4.809-4.855" transform="translate(22.349 0)" fill="#f2512e"/>
</svg>
