<svg xmlns="http://www.w3.org/2000/svg" width="29.993" height="30" viewBox="0 0 29.993 30">
  <g id="link_1_" data-name="link (1)" transform="translate(-0.062 0)">
    <path id="Path_40" data-name="Path 40" d="M17.366,191.243l-4.077,4.077A6.284,6.284,0,0,1,4.4,186.435l4.077-4.081a1.25,1.25,0,0,0-1.769-1.767l-4.076,4.081a8.784,8.784,0,0,0,12.426,12.42l4.077-4.077a1.25,1.25,0,0,0-1.767-1.767h0Z" transform="translate(0 -169.662)" fill="#212121"/>
    <path id="Path_41" data-name="Path 41" d="M197.114,2.576A8.722,8.722,0,0,0,190.9,0h0a8.728,8.728,0,0,0-6.209,2.571L180.611,6.65a1.25,1.25,0,0,0,1.767,1.769l4.081-4.077A6.241,6.241,0,0,1,190.9,2.5h0a6.284,6.284,0,0,1,4.442,10.727L191.266,17.3a1.251,1.251,0,0,0,1.769,1.769h0L197.112,15A8.8,8.8,0,0,0,197.114,2.576Z" transform="translate(-169.626 0)" fill="#212121"/>
    <path id="Path_42" data-name="Path 42" d="M178.332,171.281l-7.5,7.5a1.25,1.25,0,0,0,1.737,1.8l.031-.031,7.5-7.5a1.25,1.25,0,0,0-1.767-1.767Z" transform="translate(-160.406 -160.915)" fill="#f2512e"/>
  </g>
</svg>
