<svg xmlns="http://www.w3.org/2000/svg" width="29.993" height="30.5" viewBox="0 0 29.993 30.5">
  <g id="order-svgrepo-com" transform="translate(-0.706 0.25)">
    <path id="Path_51" data-name="Path 51" d="M157.607,21.861a.61.61,0,0,0-.863,0l-6.053,6.055V.61a.61.61,0,1,0-1.22,0V27.916l-6.053-6.055a.61.61,0,0,0-.863.863l7.094,7.1a.61.61,0,0,0,.863,0l7.094-7.1A.61.61,0,0,0,157.607,21.861Z" transform="translate(-127.336)" fill="#f2512e" stroke="#f2512e" stroke-width="0.5"/>
    <path id="Path_52" data-name="Path 52" d="M1.566,1.22H19.887a.61.61,0,0,0,0-1.22H1.566a.61.61,0,1,0,0,1.22Z" fill="#212121" stroke="#212121" stroke-width="0.5"/>
    <path id="Path_53" data-name="Path 53" d="M1.566,71.448H19.887a.61.61,0,1,0,0-1.22H1.566a.61.61,0,1,0,0,1.22Z" transform="translate(0 -63.082)" fill="#212121" stroke="#212121" stroke-width="0.5"/>
    <path id="Path_54" data-name="Path 54" d="M1.566,141.676H19.887a.61.61,0,1,0,0-1.22H1.566a.61.61,0,1,0,0,1.22Z" transform="translate(0 -126.164)" fill="#212121" stroke="#212121" stroke-width="0.5"/>
    <path id="Path_55" data-name="Path 55" d="M13.515,210.685H1.566a.61.61,0,0,0,0,1.22H13.515a.61.61,0,0,0,0-1.22Z" transform="translate(0 -189.247)" fill="#212121" stroke="#212121" stroke-width="0.5"/>
    <path id="Path_56" data-name="Path 56" d="M13.515,280.912H1.566a.61.61,0,1,0,0,1.22H13.515a.61.61,0,1,0,0-1.22Z" transform="translate(0 -252.329)" fill="#212121" stroke="#212121" stroke-width="0.5"/>
  </g>
</svg>
