<svg xmlns="http://www.w3.org/2000/svg" width="30.243" height="30.208" viewBox="0 0 30.243 30.208">
  <g id="refresh-reload-update-repeat-rotate-svgrepo-com" transform="translate(-0.254 -0.27)">
    <path id="Path_67" data-name="Path 67" d="M15.378,30.478a15.1,15.1,0,1,1,13.9-20.953,1.1,1.1,0,0,1-2.016.85,12.911,12.911,0,1,0-6.9,16.9,1.1,1.1,0,0,1,.85,2.021,15.015,15.015,0,0,1-5.834,1.178Z" transform="translate(0 0)" fill="#212121"/>
    <path id="Path_68" data-name="Path 68" d="M32.064,11.7h-.009l-8.581-.066a1.1,1.1,0,0,1,.008-2.192h.008l7.486.057.057-7.485a1.1,1.1,0,0,1,1.1-1.087h.008a1.095,1.095,0,0,1,1.088,1.1l-.065,8.581a1.1,1.1,0,0,1-1.1,1.088Z" transform="translate(-2.729 -0.081)" fill="#f2512e"/>
  </g>
</svg>
