<svg xmlns="http://www.w3.org/2000/svg" width="29.885" height="30" viewBox="0 0 29.885 30">
  <g id="refresh" transform="translate(-0.982)">
    <path id="Path_43" data-name="Path 43" d="M15.924,2.5a12.54,12.54,0,0,1,8.9,3.75h-3.9a1.25,1.25,0,1,0,0,2.5H26.1a2.322,2.322,0,0,0,2.321-2.321V1.25a1.25,1.25,0,1,0-2.5,0v2.6A14.976,14.976,0,0,0,.987,13.625a1.259,1.259,0,0,0,1.137,1.37q.056.005.113.005a1.227,1.227,0,0,0,1.236-1.1A12.517,12.517,0,0,1,15.924,2.5Z" transform="translate(0 0)" fill="#212121"/>
    <path id="Path_44" data-name="Path 44" d="M68.863,256.006a1.228,1.228,0,0,0-1.236,1.1,12.482,12.482,0,0,1-21.354,7.652h3.9a1.25,1.25,0,0,0,0-2.5H45a2.32,2.32,0,0,0-2.321,2.319v5.181a1.25,1.25,0,0,0,2.5,0v-2.6a14.976,14.976,0,0,0,24.937-9.777,1.259,1.259,0,0,0-1.137-1.37Q68.919,256.007,68.863,256.006Z" transform="translate(-39.25 -241.006)" fill="#f2512e"/>
  </g>
</svg>
