<svg xmlns="http://www.w3.org/2000/svg" width="30.385" height="30.384" viewBox="0 0 30.385 30.384">
  <g id="refresh-svgrepo-com" transform="translate(0 -0.002)">
    <g id="Group_45" data-name="Group 45" transform="translate(0 0.003)">
      <g id="Group_44" data-name="Group 44" transform="translate(0 0)">
        <path id="Path_97" data-name="Path 97" d="M106.01,115.3a9.189,9.189,0,1,0-8.495-5.674A9.114,9.114,0,0,0,106.01,115.3Zm-3.051-16.543a7.961,7.961,0,1,1-4.309,10.4A7.909,7.909,0,0,1,102.959,98.752Z" transform="translate(-90.812 -90.908)" fill="#f2512e"/>
        <path id="Path_98" data-name="Path 98" d="M.893,20.342a.625.625,0,0,0,.577.409.6.6,0,0,0,.2-.037.62.62,0,0,0,.372-.787,13.968,13.968,0,0,1,22.9-14.72l-1.569.019a.614.614,0,0,0,.006,1.228h.006l3.051-.037a.616.616,0,0,0,.434-.186.631.631,0,0,0,.174-.434l-.037-3.051a.607.607,0,0,0-.62-.608.615.615,0,0,0-.608.62L25.8,4.325A15.195,15.195,0,0,0,.893,20.342Z" transform="translate(0 -0.003)" fill="#212121"/>
      </g>
      <path id="Path_99" data-name="Path 99" d="M75.649,171.053a13.979,13.979,0,0,1-19.737.236l1.569-.019a.614.614,0,0,0-.006-1.228h-.006l-3.051.037a.615.615,0,0,0-.608.62l.037,3.051a.618.618,0,0,0,.614.608h.006a.615.615,0,0,0,.608-.62l-.019-1.569a15.191,15.191,0,0,0,24.908-16,.616.616,0,1,0-1.16.415A13.854,13.854,0,0,1,75.649,171.053Z" transform="translate(-50.473 -146.101)" fill="#212121"/>
    </g>
  </g>
</svg>
