<svg xmlns="http://www.w3.org/2000/svg" width="30.38" height="23.056" viewBox="0 0 30.38 23.056">
  <g id="report" transform="translate(0 -61.717)">
    <g id="Group_43" data-name="Group 43" transform="translate(0 61.717)">
      <path id="Path_93" data-name="Path 93" d="M30.38,82.055a.5.5,0,0,0-.007-.069.469.469,0,0,0-.06-.159L27.988,78.1V63.346a1.631,1.631,0,0,0-1.629-1.629H23.511a.444.444,0,1,0,0,.888H26.36a.741.741,0,0,1,.74.74V77.782H26.008V64.462a.781.781,0,0,0-.78-.78H5.152a.781.781,0,0,0-.78.78v13.32H3.28V63.346a.741.741,0,0,1,.74-.74H21.4a.444.444,0,1,0,0-.888H4.021a1.631,1.631,0,0,0-1.629,1.629V78.1L.067,81.826A.447.447,0,0,0,0,82.061v1.314a1.4,1.4,0,0,0,1.4,1.4H28.983a1.4,1.4,0,0,0,1.4-1.4V82.061S30.38,82.057,30.38,82.055ZM5.261,64.571H25.119V77.782H5.261ZM3.083,78.67H27.3l1.838,2.947h-9.6l-.433-1.33a.85.85,0,0,0-.81-.588H14.914a.444.444,0,0,0,0,.888h3.35l.335,1.029H11.781l.335-1.029h.744a.444.444,0,1,0,0-.888H12.09a.85.85,0,0,0-.81.588l-.433,1.33h-9.6Zm26.409,4.706a.51.51,0,0,1-.509.509H1.4a.51.51,0,0,1-.509-.509v-.87h28.6v.87Z" transform="translate(0 -61.717)" fill="#212121"/>
      <path id="Path_96" data-name="Path 96" d="M132.28,195.119H130.9v-4.438a.624.624,0,0,0-.624-.624h-2.335a.624.624,0,0,0-.624.624v4.438h-1.105V189.28a.624.624,0,0,0-.624-.624h-2.335a.624.624,0,0,0-.624.624v5.839h-1.105v-3.777a.624.624,0,0,0-.624-.624h-2.335a.624.624,0,0,0-.624.624v3.777h-1.376a.444.444,0,0,0,0,.888H132.28a.444.444,0,1,0,0-.888Zm-11.641,0h-1.806v-3.512h1.806Zm4.688,0h-1.806v-5.574h1.806Zm4.688,0h-1.806v-4.173h1.806Z" transform="translate(-109.234 -181.124)" fill="#f2512e"/>
    </g>
  </g>
</svg>
