<svg xmlns="http://www.w3.org/2000/svg" width="29.394" height="31.638" viewBox="0 0 29.394 31.638">
  <g id="shipping-box-01-svgrepo-com" transform="translate(-2 -1.251)">
    <path id="Path_63" data-name="Path 63" d="M15.219,2.671a3.044,3.044,0,0,1,2.956,0L29.611,9.025a1.522,1.522,0,0,1,.783,1.33V22.889a3.044,3.044,0,0,1-1.566,2.661L18.175,31.469a3.044,3.044,0,0,1-2.956,0L4.566,25.55A3.044,3.044,0,0,1,3,22.889V10.355a1.522,1.522,0,0,1,.783-1.33Z" fill="none" stroke="#212121" stroke-linecap="round" stroke-linejoin="round" stroke-width="2"/>
    <path id="Path_64" data-name="Path 64" d="M3,7l13.7,7.623m0,0L30.394,7M16.7,14.623V29.868" transform="translate(0 2.42)" fill="none" stroke="#212121" stroke-linejoin="round" stroke-width="2"/>
    <path id="Path_65" data-name="Path 65" d="M7.5,12.068,21.123,4.5" transform="translate(2.386 1.136)" fill="none" stroke="#212121" stroke-linecap="round" stroke-linejoin="round" stroke-width="2"/>
    <path id="Path_66" data-name="Path 66" d="M6,12.328l4.541,2.531" transform="translate(1.571 5.248)" fill="none" stroke="#f2512e" stroke-linecap="round" stroke-linejoin="round" stroke-width="2"/>
  </g>
</svg>
