<svg xmlns="http://www.w3.org/2000/svg" width="30" height="30" viewBox="0 0 30 30">
  <g id="sign-in-alt" transform="translate(30) rotate(90)">
    <path id="Path_38" data-name="Path 38" d="M23.625,0H6.375A6.319,6.319,0,0,0,0,6.25V10a1.25,1.25,0,0,0,2.5,0V6.25A3.817,3.817,0,0,1,6.375,2.5h17.25A3.817,3.817,0,0,1,27.5,6.25v17.5a3.817,3.817,0,0,1-3.875,3.75H6.375A3.817,3.817,0,0,1,2.5,23.75V20A1.25,1.25,0,1,0,0,20v3.75A6.319,6.319,0,0,0,6.375,30h17.25A6.319,6.319,0,0,0,30,23.75V6.25A6.319,6.319,0,0,0,23.625,0Z" transform="translate(0 0)" fill="#212121"/>
    <path id="Path_39" data-name="Path 39" d="M3,13.666A1.253,1.253,0,0,0,4.267,14.9h0l16.705-.037L15.5,20.219a1.218,1.218,0,0,0,0,1.751,1.288,1.288,0,0,0,1.791,0L23.1,16.292a3.655,3.655,0,0,0,0-5.252L17.289,5.363a1.287,1.287,0,0,0-1.791,0,1.218,1.218,0,0,0,0,1.751l5.4,5.278-16.63.037A1.253,1.253,0,0,0,3,13.666Z" transform="translate(0.8 1.333)" fill="#f2512e"/>
  </g>
</svg>
