<svg xmlns="http://www.w3.org/2000/svg" width="30" height="30" viewBox="0 0 30 30">
  <g id="sign-in-alt" transform="translate(0 30) rotate(-90)">
    <path id="Path_38" data-name="Path 38" d="M23.625,30H6.375A6.319,6.319,0,0,1,0,23.75V20a1.25,1.25,0,0,1,2.5,0v3.75A3.817,3.817,0,0,0,6.375,27.5h17.25A3.817,3.817,0,0,0,27.5,23.75V6.25A3.817,3.817,0,0,0,23.625,2.5H6.375A3.817,3.817,0,0,0,2.5,6.25V10A1.25,1.25,0,0,1,0,10V6.25A6.319,6.319,0,0,1,6.375,0h17.25A6.319,6.319,0,0,1,30,6.25v17.5A6.319,6.319,0,0,1,23.625,30Z" transform="translate(0 0)" fill="#212121"/>
    <path id="Path_39" data-name="Path 39" d="M0,8.666A1.253,1.253,0,0,1,1.267,7.428h0l16.705.037L12.5,2.113a1.218,1.218,0,0,1,0-1.751,1.288,1.288,0,0,1,1.791,0L20.1,6.04a3.655,3.655,0,0,1,0,5.252L14.289,16.97a1.287,1.287,0,0,1-1.791,0,1.218,1.218,0,0,1,0-1.751l5.4-5.278L1.267,9.9A1.253,1.253,0,0,1,0,8.666Z" transform="translate(3.8 6.334)" fill="#f2512e"/>
  </g>
</svg>
