<svg xmlns="http://www.w3.org/2000/svg" width="22.5" height="30" viewBox="0 0 22.5 30">
  <g id="user" transform="translate(-3)">
    <path id="Path_46" data-name="Path 46" d="M13.538,14.847a7.482,7.482,0,0,0,7.538-7.424A7.539,7.539,0,0,0,6,7.424a7.489,7.489,0,0,0,7.538,7.424Zm0-12.373a4.988,4.988,0,0,1,5.025,4.949,5.026,5.026,0,0,1-10.051,0,4.988,4.988,0,0,1,5.025-4.949Z" transform="translate(0.712)" fill="#212121"/>
    <path id="Path_47" data-name="Path 47" d="M14.25,14A11.206,11.206,0,0,0,3,25.135a1.25,1.25,0,0,0,2.5,0,8.75,8.75,0,0,1,17.5,0,1.25,1.25,0,0,0,2.5,0A11.206,11.206,0,0,0,14.25,14Z" transform="translate(0 3.627)" fill="#f2512e"/>
  </g>
</svg>
